NotoSansLao-Bold.ufo
<glyph name="exclam" format="1">
  <advance width="586"/>
  <unicode hex="0021"/>
  <outline>
    <contour>
      <point x="416" y="485" type="line"/>
      <point x="172" y="485" type="line"/>
      <point x="121" y="1462" type="line"/>
      <point x="467" y="1462" type="line"/>
    </contour>
    <contour>
      <point x="117" y="143" type="qcurve" smooth="yes"/>
      <point x="117" y="190"/>
      <point x="144" y="255"/>
      <point x="192" y="295"/>
      <point x="256" y="313"/>
      <point x="293" y="313" type="qcurve" smooth="yes"/>
      <point x="328" y="313"/>
      <point x="391" y="295"/>
      <point x="439" y="255"/>
      <point x="467" y="190"/>
      <point x="467" y="143" type="qcurve" smooth="yes"/>
      <point x="467" y="98"/>
      <point x="439" y="34"/>
      <point x="391" y="-8"/>
      <point x="328" y="-27"/>
      <point x="293" y="-27" type="qcurve" smooth="yes"/>
      <point x="256" y="-27"/>
      <point x="192" y="-8"/>
      <point x="144" y="34"/>
      <point x="117" y="98"/>
    </contour>
  </outline>
</glyph>
<glyph name="quotedbl" format="1">
  <advance width="967"/>
  <unicode hex="0022"/>
  <outline>
    <contour>
      <point x="412" y="1462" type="line"/>
      <point x="371" y="934" type="line"/>
      <point x="174" y="934" type="line"/>
      <point x="133" y="1462" type="line"/>
    </contour>
    <contour>
      <point x="834" y="1462" type="line"/>
      <point x="793" y="934" type="line"/>
      <point x="596" y="934" type="line"/>
      <point x="555" y="1462" type="line"/>
    </contour>
  </outline>
</glyph>
<glyph name="dollar" format="1">
  <advance width="1128"/>
  <unicode hex="0024"/>
  <outline>
    <contour>
      <point x="1061" y="457" type="qcurve" smooth="yes"/>
      <point x="1061" y="382"/>
      <point x="1008" y="254"/>
      <point x="903" y="158"/>
      <point x="747" y="96"/>
      <point x="645" y="86" type="qcurve"/>
      <point x="645" y="-119" type="line"/>
      <point x="508" y="-119" type="line"/>
      <point x="508" y="82" type="line"/>
      <point x="442" y="84"/>
      <point x="330" y="96"/>
      <point x="232" y="118"/>
      <point x="143" y="149"/>
      <point x="100" y="168" type="qcurve"/>
      <point x="100" y="432" type="line"/>
      <point x="142" y="411"/>
      <point x="241" y="373"/>
      <point x="347" y="342"/>
      <point x="456" y="320"/>
      <point x="508" y="317" type="qcurve"/>
      <point x="508" y="635" type="line"/>
      <point x="500" y="638"/>
      <point x="491" y="642" type="qcurve" smooth="yes"/>
      <point x="483" y="645"/>
      <point x="467" y="651"/>
      <point x="461" y="653" type="qcurve" smooth="yes"/>
      <point x="370" y="688"/>
      <point x="234" y="764"/>
      <point x="143" y="858"/>
      <point x="98" y="972"/>
      <point x="98" y="1044" type="qcurve" smooth="yes"/>
      <point x="98" y="1119"/>
      <point x="155" y="1242"/>
      <point x="261" y="1333"/>
      <point x="413" y="1390"/>
      <point x="508" y="1399" type="qcurve"/>
      <point x="508" y="1556" type="line"/>
      <point x="645" y="1556" type="line"/>
      <point x="645" y="1405" type="line"/>
      <point x="732" y="1400"/>
      <point x="914" y="1360"/>
      <point x="1014" y="1317" type="qcurve"/>
      <point x="913" y="1083" type="line"/>
      <point x="848" y="1109"/>
      <point x="707" y="1150"/>
      <point x="645" y="1155" type="qcurve"/>
      <point x="645" y="862" type="line"/>
      <point x="684" y="848" type="line" smooth="yes"/>
      <point x="779" y="813"/>
      <point x="921" y="739"/>
      <point x="1015" y="647"/>
      <point x="1061" y="533"/>
    </contour>
    <contour>
      <point x="760" y="451" type="qcurve" smooth="yes"/>
      <point x="760" y="475"/>
      <point x="747" y="511"/>
      <point x="719" y="541"/>
      <point x="676" y="566"/>
      <point x="645" y="580" type="qcurve"/>
      <point x="645" y="328" type="line"/>
      <point x="704" y="337"/>
      <point x="760" y="397"/>
    </contour>
    <contour>
      <point x="399" y="1051" type="qcurve" smooth="yes"/>
      <point x="399" y="1004"/>
      <point x="451" y="941"/>
      <point x="508" y="920" type="qcurve"/>
      <point x="508" y="1153" type="line"/>
      <point x="454" y="1147"/>
      <point x="399" y="1099"/>
    </contour>
  </outline>
</glyph>
<glyph name="asterisk" format="1">
  <advance width="1116"/>
  <unicode hex="002A"/>
  <outline>
    <contour>
      <point x="688" y="1556" type="line"/>
      <point x="647" y="1188" type="line"/>
      <point x="1020" y="1292" type="line"/>
      <point x="1053" y="1040" type="line"/>
      <point x="713" y="1016" type="line"/>
      <point x="936" y="719" type="line"/>
      <point x="709" y="598" type="line"/>
      <point x="553" y="911" type="line"/>
      <point x="416" y="600" type="line"/>
      <point x="180" y="719" type="line"/>
      <point x="401" y="1016" type="line"/>
      <point x="63" y="1042" type="line"/>
      <point x="102" y="1292" type="line"/>
      <point x="467" y="1188" type="line"/>
      <point x="426" y="1556" type="line"/>
    </contour>
  </outline>
</glyph>
<glyph name="comma" format="1">
  <advance width="594"/>
  <unicode hex="002C"/>
  <outline>
    <contour>
      <point x="459" y="215" type="line"/>
      <point x="445" y="161"/>
      <point x="406" y="39"/>
      <point x="359" y="-85"/>
      <point x="308" y="-208"/>
      <point x="283" y="-264" type="qcurve"/>
      <point x="63" y="-264" type="line"/>
      <point x="78" y="-203"/>
      <point x="107" y="-71"/>
      <point x="134" y="60"/>
      <point x="156" y="185"/>
      <point x="164" y="238" type="qcurve"/>
      <point x="444" y="238" type="line"/>
    </contour>
  </outline>
</glyph>
<glyph name="hyphen" format="1">
  <advance width="659"/>
  <unicode hex="002D"/>
  <unicode hex="00AD"/>
  <outline>
    <contour>
      <point x="61" y="424" type="line"/>
      <point x="61" y="674" type="line"/>
      <point x="598" y="674" type="line"/>
      <point x="598" y="424" type="line"/>
    </contour>
  </outline>
</glyph>
<glyph name="period" format="1">
  <advance width="584"/>
  <unicode hex="002E"/>
  <outline>
    <contour>
      <point x="117" y="143" type="qcurve" smooth="yes"/>
      <point x="117" y="190"/>
      <point x="144" y="255"/>
      <point x="192" y="295"/>
      <point x="256" y="313"/>
      <point x="293" y="313" type="qcurve" smooth="yes"/>
      <point x="328" y="313"/>
      <point x="391" y="295"/>
      <point x="439" y="255"/>
      <point x="467" y="190"/>
      <point x="467" y="143" type="qcurve" smooth="yes"/>
      <point x="467" y="98"/>
      <point x="439" y="34"/>
      <point x="391" y="-8"/>
      <point x="328" y="-27"/>
      <point x="293" y="-27" type="qcurve" smooth="yes"/>
      <point x="256" y="-27"/>
      <point x="192" y="-8"/>
      <point x="144" y="34"/>
      <point x="117" y="98"/>
    </contour>
  </outline>
</glyph>
<glyph name="two" format="1">
  <advance width="1128"/>
  <unicode hex="0032"/>
  <outline>
    <contour>
      <point x="1063" y="0" type="line"/>
      <point x="82" y="0" type="line"/>
      <point x="82" y="215" type="line"/>
      <point x="426" y="586" type="line" smooth="yes"/>
      <point x="491" y="656"/>
      <point x="597" y="774"/>
      <point x="673" y="886"/>
      <point x="715" y="1002"/>
      <point x="715" y="1069" type="qcurve" smooth="yes"/>
      <point x="715" y="1143"/>
      <point x="626" y="1225"/>
      <point x="551" y="1225" type="qcurve" smooth="yes"/>
      <point x="472" y="1225"/>
      <point x="326" y="1147"/>
      <point x="246" y="1075" type="qcurve"/>
      <point x="78" y="1274" type="line"/>
      <point x="123" y="1315"/>
      <point x="221" y="1390"/>
      <point x="339" y="1448"/>
      <point x="481" y="1483"/>
      <point x="569" y="1483" type="qcurve" smooth="yes"/>
      <point x="674" y="1483"/>
      <point x="841" y="1425"/>
      <point x="959" y="1318"/>
      <point x="1022" y="1166"/>
      <point x="1022" y="1071" type="qcurve" smooth="yes"/>
      <point x="1022" y="985"/>
      <point x="962" y="828"/>
      <point x="858" y="677"/>
      <point x="721" y="528"/>
      <point x="643" y="451" type="qcurve" smooth="yes"/>
      <point x="467" y="274" type="line"/>
      <point x="467" y="260" type="line"/>
      <point x="1063" y="260" type="line"/>
    </contour>
  </outline>
</glyph>
<glyph name="four" format="1">
  <advance width="1128"/>
  <unicode hex="0034"/>
  <outline>
    <contour>
      <point x="1085" y="303" type="line"/>
      <point x="909" y="303" type="line"/>
      <point x="909" y="0" type="line"/>
      <point x="608" y="0" type="line"/>
      <point x="608" y="303" type="line"/>
      <point x="4" y="303" type="line"/>
      <point x="4" y="518" type="line"/>
      <point x="625" y="1462" type="line"/>
      <point x="909" y="1462" type="line"/>
      <point x="909" y="543" type="line"/>
      <point x="1085" y="543" type="line"/>
    </contour>
    <contour>
      <point x="608" y="543" type="line"/>
      <point x="608" y="791" type="line" smooth="yes"/>
      <point x="608" y="804"/>
      <point x="609" y="853"/>
      <point x="611" y="915"/>
      <point x="614" y="981"/>
      <point x="617" y="1041"/>
      <point x="620" y="1086"/>
      <point x="621" y="1096" type="qcurve"/>
      <point x="612" y="1096" type="line"/>
      <point x="594" y="1054"/>
      <point x="549" y="960"/>
      <point x="520" y="913" type="qcurve" smooth="yes"/>
      <point x="276" y="543" type="line"/>
    </contour>
  </outline>
</glyph>
<glyph name="seven" format="1">
  <advance width="1128"/>
  <unicode hex="0037"/>
  <outline>
    <contour>
      <point x="207" y="0" type="line"/>
      <point x="727" y="1200" type="line"/>
      <point x="55" y="1200" type="line"/>
      <point x="55" y="1460" type="line"/>
      <point x="1063" y="1460" type="line"/>
      <point x="1063" y="1266" type="line"/>
      <point x="530" y="0" type="line"/>
    </contour>
  </outline>
</glyph>
<glyph name="colon" format="1">
  <advance width="584"/>
  <unicode hex="003A"/>
  <outline>
    <contour>
      <point x="117" y="143" type="qcurve" smooth="yes"/>
      <point x="117" y="190"/>
      <point x="144" y="255"/>
      <point x="192" y="295"/>
      <point x="256" y="313"/>
      <point x="293" y="313" type="qcurve" smooth="yes"/>
      <point x="328" y="313"/>
      <point x="391" y="295"/>
      <point x="439" y="255"/>
      <point x="467" y="190"/>
      <point x="467" y="143" type="qcurve" smooth="yes"/>
      <point x="467" y="98"/>
      <point x="439" y="34"/>
      <point x="391" y="-8"/>
      <point x="328" y="-27"/>
      <point x="293" y="-27" type="qcurve" smooth="yes"/>
      <point x="256" y="-27"/>
      <point x="192" y="-8"/>
      <point x="144" y="34"/>
      <point x="117" y="98"/>
    </contour>
    <contour>
      <point x="117" y="969" type="qcurve" smooth="yes"/>
      <point x="117" y="1016"/>
      <point x="144" y="1081"/>
      <point x="192" y="1121"/>
      <point x="256" y="1139"/>
      <point x="293" y="1139" type="qcurve" smooth="yes"/>
      <point x="328" y="1139"/>
      <point x="391" y="1121"/>
      <point x="439" y="1081"/>
      <point x="467" y="1016"/>
      <point x="467" y="969" type="qcurve" smooth="yes"/>
      <point x="467" y="924"/>
      <point x="439" y="859"/>
      <point x="391" y="818"/>
      <point x="328" y="799"/>
      <point x="293" y="799" type="qcurve" smooth="yes"/>
      <point x="256" y="799"/>
      <point x="192" y="818"/>
      <point x="144" y="859"/>
      <point x="117" y="924"/>
    </contour>
  </outline>
</glyph>
<glyph name="question" format="1">
  <advance width="940"/>
  <unicode hex="003F"/>
  <outline>
    <contour>
      <point x="264" y="485" type="line"/>
      <point x="264" y="559" type="line" smooth="yes"/>
      <point x="264" y="610"/>
      <point x="285" y="693"/>
      <point x="328" y="768"/>
      <point x="396" y="839"/>
      <point x="444" y="877" type="qcurve" smooth="yes"/>
      <point x="486" y="910"/>
      <point x="544" y="962"/>
      <point x="580" y="1013"/>
      <point x="596" y="1069"/>
      <point x="596" y="1106" type="qcurve" smooth="yes"/>
      <point x="596" y="1163"/>
      <point x="519" y="1237"/>
      <point x="440" y="1237" type="qcurve" smooth="yes"/>
      <point x="371" y="1237"/>
      <point x="212" y="1179"/>
      <point x="127" y="1137" type="qcurve"/>
      <point x="25" y="1358" type="line"/>
      <point x="68" y="1383"/>
      <point x="169" y="1428"/>
      <point x="278" y="1463"/>
      <point x="390" y="1483"/>
      <point x="444" y="1483" type="qcurve" smooth="yes"/>
      <point x="546" y="1483"/>
      <point x="710" y="1434"/>
      <point x="824" y="1340"/>
      <point x="885" y="1206"/>
      <point x="885" y="1120" type="qcurve" smooth="yes"/>
      <point x="885" y="1057"/>
      <point x="857" y="958"/>
      <point x="802" y="873"/>
      <point x="719" y="794"/>
      <point x="664" y="750" type="qcurve" smooth="yes"/>
      <point x="622" y="717"/>
      <point x="569" y="668"/>
      <point x="539" y="624"/>
      <point x="528" y="577"/>
      <point x="528" y="545" type="qcurve" smooth="yes"/>
      <point x="528" y="485" type="line"/>
    </contour>
    <contour>
      <point x="231" y="143" type="qcurve" smooth="yes"/>
      <point x="231" y="190"/>
      <point x="258" y="255"/>
      <point x="306" y="295"/>
      <point x="371" y="313"/>
      <point x="408" y="313" type="qcurve" smooth="yes"/>
      <point x="443" y="313"/>
      <point x="506" y="295"/>
      <point x="554" y="255"/>
      <point x="582" y="190"/>
      <point x="582" y="143" type="qcurve" smooth="yes"/>
      <point x="582" y="98"/>
      <point x="554" y="34"/>
      <point x="506" y="-8"/>
      <point x="443" y="-27"/>
      <point x="408" y="-27" type="qcurve" smooth="yes"/>
      <point x="371" y="-27"/>
      <point x="306" y="-8"/>
      <point x="258" y="34"/>
      <point x="231" y="98"/>
    </contour>
  </outline>
</glyph>
<glyph name="at" format="1">
  <advance width="1774"/>
  <unicode hex="0040"/>
  <outline>
    <contour>
      <point x="1673" y="752" type="qcurve" smooth="yes"/>
      <point x="1673" y="657"/>
      <point x="1628" y="471"/>
      <point x="1536" y="324"/>
      <point x="1397" y="233"/>
      <point x="1303" y="233" type="qcurve" smooth="yes"/>
      <point x="1265" y="233"/>
      <point x="1198" y="252"/>
      <point x="1142" y="287"/>
      <point x="1101" y="334"/>
      <point x="1090" y="362" type="qcurve"/>
      <point x="1075" y="362" type="line"/>
      <point x="1056" y="337"/>
      <point x="1006" y="290"/>
      <point x="944" y="254"/>
      <point x="869" y="233"/>
      <point x="825" y="233" type="qcurve" smooth="yes"/>
      <point x="742" y="233"/>
      <point x="613" y="290"/>
      <point x="525" y="395"/>
      <point x="479" y="542"/>
      <point x="479" y="631" type="qcurve" smooth="yes"/>
      <point x="479" y="734"/>
      <point x="541" y="906"/>
      <point x="657" y="1031"/>
      <point x="823" y="1100"/>
      <point x="926" y="1100" type="qcurve" smooth="yes"/>
      <point x="971" y="1100"/>
      <point x="1067" y="1090"/>
      <point x="1156" y="1074"/>
      <point x="1234" y="1054"/>
      <point x="1262" y="1044" type="qcurve"/>
      <point x="1241" y="625" type="line" smooth="yes"/>
      <point x="1239" y="603"/>
      <point x="1239" y="561"/>
      <point x="1239" y="555" type="qcurve" smooth="yes"/>
      <point x="1239" y="513"/>
      <point x="1252" y="459"/>
      <point x="1273" y="428"/>
      <point x="1300" y="416"/>
      <point x="1315" y="416" type="qcurve" smooth="yes"/>
      <point x="1350" y="416"/>
      <point x="1402" y="470"/>
      <point x="1436" y="562"/>
      <point x="1454" y="685"/>
      <point x="1454" y="754" type="qcurve" smooth="yes"/>
      <point x="1454" y="882"/>
      <point x="1378" y="1082"/>
      <point x="1243" y="1220"/>
      <point x="1057" y="1292"/>
      <point x="948" y="1292" type="qcurve" smooth="yes"/>
      <point x="795" y="1292"/>
      <point x="562" y="1190"/>
      <point x="405" y="1007"/>
      <point x="324" y="757"/>
      <point x="324" y="608" type="qcurve" smooth="yes"/>
      <point x="324" y="470"/>
      <point x="394" y="257"/>
      <point x="532" y="112"/>
      <point x="734" y="37"/>
      <point x="866" y="37" type="qcurve" smooth="yes"/>
      <point x="922" y="37"/>
      <point x="1040" y="51"/>
      <point x="1157" y="75"/>
      <point x="1270" y="109"/>
      <point x="1321" y="129" type="qcurve"/>
      <point x="1321" y="-63" type="line"/>
      <point x="1227" y="-105"/>
      <point x="998" y="-154"/>
      <point x="868" y="-154" type="qcurve" smooth="yes"/>
      <point x="687" y="-154"/>
      <point x="402" y="-51"/>
      <point x="206" y="143"/>
      <point x="102" y="424"/>
      <point x="102" y="602" type="qcurve" smooth="yes"/>
      <point x="102" y="726"/>
      <point x="156" y="953"/>
      <point x="258" y="1148"/>
      <point x="405" y="1307"/>
      <point x="593" y="1420"/>
      <point x="819" y="1481"/>
      <point x="948" y="1481" type="qcurve" smooth="yes"/>
      <point x="1106" y="1481"/>
      <point x="1372" y="1380"/>
      <point x="1565" y="1191"/>
      <point x="1673" y="921"/>
    </contour>
    <contour>
      <point x="711" y="627" type="qcurve" smooth="yes"/>
      <point x="711" y="515"/>
      <point x="787" y="416"/>
      <point x="850" y="416" type="qcurve" smooth="yes"/>
      <point x="892" y="416"/>
      <point x="953" y="455"/>
      <point x="992" y="526"/>
      <point x="1013" y="625"/>
      <point x="1016" y="686" type="qcurve" smooth="yes"/>
      <point x="1028" y="907" type="line"/>
      <point x="1008" y="912"/>
      <point x="954" y="918"/>
      <point x="926" y="918" type="qcurve" smooth="yes"/>
      <point x="867" y="918"/>
      <point x="785" y="868"/>
      <point x="734" y="786"/>
      <point x="711" y="681"/>
    </contour>
  </outline>
</glyph>
<glyph name="uni0E81" format="1">
  <advance width="1446"/>
  <unicode hex="0E81"/>
  <outline>
    <contour>
      <point x="198" y="191" type="qcurve" smooth="yes"/>
      <point x="198" y="116"/>
      <point x="273" y="116" type="qcurve" smooth="yes"/>
      <point x="349" y="116"/>
      <point x="349" y="191" type="qcurve" smooth="yes"/>
      <point x="349" y="267"/>
      <point x="273" y="267" type="qcurve" smooth="yes"/>
      <point x="198" y="267"/>
    </contour>
    <contour>
      <point x="340" y="895" type="qcurve"/>
      <point x="340" y="918" type="line" smooth="yes"/>
      <point x="340" y="1036"/>
      <point x="268" y="1036" type="qcurve" smooth="yes"/>
      <point x="198" y="1036"/>
      <point x="198" y="965" type="qcurve" smooth="yes"/>
      <point x="198" y="894"/>
      <point x="311" y="894" type="qcurve" smooth="yes"/>
      <point x="326" y="894"/>
    </contour>
    <contour>
      <point x="273" y="0" type="qcurve" smooth="yes"/>
      <point x="171" y="0"/>
      <point x="124" y="54" type="qcurve" smooth="yes"/>
      <point x="82" y="102"/>
      <point x="82" y="191" type="qcurve" smooth="yes"/>
      <point x="82" y="281"/>
      <point x="124" y="328" type="qcurve" smooth="yes"/>
      <point x="172" y="382"/>
      <point x="273" y="382" type="qcurve" smooth="yes"/>
      <point x="310" y="382"/>
      <point x="340" y="375" type="qcurve"/>
      <point x="340" y="780" type="line"/>
      <point x="313" y="780" type="line" smooth="yes"/>
      <point x="189" y="780"/>
      <point x="132" y="833" type="qcurve" smooth="yes"/>
      <point x="82" y="879"/>
      <point x="82" y="965" type="qcurve" smooth="yes"/>
      <point x="82" y="1059"/>
      <point x="131" y="1105" type="qcurve" smooth="yes"/>
      <point x="179" y="1150"/>
      <point x="273" y="1150" type="qcurve" smooth="yes"/>
      <point x="575" y="1150"/>
      <point x="617" y="1009" type="qcurve"/>
      <point x="728" y="1150"/>
      <point x="919" y="1150" type="qcurve" smooth="yes"/>
      <point x="1083" y="1150"/>
      <point x="1172" y="1083" type="qcurve" smooth="yes"/>
      <point x="1278" y="1004"/>
      <point x="1278" y="830" type="qcurve" smooth="yes"/>
      <point x="1278" y="0" type="line"/>
      <point x="990" y="0" type="line"/>
      <point x="990" y="830" type="line" smooth="yes"/>
      <point x="990" y="919"/>
      <point x="938" y="963" type="qcurve" smooth="yes"/>
      <point x="888" y="1006"/>
      <point x="823" y="1006" type="qcurve" smooth="yes"/>
      <point x="758" y="1006"/>
      <point x="661" y="883" type="qcurve"/>
      <point x="628" y="835" type="line"/>
      <point x="628" y="260" type="line" smooth="yes"/>
      <point x="628" y="123"/>
      <point x="557" y="58" type="qcurve" smooth="yes"/>
      <point x="494" y="0"/>
    </contour>
  </outline>
</glyph>
<glyph name="uni0E82" format="1">
  <advance width="1294"/>
  <unicode hex="0E82"/>
  <outline>
    <contour>
      <point x="417" y="600" type="qcurve" smooth="yes"/>
      <point x="147" y="600"/>
      <point x="147" y="861" type="qcurve" smooth="yes"/>
      <point x="147" y="1150"/>
      <point x="647" y="1150" type="qcurve" smooth="yes"/>
      <point x="897" y="1150"/>
      <point x="1147" y="986"/>
      <point x="1147" y="821" type="qcurve" smooth="yes"/>
      <point x="1147" y="670"/>
      <point x="912" y="462"/>
      <point x="435" y="315"/>
      <point x="435" y="230" type="qcurve" smooth="yes"/>
      <point x="435" y="144"/>
      <point x="489" y="144" type="qcurve" smooth="yes"/>
      <point x="543" y="144"/>
      <point x="770" y="264"/>
      <point x="872" y="264" type="qcurve" smooth="yes"/>
      <point x="1023" y="264"/>
      <point x="1147" y="77" type="qcurve"/>
      <point x="938" y="-10" type="line"/>
      <point x="840" y="120"/>
      <point x="802" y="120" type="qcurve" smooth="yes"/>
      <point x="763" y="120"/>
      <point x="593" y="0"/>
      <point x="443" y="0" type="qcurve" smooth="yes"/>
      <point x="293" y="0"/>
      <point x="147" y="115"/>
      <point x="147" y="230" type="qcurve" smooth="yes"/>
      <point x="147" y="415"/>
      <point x="762" y="582"/>
      <point x="859" y="722"/>
      <point x="859" y="821" type="qcurve" smooth="yes"/>
      <point x="859" y="914"/>
      <point x="703" y="1006"/>
      <point x="647" y="1006" type="qcurve" smooth="yes"/>
      <point x="391" y="1006"/>
      <point x="391" y="861" type="qcurve" smooth="yes"/>
      <point x="391" y="860" type="line"/>
      <point x="410" y="884"/>
      <point x="438" y="900" type="qcurve" smooth="yes"/>
      <point x="476" y="920"/>
      <point x="517" y="920" type="qcurve" smooth="yes"/>
      <point x="627" y="920"/>
      <point x="627" y="760" type="qcurve" smooth="yes"/>
      <point x="627" y="718"/>
      <point x="585" y="642"/>
      <point x="509" y="600"/>
    </contour>
    <contour>
      <point x="454" y="810"/>
      <point x="440" y="778"/>
      <point x="440" y="760" type="qcurve" smooth="yes"/>
      <point x="440" y="742"/>
      <point x="453" y="710"/>
      <point x="478" y="693"/>
      <point x="492" y="693" type="qcurve" smooth="yes"/>
      <point x="506" y="693"/>
      <point x="531" y="710"/>
      <point x="545" y="742"/>
      <point x="545" y="760" type="qcurve" smooth="yes"/>
      <point x="545" y="778"/>
      <point x="530" y="810"/>
      <point x="505" y="828"/>
      <point x="492" y="828" type="qcurve" smooth="yes"/>
      <point x="479" y="828"/>
    </contour>
  </outline>
</glyph>
<glyph name="uni0E84" format="1">
  <advance width="1315"/>
  <unicode hex="0E84"/>
  <outline>
    <contour>
      <point x="650" y="334" type="qcurve" smooth="yes"/>
      <point x="697" y="286"/>
      <point x="697" y="190" type="qcurve" smooth="yes"/>
      <point x="697" y="95"/>
      <point x="649" y="47" type="qcurve" smooth="yes"/>
      <point x="602" y="0"/>
      <point x="475" y="0" type="qcurve" smooth="yes"/>
      <point x="347" y="0"/>
      <point x="147" y="123"/>
      <point x="147" y="295" type="qcurve" smooth="yes"/>
      <point x="147" y="400" type="line" smooth="yes"/>
      <point x="147" y="547"/>
      <point x="360" y="620" type="qcurve"/>
      <point x="147" y="686"/>
      <point x="147" y="830" type="qcurve" smooth="yes"/>
      <point x="147" y="987"/>
      <point x="267" y="1067" type="qcurve" smooth="yes"/>
      <point x="392" y="1150"/>
      <point x="647" y="1150" type="qcurve" smooth="yes"/>
      <point x="893" y="1150"/>
      <point x="1017" y="1058" type="qcurve" smooth="yes"/>
      <point x="1147" y="963"/>
      <point x="1147" y="770" type="qcurve" smooth="yes"/>
      <point x="1147" y="0" type="line"/>
      <point x="859" y="0" type="line"/>
      <point x="859" y="770" type="line" smooth="yes"/>
      <point x="859" y="897"/>
      <point x="758" y="1006"/>
      <point x="647" y="1006" type="qcurve" smooth="yes"/>
      <point x="538" y="1006"/>
      <point x="435" y="921"/>
      <point x="435" y="830" type="qcurve" smooth="yes"/>
      <point x="435" y="690"/>
      <point x="597" y="690" type="qcurve" smooth="yes"/>
      <point x="627" y="690" type="line" smooth="yes"/>
      <point x="677" y="690"/>
      <point x="677" y="623" type="qcurve" smooth="yes"/>
      <point x="677" y="556"/>
      <point x="627" y="556" type="qcurve" smooth="yes"/>
      <point x="597" y="556" type="line" smooth="yes"/>
      <point x="435" y="556"/>
      <point x="435" y="400" type="qcurve" smooth="yes"/>
      <point x="435" y="352" type="line"/>
      <point x="481" y="382"/>
      <point x="542" y="382" type="qcurve" smooth="yes"/>
      <point x="602" y="382"/>
    </contour>
    <contour>
      <point x="570" y="131" type="qcurve" smooth="yes"/>
      <point x="592" y="150"/>
      <point x="592" y="191" type="qcurve" smooth="yes"/>
      <point x="592" y="227"/>
      <point x="575" y="246" type="qcurve" smooth="yes"/>
      <point x="556" y="267"/>
      <point x="517" y="267" type="qcurve" smooth="yes"/>
      <point x="441" y="267"/>
      <point x="441" y="191" type="qcurve" smooth="yes"/>
      <point x="441" y="146"/>
      <point x="468" y="128" type="qcurve" smooth="yes"/>
      <point x="486" y="116"/>
      <point x="517" y="116" type="qcurve" smooth="yes"/>
      <point x="551" y="116"/>
    </contour>
  </outline>
</glyph>
<glyph name="uni0E87" format="1">
  <advance width="1010"/>
  <unicode hex="0E87"/>
  <outline>
    <contour>
      <point x="198" y="890" type="qcurve" smooth="yes"/>
      <point x="198" y="816"/>
      <point x="273" y="816" type="qcurve" smooth="yes"/>
      <point x="349" y="816"/>
      <point x="349" y="891" type="qcurve" smooth="yes"/>
      <point x="349" y="967"/>
      <point x="273" y="967" type="qcurve" smooth="yes"/>
      <point x="198" y="967"/>
    </contour>
    <contour>
      <point x="300" y="-400" type="qcurve" smooth="yes"/>
      <point x="191" y="-400"/>
      <point x="82" y="-380" type="qcurve"/>
      <point x="82" y="-236" type="line"/>
      <point x="191" y="-256"/>
      <point x="300" y="-256" type="qcurve" smooth="yes"/>
      <point x="413" y="-256"/>
      <point x="475" y="-205" type="qcurve" smooth="yes"/>
      <point x="554" y="-142"/>
      <point x="554" y="0" type="qcurve" smooth="yes"/>
      <point x="554" y="770" type="line" smooth="yes"/>
      <point x="554" y="987"/>
      <point x="413" y="1013" type="qcurve"/>
      <point x="464" y="967"/>
      <point x="464" y="890" type="qcurve" smooth="yes"/>
      <point x="464" y="700"/>
      <point x="272" y="700" type="qcurve" smooth="yes"/>
      <point x="82" y="700"/>
      <point x="82" y="890" type="qcurve" smooth="yes"/>
      <point x="82" y="1150"/>
      <point x="417" y="1150" type="qcurve" smooth="yes"/>
      <point x="842" y="1150"/>
      <point x="842" y="770" type="qcurve" smooth="yes"/>
      <point x="842" y="0" type="line" smooth="yes"/>
      <point x="842" y="-210"/>
      <point x="609" y="-400"/>
    </contour>
  </outline>
</glyph>
<glyph name="uni0E88" format="1">
  <advance width="1350"/>
  <unicode hex="0E88"/>
  <outline>
    <contour>
      <point x="614" y="521" type="line" smooth="yes"/>
      <point x="689" y="522"/>
      <point x="689" y="591" type="qcurve" smooth="yes"/>
      <point x="689" y="658"/>
      <point x="617" y="658" type="qcurve" smooth="yes"/>
      <point x="543" y="658"/>
      <point x="540" y="590" type="qcurve" smooth="yes"/>
      <point x="540" y="585" type="line" smooth="yes"/>
      <point x="540" y="521"/>
      <point x="612" y="521" type="qcurve" smooth="yes"/>
    </contour>
    <contour>
      <point x="829" y="0" type="qcurve" smooth="yes"/>
      <point x="653" y="0"/>
      <point x="611" y="105" type="qcurve" smooth="yes"/>
      <point x="591" y="151"/>
      <point x="591" y="198" type="qcurve" smooth="yes"/>
      <point x="591" y="253"/>
      <point x="618" y="308" type="qcurve" smooth="yes"/>
      <point x="669" y="411"/>
      <point x="669" y="416" type="qcurve"/>
      <point x="648" y="397"/>
      <point x="584" y="397" type="qcurve" smooth="yes"/>
      <point x="578" y="397" type="line"/>
      <point x="497" y="409"/>
      <point x="455" y="456" type="qcurve" smooth="yes"/>
      <point x="412" y="503"/>
      <point x="409" y="587" type="qcurve" smooth="yes"/>
      <point x="409" y="597" type="line" smooth="yes"/>
      <point x="409" y="673"/>
      <point x="452" y="720" type="qcurve" smooth="yes"/>
      <point x="498" y="768"/>
      <point x="591" y="784" type="qcurve"/>
      <point x="596" y="784" type="line" smooth="yes"/>
      <point x="694" y="784"/>
      <point x="750" y="745" type="qcurve" smooth="yes"/>
      <point x="801" y="709"/>
      <point x="814" y="640" type="qcurve" smooth="yes"/>
      <point x="824" y="589"/>
      <point x="824" y="542" type="qcurve" smooth="yes"/>
      <point x="824" y="466"/>
      <point x="797" y="403" type="qcurve" smooth="yes"/>
      <point x="753" y="300"/>
      <point x="753" y="211" type="qcurve" smooth="yes"/>
      <point x="753" y="144"/>
      <point x="829" y="144" type="qcurve" smooth="yes"/>
      <point x="894" y="144"/>
      <point x="894" y="205" type="qcurve" smooth="yes"/>
      <point x="894" y="802" type="line" smooth="yes"/>
      <point x="894" y="909"/>
      <point x="741" y="1006"/>
      <point x="637" y="1006" type="qcurve" smooth="yes"/>
      <point x="478" y="1006"/>
      <point x="370" y="909"/>
      <point x="370" y="803" type="qcurve"/>
      <point x="82" y="803" type="line"/>
      <point x="82" y="976"/>
      <point x="206" y="1063" type="qcurve" smooth="yes"/>
      <point x="331" y="1150"/>
      <point x="632" y="1150" type="qcurve" smooth="yes"/>
      <point x="1182" y="1150"/>
      <point x="1182" y="802" type="qcurve" smooth="yes"/>
      <point x="1182" y="201" type="line" smooth="yes"/>
      <point x="1182" y="108"/>
      <point x="1128" y="58" type="qcurve" smooth="yes"/>
      <point x="1065" y="0"/>
    </contour>
  </outline>
</glyph>
<glyph name="uni0E8D" format="1">
  <advance width="1365"/>
  <unicode hex="0E8D"/>
  <outline>
    <contour>
      <point x="542" y="768" type="qcurve" smooth="yes"/>
      <point x="481" y="768"/>
      <point x="435" y="798" type="qcurve"/>
      <point x="435" y="750" type="line" smooth="yes"/>
      <point x="435" y="624"/>
      <point x="597" y="624" type="qcurve" smooth="yes"/>
      <point x="627" y="624" type="line" smooth="yes"/>
      <point x="677" y="624"/>
      <point x="677" y="557" type="qcurve" smooth="yes"/>
      <point x="677" y="490"/>
      <point x="627" y="490" type="qcurve" smooth="yes"/>
      <point x="597" y="490" type="line" smooth="yes"/>
      <point x="435" y="490"/>
      <point x="435" y="320" type="qcurve" smooth="yes"/>
      <point x="435" y="229"/>
      <point x="538" y="144"/>
      <point x="687" y="144" type="qcurve" smooth="yes"/>
      <point x="798" y="144"/>
      <point x="909" y="253"/>
      <point x="909" y="380" type="qcurve" smooth="yes"/>
      <point x="909" y="1150" type="line"/>
      <point x="1197" y="1150" type="line"/>
      <point x="1197" y="380" type="line" smooth="yes"/>
      <point x="1197" y="187"/>
      <point x="943" y="0"/>
      <point x="687" y="0" type="qcurve" smooth="yes"/>
      <point x="392" y="0"/>
      <point x="267" y="83" type="qcurve" smooth="yes"/>
      <point x="147" y="163"/>
      <point x="147" y="320" type="qcurve" smooth="yes"/>
      <point x="147" y="494"/>
      <point x="310" y="560" type="qcurve"/>
      <point x="147" y="633"/>
      <point x="147" y="750" type="qcurve" smooth="yes"/>
      <point x="147" y="855" type="line" smooth="yes"/>
      <point x="147" y="1027"/>
      <point x="252" y="1098" type="qcurve" smooth="yes"/>
      <point x="327" y="1150"/>
      <point x="467" y="1150" type="qcurve" smooth="yes"/>
      <point x="602" y="1150"/>
      <point x="649" y="1103" type="qcurve" smooth="yes"/>
      <point x="697" y="1055"/>
      <point x="697" y="960" type="qcurve" smooth="yes"/>
      <point x="697" y="864"/>
      <point x="650" y="816" type="qcurve" smooth="yes"/>
      <point x="602" y="768"/>
    </contour>
    <contour>
      <point x="517" y="1034" type="qcurve" smooth="yes"/>
      <point x="486" y="1034"/>
      <point x="468" y="1022" type="qcurve" smooth="yes"/>
      <point x="441" y="1004"/>
      <point x="441" y="959" type="qcurve" smooth="yes"/>
      <point x="441" y="883"/>
      <point x="517" y="883" type="qcurve" smooth="yes"/>
      <point x="556" y="883"/>
      <point x="575" y="904" type="qcurve" smooth="yes"/>
      <point x="592" y="923"/>
      <point x="592" y="959" type="qcurve" smooth="yes"/>
      <point x="592" y="1000"/>
      <point x="570" y="1019" type="qcurve" smooth="yes"/>
      <point x="551" y="1034"/>
    </contour>
  </outline>
</glyph>
<glyph name="uni0E94" format="1">
  <advance width="1386"/>
  <unicode hex="0E94"/>
  <outline>
    <contour>
      <point x="671" y="334" type="qcurve" smooth="yes"/>
      <point x="718" y="286"/>
      <point x="718" y="190" type="qcurve" smooth="yes"/>
      <point x="718" y="95"/>
      <point x="670" y="47" type="qcurve" smooth="yes"/>
      <point x="623" y="0"/>
      <point x="488" y="0" type="qcurve" smooth="yes"/>
      <point x="348" y="0"/>
      <point x="273" y="52" type="qcurve" smooth="yes"/>
      <point x="168" y="123"/>
      <point x="168" y="295" type="qcurve" smooth="yes"/>
      <point x="168" y="770" type="line" smooth="yes"/>
      <point x="168" y="1150"/>
      <point x="693" y="1150" type="qcurve" smooth="yes"/>
      <point x="1218" y="1150"/>
      <point x="1218" y="770" type="qcurve" smooth="yes"/>
      <point x="1218" y="0" type="line"/>
      <point x="930" y="0" type="line"/>
      <point x="930" y="770" type="line" smooth="yes"/>
      <point x="930" y="1006"/>
      <point x="693" y="1006" type="qcurve" smooth="yes"/>
      <point x="456" y="1006"/>
      <point x="456" y="770" type="qcurve" smooth="yes"/>
      <point x="456" y="352" type="line"/>
      <point x="502" y="382"/>
      <point x="563" y="382" type="qcurve" smooth="yes"/>
      <point x="623" y="382"/>
    </contour>
    <contour>
      <point x="591" y="131" type="qcurve" smooth="yes"/>
      <point x="613" y="150"/>
      <point x="613" y="191" type="qcurve" smooth="yes"/>
      <point x="613" y="227"/>
      <point x="596" y="246" type="qcurve" smooth="yes"/>
      <point x="577" y="267"/>
      <point x="538" y="267" type="qcurve" smooth="yes"/>
      <point x="462" y="267"/>
      <point x="462" y="191" type="qcurve" smooth="yes"/>
      <point x="462" y="146"/>
      <point x="489" y="128" type="qcurve" smooth="yes"/>
      <point x="507" y="116"/>
      <point x="538" y="116" type="qcurve" smooth="yes"/>
      <point x="572" y="116"/>
    </contour>
  </outline>
</glyph>
<glyph name="uni0E95" format="1">
  <advance width="1386"/>
  <unicode hex="0E95"/>
  <outline>
    <contour>
      <point x="591" y="131" type="qcurve" smooth="yes"/>
      <point x="613" y="150"/>
      <point x="613" y="191" type="qcurve" smooth="yes"/>
      <point x="613" y="227"/>
      <point x="596" y="246" type="qcurve" smooth="yes"/>
      <point x="577" y="267"/>
      <point x="538" y="267" type="qcurve" smooth="yes"/>
      <point x="462" y="267"/>
      <point x="462" y="191" type="qcurve" smooth="yes"/>
      <point x="462" y="146"/>
      <point x="489" y="128" type="qcurve" smooth="yes"/>
      <point x="507" y="116"/>
      <point x="538" y="116" type="qcurve" smooth="yes"/>
      <point x="572" y="116"/>
    </contour>
    <contour>
      <point x="456" y="352" type="line"/>
      <point x="502" y="382"/>
      <point x="563" y="382" type="qcurve" smooth="yes"/>
      <point x="623" y="382"/>
      <point x="671" y="334" type="qcurve" smooth="yes"/>
      <point x="718" y="286"/>
      <point x="718" y="190" type="qcurve" smooth="yes"/>
      <point x="718" y="95"/>
      <point x="670" y="47" type="qcurve" smooth="yes"/>
      <point x="623" y="0"/>
      <point x="488" y="0" type="qcurve" smooth="yes"/>
      <point x="348" y="0"/>
      <point x="273" y="52" type="qcurve" smooth="yes"/>
      <point x="168" y="123"/>
      <point x="168" y="295" type="qcurve" smooth="yes"/>
      <point x="168" y="770" type="line" smooth="yes"/>
      <point x="168" y="985"/>
      <point x="352" y="1150"/>
      <point x="475" y="1150" type="qcurve" smooth="yes"/>
      <point x="602" y="1150"/>
      <point x="693" y="1007" type="qcurve"/>
      <point x="784" y="1150"/>
      <point x="911" y="1150" type="qcurve" smooth="yes"/>
      <point x="1035" y="1150"/>
      <point x="1218" y="982"/>
      <point x="1218" y="770" type="qcurve" smooth="yes"/>
      <point x="1218" y="0" type="line"/>
      <point x="930" y="0" type="line"/>
      <point x="930" y="770" type="line" smooth="yes"/>
      <point x="930" y="1006"/>
      <point x="887" y="1006" type="qcurve" smooth="yes"/>
      <point x="844" y="1006"/>
      <point x="693" y="823" type="qcurve"/>
      <point x="542" y="1006"/>
      <point x="499" y="1006" type="qcurve" smooth="yes"/>
      <point x="456" y="1006"/>
      <point x="456" y="770" type="qcurve" smooth="yes"/>
    </contour>
  </outline>
</glyph>
<glyph name="uni0E96" format="1">
  <advance width="1496"/>
  <unicode hex="0E96"/>
  <outline>
    <contour>
      <point x="695" y="267" type="qcurve" smooth="yes"/>
      <point x="619" y="267"/>
      <point x="619" y="191" type="qcurve" smooth="yes"/>
      <point x="619" y="116"/>
      <point x="695" y="116" type="qcurve" smooth="yes"/>
      <point x="770" y="116"/>
      <point x="770" y="191" type="qcurve" smooth="yes"/>
      <point x="770" y="267"/>
    </contour>
    <contour>
      <point x="340" y="895" type="qcurve"/>
      <point x="340" y="918" type="line" smooth="yes"/>
      <point x="340" y="1036"/>
      <point x="268" y="1036" type="qcurve" smooth="yes"/>
      <point x="198" y="1036"/>
      <point x="198" y="965" type="qcurve" smooth="yes"/>
      <point x="198" y="894"/>
      <point x="311" y="894" type="qcurve" smooth="yes"/>
      <point x="326" y="894"/>
    </contour>
    <contour>
      <point x="1040" y="830" type="line" smooth="yes"/>
      <point x="1040" y="919"/>
      <point x="938" y="1006"/>
      <point x="853" y="1006" type="qcurve" smooth="yes"/>
      <point x="758" y="1006"/>
      <point x="661" y="883" type="qcurve"/>
      <point x="628" y="835" type="line"/>
      <point x="628" y="375" type="line"/>
      <point x="658" y="382"/>
      <point x="695" y="382" type="qcurve" smooth="yes"/>
      <point x="796" y="382"/>
      <point x="844" y="328" type="qcurve" smooth="yes"/>
      <point x="886" y="281"/>
      <point x="886" y="191" type="qcurve" smooth="yes"/>
      <point x="886" y="102"/>
      <point x="844" y="54" type="qcurve" smooth="yes"/>
      <point x="797" y="0"/>
      <point x="695" y="0" type="qcurve" smooth="yes"/>
      <point x="474" y="0"/>
      <point x="411" y="58" type="qcurve" smooth="yes"/>
      <point x="340" y="123"/>
      <point x="340" y="260" type="qcurve" smooth="yes"/>
      <point x="340" y="780" type="line"/>
      <point x="313" y="780" type="line" smooth="yes"/>
      <point x="189" y="780"/>
      <point x="132" y="833" type="qcurve" smooth="yes"/>
      <point x="82" y="879"/>
      <point x="82" y="965" type="qcurve" smooth="yes"/>
      <point x="82" y="1059"/>
      <point x="131" y="1105" type="qcurve" smooth="yes"/>
      <point x="179" y="1150"/>
      <point x="273" y="1150" type="qcurve" smooth="yes"/>
      <point x="575" y="1150"/>
      <point x="617" y="1009" type="qcurve"/>
      <point x="728" y="1150"/>
      <point x="949" y="1150" type="qcurve" smooth="yes"/>
      <point x="1133" y="1150"/>
      <point x="1328" y="1004"/>
      <point x="1328" y="830" type="qcurve" smooth="yes"/>
      <point x="1328" y="-170" type="line" smooth="yes"/>
      <point x="1328" y="-250"/>
      <point x="1381" y="-310" type="qcurve"/>
      <point x="1147" y="-400" type="line"/>
      <point x="1040" y="-300"/>
      <point x="1040" y="-190" type="qcurve" smooth="yes"/>
    </contour>
  </outline>
</glyph>
<glyph name="uni0E97" format="1">
  <advance width="1753"/>
  <unicode hex="0E97"/>
  <outline>
    <contour>
      <point x="317" y="905" type="qcurve" smooth="yes"/>
      <point x="381" y="905"/>
      <point x="381" y="968" type="qcurve" smooth="yes"/>
      <point x="381" y="1032"/>
      <point x="317" y="1032" type="qcurve" smooth="yes"/>
      <point x="253" y="1032"/>
      <point x="253" y="968" type="qcurve" smooth="yes"/>
      <point x="253" y="905"/>
    </contour>
    <contour>
      <point x="1171" y="1150" type="qcurve" smooth="yes"/>
      <point x="1585" y="1150"/>
      <point x="1585" y="785" type="qcurve" smooth="yes"/>
      <point x="1585" y="0" type="line"/>
      <point x="1297" y="0" type="line"/>
      <point x="1297" y="785" type="line" smooth="yes"/>
      <point x="1297" y="1006"/>
      <point x="1171" y="1006" type="qcurve" smooth="yes"/>
      <point x="1045" y="1006"/>
      <point x="1045" y="785" type="qcurve" smooth="yes"/>
      <point x="1045" y="344" type="line" smooth="yes"/>
      <point x="1045" y="0"/>
      <point x="596" y="0" type="qcurve" smooth="yes"/>
      <point x="147" y="0"/>
      <point x="147" y="344" type="qcurve" smooth="yes"/>
      <point x="147" y="542"/>
      <point x="263" y="697" type="qcurve" smooth="yes"/>
      <point x="303" y="749"/>
      <point x="330" y="796" type="qcurve"/>
      <point x="239" y="797"/>
      <point x="147" y="883"/>
      <point x="147" y="968" type="qcurve" smooth="yes"/>
      <point x="147" y="1059"/>
      <point x="240" y="1150"/>
      <point x="332" y="1150" type="qcurve" smooth="yes"/>
      <point x="486" y="1150"/>
      <point x="589" y="1059"/>
      <point x="589" y="968" type="qcurve" smooth="yes"/>
      <point x="589" y="842"/>
      <point x="435" y="498"/>
      <point x="435" y="344" type="qcurve" smooth="yes"/>
      <point x="435" y="144"/>
      <point x="596" y="144" type="qcurve" smooth="yes"/>
      <point x="757" y="144"/>
      <point x="757" y="344" type="qcurve" smooth="yes"/>
      <point x="757" y="785" type="line" smooth="yes"/>
      <point x="757" y="1150"/>
    </contour>
  </outline>
</glyph>
<glyph name="uni0E99" format="1">
  <advance width="1446"/>
  <unicode hex="0E99"/>
  <outline>
    <contour>
      <point x="273" y="883" type="qcurve" smooth="yes"/>
      <point x="349" y="883"/>
      <point x="349" y="959" type="qcurve" smooth="yes"/>
      <point x="349" y="1034"/>
      <point x="273" y="1034" type="qcurve" smooth="yes"/>
      <point x="198" y="1034"/>
      <point x="198" y="959" type="qcurve" smooth="yes"/>
      <point x="198" y="883"/>
    </contour>
    <contour>
      <point x="340" y="775" type="line"/>
      <point x="310" y="768"/>
      <point x="273" y="768" type="qcurve" smooth="yes"/>
      <point x="172" y="768"/>
      <point x="124" y="822" type="qcurve" smooth="yes"/>
      <point x="82" y="869"/>
      <point x="82" y="959" type="qcurve" smooth="yes"/>
      <point x="82" y="1048"/>
      <point x="124" y="1096" type="qcurve" smooth="yes"/>
      <point x="171" y="1150"/>
      <point x="273" y="1150" type="qcurve" smooth="yes"/>
      <point x="494" y="1150"/>
      <point x="557" y="1092" type="qcurve" smooth="yes"/>
      <point x="628" y="1027"/>
      <point x="628" y="890" type="qcurve" smooth="yes"/>
      <point x="628" y="350" type="line" smooth="yes"/>
      <point x="628" y="297"/>
      <point x="619" y="252" type="qcurve"/>
      <point x="677" y="247"/>
      <point x="734" y="190" type="qcurve"/>
      <point x="791" y="144"/>
      <point x="879" y="144" type="qcurve" smooth="yes"/>
      <point x="990" y="144"/>
      <point x="990" y="320" type="qcurve" smooth="yes"/>
      <point x="990" y="1150" type="line"/>
      <point x="1278" y="1150" type="line"/>
      <point x="1278" y="320" type="line" smooth="yes"/>
      <point x="1278" y="0"/>
      <point x="899" y="0" type="qcurve" smooth="yes"/>
      <point x="748" y="0"/>
      <point x="650" y="106" type="qcurve" smooth="yes"/>
      <point x="617" y="141"/>
      <point x="579" y="144" type="qcurve"/>
      <point x="491" y="0"/>
      <point x="147" y="0" type="qcurve"/>
      <point x="147" y="144" type="line"/>
      <point x="244" y="144"/>
      <point x="340" y="247"/>
      <point x="340" y="350" type="qcurve" smooth="yes"/>
    </contour>
  </outline>
</glyph>
<glyph name="uni0E9B" format="1">
  <advance width="1315"/>
  <unicode hex="0E9B"/>
  <outline>
    <contour>
      <point x="310" y="903" type="qcurve" smooth="yes"/>
      <point x="371" y="903"/>
      <point x="371" y="967" type="qcurve" smooth="yes"/>
      <point x="371" y="1030"/>
      <point x="310" y="1030" type="qcurve" smooth="yes"/>
      <point x="249" y="1030"/>
      <point x="249" y="967" type="qcurve" smooth="yes"/>
      <point x="249" y="903"/>
    </contour>
    <contour>
      <point x="859" y="1100" type="line" smooth="yes"/>
      <point x="859" y="1275"/>
      <point x="986" y="1465" type="qcurve"/>
      <point x="1190" y="1395" type="line"/>
      <point x="1147" y="1295"/>
      <point x="1147" y="1100" type="qcurve" smooth="yes"/>
      <point x="1147" y="380" type="line" smooth="yes"/>
      <point x="1147" y="0"/>
      <point x="647" y="0" type="qcurve" smooth="yes"/>
      <point x="147" y="0"/>
      <point x="147" y="363" type="qcurve" smooth="yes"/>
      <point x="147" y="541"/>
      <point x="259" y="696" type="qcurve" smooth="yes"/>
      <point x="297" y="748"/>
      <point x="322" y="795" type="qcurve"/>
      <point x="230" y="796"/>
      <point x="186" y="844" type="qcurve" smooth="yes"/>
      <point x="147" y="887"/>
      <point x="147" y="967" type="qcurve" smooth="yes"/>
      <point x="147" y="1056"/>
      <point x="189" y="1101" type="qcurve" smooth="yes"/>
      <point x="233" y="1150"/>
      <point x="325" y="1150" type="qcurve" smooth="yes"/>
      <point x="476" y="1150"/>
      <point x="526" y="1102" type="qcurve" smooth="yes"/>
      <point x="573" y="1056"/>
      <point x="573" y="967" type="qcurve" smooth="yes"/>
      <point x="573" y="820"/>
      <point x="435" y="497"/>
      <point x="435" y="363" type="qcurve" smooth="yes"/>
      <point x="435" y="144"/>
      <point x="647" y="144" type="qcurve" smooth="yes"/>
      <point x="859" y="144"/>
      <point x="859" y="380" type="qcurve" smooth="yes"/>
    </contour>
  </outline>
</glyph>
<glyph name="uni0E9D" format="1">
  <advance width="1436"/>
  <unicode hex="0E9D"/>
  <outline>
    <contour>
      <point x="544" y="980" type="qcurve" smooth="yes"/>
      <point x="544" y="1044"/>
      <point x="480" y="1044" type="qcurve" smooth="yes"/>
      <point x="415" y="1044"/>
      <point x="415" y="980" type="qcurve" smooth="yes"/>
      <point x="415" y="917"/>
      <point x="480" y="917" type="qcurve" smooth="yes"/>
      <point x="544" y="917"/>
    </contour>
    <contour>
      <point x="1268" y="380" type="line" smooth="yes"/>
      <point x="1268" y="165"/>
      <point x="1176" y="71" type="qcurve" smooth="yes"/>
      <point x="1106" y="0"/>
      <point x="952" y="0" type="qcurve" smooth="yes"/>
      <point x="789" y="0"/>
      <point x="718" y="117" type="qcurve"/>
      <point x="647" y="0"/>
      <point x="484" y="0" type="qcurve" smooth="yes"/>
      <point x="331" y="0"/>
      <point x="261" y="70" type="qcurve" smooth="yes"/>
      <point x="168" y="163"/>
      <point x="168" y="380" type="qcurve" smooth="yes"/>
      <point x="168" y="887" type="line" smooth="yes"/>
      <point x="168" y="1040"/>
      <point x="257" y="1104" type="qcurve" smooth="yes"/>
      <point x="320" y="1150"/>
      <point x="440" y="1150" type="qcurve" smooth="yes"/>
      <point x="550" y="1150"/>
      <point x="640" y="1055"/>
      <point x="640" y="981" type="qcurve" smooth="yes"/>
      <point x="640" y="895"/>
      <point x="580" y="810"/>
      <point x="530" y="810" type="qcurve" smooth="yes"/>
      <point x="487" y="810"/>
      <point x="456" y="821" type="qcurve"/>
      <point x="456" y="380" type="line" smooth="yes"/>
      <point x="456" y="227"/>
      <point x="497" y="173" type="qcurve" smooth="yes"/>
      <point x="520" y="144"/>
      <point x="554" y="144" type="qcurve" smooth="yes"/>
      <point x="646" y="144"/>
      <point x="646" y="350" type="qcurve" smooth="yes"/>
      <point x="646" y="420" type="line"/>
      <point x="790" y="420" type="line"/>
      <point x="790" y="350" type="line" smooth="yes"/>
      <point x="790" y="144"/>
      <point x="882" y="144" type="qcurve" smooth="yes"/>
      <point x="918" y="144"/>
      <point x="941" y="176" type="qcurve" smooth="yes"/>
      <point x="980" y="232"/>
      <point x="980" y="380" type="qcurve" smooth="yes"/>
      <point x="980" y="1100" type="line" smooth="yes"/>
      <point x="980" y="1275"/>
      <point x="1107" y="1465" type="qcurve"/>
      <point x="1311" y="1395" type="line"/>
      <point x="1268" y="1295"/>
      <point x="1268" y="1100" type="qcurve" smooth="yes"/>
    </contour>
  </outline>
</glyph>
<glyph name="uni0EA1" format="1">
  <advance width="1446"/>
  <unicode hex="0EA1"/>
  <outline>
    <contour>
      <point x="243" y="158" type="qcurve" smooth="yes"/>
      <point x="305" y="158"/>
      <point x="305" y="220" type="qcurve" smooth="yes"/>
      <point x="305" y="281"/>
      <point x="243" y="281" type="qcurve" smooth="yes"/>
      <point x="182" y="281"/>
      <point x="182" y="220" type="qcurve" smooth="yes"/>
      <point x="182" y="158"/>
    </contour>
    <contour>
      <point x="628" y="350" type="line" smooth="yes"/>
      <point x="628" y="297"/>
      <point x="619" y="252" type="qcurve"/>
      <point x="677" y="247"/>
      <point x="734" y="190" type="qcurve"/>
      <point x="791" y="144"/>
      <point x="879" y="144" type="qcurve" smooth="yes"/>
      <point x="990" y="144"/>
      <point x="990" y="320" type="qcurve" smooth="yes"/>
      <point x="990" y="1150" type="line"/>
      <point x="1278" y="1150" type="line"/>
      <point x="1278" y="320" type="line" smooth="yes"/>
      <point x="1278" y="0"/>
      <point x="899" y="0" type="qcurve" smooth="yes"/>
      <point x="748" y="0"/>
      <point x="650" y="106" type="qcurve" smooth="yes"/>
      <point x="617" y="141"/>
      <point x="579" y="144" type="qcurve"/>
      <point x="491" y="0"/>
      <point x="337" y="0" type="qcurve" smooth="yes"/>
      <point x="82" y="0"/>
      <point x="82" y="220" type="qcurve" smooth="yes"/>
      <point x="82" y="382"/>
      <point x="243" y="382" type="qcurve" smooth="yes"/>
      <point x="302" y="382"/>
      <point x="340" y="360" type="qcurve"/>
      <point x="340" y="1150" type="line"/>
      <point x="628" y="1150" type="line"/>
    </contour>
  </outline>
</glyph>
<glyph name="uni0EA3" format="1">
  <advance width="1294"/>
  <unicode hex="0EA3"/>
  <outline>
    <contour>
      <point x="394" y="378"/>
      <point x="394" y="354" type="qcurve" smooth="yes"/>
      <point x="394" y="328"/>
      <point x="433" y="292"/>
      <point x="460" y="292" type="qcurve" smooth="yes"/>
      <point x="485" y="292"/>
      <point x="524" y="328"/>
      <point x="524" y="354" type="qcurve" smooth="yes"/>
      <point x="524" y="378"/>
      <point x="485" y="412"/>
      <point x="460" y="412" type="qcurve" smooth="yes"/>
      <point x="433" y="412"/>
    </contour>
    <contour>
      <point x="147" y="145"/>
      <point x="147" y="273" type="qcurve" smooth="yes"/>
      <point x="147" y="387"/>
      <point x="303" y="503"/>
      <point x="400" y="503" type="qcurve" smooth="yes"/>
      <point x="531" y="503"/>
      <point x="621" y="420"/>
      <point x="621" y="354" type="qcurve" smooth="yes"/>
      <point x="621" y="279"/>
      <point x="540" y="203"/>
      <point x="460" y="203" type="qcurve"/>
      <point x="518" y="144"/>
      <point x="647" y="144" type="qcurve" smooth="yes"/>
      <point x="743" y="144"/>
      <point x="859" y="226"/>
      <point x="859" y="339" type="qcurve" smooth="yes"/>
      <point x="859" y="424"/>
      <point x="706" y="581"/>
      <point x="147" y="664"/>
      <point x="147" y="880" type="qcurve" smooth="yes"/>
      <point x="147" y="1150"/>
      <point x="620" y="1150" type="qcurve" smooth="yes"/>
      <point x="923" y="1150"/>
      <point x="1147" y="948" type="qcurve"/>
      <point x="1002" y="779" type="line"/>
      <point x="777" y="1006"/>
      <point x="626" y="1006" type="qcurve" smooth="yes"/>
      <point x="435" y="1006"/>
      <point x="435" y="880" type="qcurve" smooth="yes"/>
      <point x="435" y="779"/>
      <point x="906" y="679"/>
      <point x="1147" y="491"/>
      <point x="1147" y="339" type="qcurve" smooth="yes"/>
      <point x="1147" y="154"/>
      <point x="897" y="0"/>
      <point x="647" y="0" type="qcurve" smooth="yes"/>
      <point x="384" y="0"/>
    </contour>
  </outline>
</glyph>
<glyph name="uni0EA5" format="1">
  <advance width="1365"/>
  <unicode hex="0EA5"/>
  <outline>
    <contour>
      <point x="415" y="84" type="qcurve" smooth="yes"/>
      <point x="485" y="84"/>
      <point x="485" y="154" type="qcurve" smooth="yes"/>
      <point x="485" y="224"/>
      <point x="415" y="224" type="qcurve" smooth="yes"/>
      <point x="345" y="224"/>
      <point x="345" y="154" type="qcurve" smooth="yes"/>
      <point x="345" y="84"/>
    </contour>
    <contour>
      <point x="397" y="0" type="qcurve" smooth="yes"/>
      <point x="273" y="3"/>
      <point x="211" y="67" type="qcurve" smooth="yes"/>
      <point x="147" y="132"/>
      <point x="147" y="261" type="qcurve" smooth="yes"/>
      <point x="147" y="431"/>
      <point x="225" y="502" type="qcurve" smooth="yes"/>
      <point x="304" y="574"/>
      <point x="495" y="574" type="qcurve" smooth="yes"/>
      <point x="609" y="574"/>
      <point x="759" y="387"/>
      <point x="847" y="144"/>
      <point x="878" y="144" type="qcurve" smooth="yes"/>
      <point x="909" y="144"/>
      <point x="909" y="220" type="qcurve" smooth="yes"/>
      <point x="909" y="802" type="line" smooth="yes"/>
      <point x="909" y="1006"/>
      <point x="652" y="1006" type="qcurve" smooth="yes"/>
      <point x="435" y="1006"/>
      <point x="435" y="803" type="qcurve"/>
      <point x="147" y="803" type="line"/>
      <point x="147" y="976"/>
      <point x="271" y="1063" type="qcurve" smooth="yes"/>
      <point x="396" y="1150"/>
      <point x="647" y="1150" type="qcurve" smooth="yes"/>
      <point x="948" y="1150"/>
      <point x="1073" y="1062" type="qcurve" smooth="yes"/>
      <point x="1197" y="975"/>
      <point x="1197" y="802" type="qcurve" smooth="yes"/>
      <point x="1197" y="220" type="line" smooth="yes"/>
      <point x="1197" y="106"/>
      <point x="1131" y="51" type="qcurve" smooth="yes"/>
      <point x="1070" y="0"/>
      <point x="957" y="0" type="qcurve" smooth="yes"/>
      <point x="844" y="0"/>
      <point x="721" y="79"/>
      <point x="661" y="273"/>
      <point x="567" y="380"/>
      <point x="495" y="380" type="qcurve" smooth="yes"/>
      <point x="416" y="380"/>
      <point x="407" y="323" type="qcurve"/>
      <point x="502" y="323"/>
      <point x="548" y="285" type="qcurve" smooth="yes"/>
      <point x="591" y="250"/>
      <point x="591" y="182" type="qcurve" smooth="yes"/>
      <point x="593" y="165"/>
      <point x="593" y="150" type="qcurve" smooth="yes"/>
      <point x="593" y="83"/>
      <point x="553" y="46" type="qcurve" smooth="yes"/>
      <point x="504" y="1"/>
    </contour>
  </outline>
</glyph>
<glyph name="uni0EA7" format="1">
  <advance width="1365"/>
  <unicode hex="0EA7"/>
  <outline>
    <contour>
      <point x="363" y="400"/>
      <point x="363" y="380" type="qcurve" smooth="yes"/>
      <point x="363" y="360"/>
      <point x="382" y="324"/>
      <point x="418" y="305"/>
      <point x="438" y="305" type="qcurve" smooth="yes"/>
      <point x="458" y="305"/>
      <point x="494" y="324"/>
      <point x="514" y="360"/>
      <point x="514" y="380" type="qcurve" smooth="yes"/>
      <point x="514" y="400"/>
      <point x="493" y="436"/>
      <point x="457" y="456"/>
      <point x="438" y="456" type="qcurve" smooth="yes"/>
      <point x="419" y="456"/>
      <point x="383" y="436"/>
    </contour>
    <contour>
      <point x="147" y="780" type="line"/>
      <point x="147" y="1150"/>
      <point x="672" y="1150" type="qcurve" smooth="yes"/>
      <point x="1197" y="1150"/>
      <point x="1197" y="770" type="qcurve" smooth="yes"/>
      <point x="1197" y="380" type="line" smooth="yes"/>
      <point x="1197" y="190"/>
      <point x="947" y="0"/>
      <point x="672" y="0" type="qcurve" smooth="yes"/>
      <point x="397" y="0"/>
      <point x="147" y="190"/>
      <point x="147" y="380" type="qcurve" smooth="yes"/>
      <point x="147" y="430"/>
      <point x="198" y="522"/>
      <point x="300" y="571"/>
      <point x="438" y="571" type="qcurve" smooth="yes"/>
      <point x="486" y="571"/>
      <point x="577" y="522"/>
      <point x="629" y="430"/>
      <point x="629" y="380" type="qcurve" smooth="yes"/>
      <point x="629" y="330"/>
      <point x="579" y="239"/>
      <point x="534" y="214" type="qcurve" smooth="yes"/>
      <point x="508" y="200"/>
      <point x="480" y="194" type="qcurve"/>
      <point x="582" y="144"/>
      <point x="672" y="144" type="qcurve" smooth="yes"/>
      <point x="909" y="144"/>
      <point x="909" y="380" type="qcurve" smooth="yes"/>
      <point x="909" y="770" type="line" smooth="yes"/>
      <point x="909" y="1006"/>
      <point x="672" y="1006" type="qcurve" smooth="yes"/>
      <point x="435" y="1006"/>
      <point x="435" y="780" type="qcurve"/>
    </contour>
  </outline>
</glyph>
<glyph name="uni0EAA" format="1">
  <advance width="1365"/>
  <unicode hex="0EAA"/>
  <outline>
    <contour>
      <point x="872" y="908" type="qcurve"/>
      <point x="839" y="949"/>
      <point x="746" y="1006"/>
      <point x="600" y="1006" type="qcurve" smooth="yes"/>
      <point x="513" y="1006"/>
      <point x="435" y="929"/>
      <point x="435" y="886" type="qcurve" smooth="yes"/>
      <point x="435" y="843"/>
      <point x="513" y="796"/>
      <point x="600" y="796" type="qcurve" smooth="yes"/>
      <point x="746" y="796"/>
      <point x="836" y="852"/>
    </contour>
    <contour>
      <point x="415" y="84" type="qcurve" smooth="yes"/>
      <point x="485" y="84"/>
      <point x="485" y="154" type="qcurve" smooth="yes"/>
      <point x="485" y="224"/>
      <point x="415" y="224" type="qcurve" smooth="yes"/>
      <point x="345" y="224"/>
      <point x="345" y="154" type="qcurve" smooth="yes"/>
      <point x="345" y="84"/>
    </contour>
    <contour>
      <point x="981" y="1060" type="qcurve"/>
      <point x="996" y="1121"/>
      <point x="1000" y="1200" type="qcurve"/>
      <point x="1197" y="1170" type="line"/>
      <point x="1183" y="1045"/>
      <point x="1150" y="953" type="qcurve"/>
      <point x="1197" y="886"/>
      <point x="1197" y="802" type="qcurve" smooth="yes"/>
      <point x="1197" y="220" type="line" smooth="yes"/>
      <point x="1197" y="106"/>
      <point x="1131" y="51" type="qcurve" smooth="yes"/>
      <point x="1070" y="0"/>
      <point x="844" y="0"/>
      <point x="721" y="79"/>
      <point x="661" y="273"/>
      <point x="567" y="370"/>
      <point x="465" y="370" type="qcurve" smooth="yes"/>
      <point x="416" y="370"/>
      <point x="407" y="323" type="qcurve"/>
      <point x="502" y="323"/>
      <point x="548" y="285" type="qcurve" smooth="yes"/>
      <point x="591" y="250"/>
      <point x="591" y="182" type="qcurve" smooth="yes"/>
      <point x="593" y="165"/>
      <point x="593" y="150" type="qcurve" smooth="yes"/>
      <point x="593" y="83"/>
      <point x="553" y="46" type="qcurve" smooth="yes"/>
      <point x="504" y="1"/>
      <point x="397" y="0" type="qcurve" smooth="yes"/>
      <point x="273" y="3"/>
      <point x="211" y="67" type="qcurve" smooth="yes"/>
      <point x="147" y="132"/>
      <point x="147" y="261" type="qcurve" smooth="yes"/>
      <point x="147" y="371"/>
      <point x="304" y="514"/>
      <point x="465" y="514" type="qcurve" smooth="yes"/>
      <point x="609" y="514"/>
      <point x="759" y="387"/>
      <point x="847" y="144"/>
      <point x="909" y="144"/>
      <point x="909" y="220" type="qcurve" smooth="yes"/>
      <point x="909" y="755" type="line"/>
      <point x="813" y="652"/>
      <point x="600" y="652" type="qcurve" smooth="yes"/>
      <point x="366" y="652"/>
      <point x="147" y="756"/>
      <point x="147" y="886" type="qcurve" smooth="yes"/>
      <point x="147" y="1016"/>
      <point x="366" y="1150"/>
      <point x="600" y="1150" type="qcurve" smooth="yes"/>
      <point x="829" y="1150"/>
    </contour>
  </outline>
</glyph>
<glyph name="uni0EAB" format="1">
  <advance width="1905"/>
  <unicode hex="0EAB"/>
  <outline>
    <contour>
      <point x="310" y="903" type="qcurve" smooth="yes"/>
      <point x="371" y="903"/>
      <point x="371" y="967" type="qcurve" smooth="yes"/>
      <point x="371" y="1030"/>
      <point x="310" y="1030" type="qcurve" smooth="yes"/>
      <point x="249" y="1030"/>
      <point x="249" y="967" type="qcurve" smooth="yes"/>
      <point x="249" y="903"/>
    </contour>
    <contour>
      <point x="859" y="895" type="qcurve"/>
      <point x="859" y="918" type="line" smooth="yes"/>
      <point x="859" y="1036"/>
      <point x="817" y="1036" type="qcurve" smooth="yes"/>
      <point x="777" y="1036"/>
      <point x="777" y="965" type="qcurve" smooth="yes"/>
      <point x="777" y="894"/>
      <point x="830" y="894" type="qcurve" smooth="yes"/>
      <point x="845" y="894"/>
    </contour>
    <contour>
      <point x="1147" y="380" type="line" smooth="yes"/>
      <point x="1147" y="0"/>
      <point x="647" y="0" type="qcurve" smooth="yes"/>
      <point x="147" y="0"/>
      <point x="147" y="363" type="qcurve" smooth="yes"/>
      <point x="147" y="541"/>
      <point x="259" y="696" type="qcurve" smooth="yes"/>
      <point x="297" y="748"/>
      <point x="322" y="795" type="qcurve"/>
      <point x="230" y="796"/>
      <point x="186" y="844" type="qcurve" smooth="yes"/>
      <point x="147" y="887"/>
      <point x="147" y="967" type="qcurve" smooth="yes"/>
      <point x="147" y="1056"/>
      <point x="189" y="1101" type="qcurve" smooth="yes"/>
      <point x="233" y="1150"/>
      <point x="325" y="1150" type="qcurve" smooth="yes"/>
      <point x="476" y="1150"/>
      <point x="526" y="1102" type="qcurve" smooth="yes"/>
      <point x="573" y="1056"/>
      <point x="573" y="967" type="qcurve" smooth="yes"/>
      <point x="573" y="820"/>
      <point x="435" y="497"/>
      <point x="435" y="363" type="qcurve" smooth="yes"/>
      <point x="435" y="144"/>
      <point x="647" y="144" type="qcurve" smooth="yes"/>
      <point x="859" y="144"/>
      <point x="859" y="380" type="qcurve" smooth="yes"/>
      <point x="859" y="780" type="line"/>
      <point x="832" y="780" type="line" smooth="yes"/>
      <point x="768" y="780"/>
      <point x="671" y="879"/>
      <point x="671" y="965" type="qcurve" smooth="yes"/>
      <point x="671" y="1059"/>
      <point x="798" y="1150"/>
      <point x="902" y="1150" type="qcurve" smooth="yes"/>
      <point x="1094" y="1150"/>
      <point x="1136" y="1009" type="qcurve"/>
      <point x="1247" y="1150"/>
      <point x="1378" y="1150" type="qcurve" smooth="yes"/>
      <point x="1542" y="1150"/>
      <point x="1631" y="1083" type="qcurve" smooth="yes"/>
      <point x="1737" y="1004"/>
      <point x="1737" y="830" type="qcurve" smooth="yes"/>
      <point x="1737" y="0" type="line"/>
      <point x="1449" y="0" type="line"/>
      <point x="1449" y="830" type="line" smooth="yes"/>
      <point x="1449" y="939"/>
      <point x="1367" y="1006"/>
      <point x="1312" y="1006" type="qcurve" smooth="yes"/>
      <point x="1277" y="1006"/>
      <point x="1180" y="883" type="qcurve"/>
      <point x="1147" y="835" type="line"/>
    </contour>
  </outline>
</glyph>
<glyph name="uni0EAD" format="1">
  <advance width="1365"/>
  <unicode hex="0EAD"/>
  <outline>
    <contour>
      <point x="901" y="839" type="qcurve"/>
      <point x="884" y="920"/>
      <point x="793" y="1006"/>
      <point x="647" y="1006" type="qcurve" smooth="yes"/>
      <point x="561" y="1006"/>
      <point x="435" y="903"/>
      <point x="435" y="840" type="qcurve" smooth="yes"/>
      <point x="435" y="777"/>
      <point x="541" y="674"/>
      <point x="647" y="674" type="qcurve" smooth="yes"/>
      <point x="803" y="674"/>
      <point x="884" y="759"/>
    </contour>
    <contour>
      <point x="305" y="326" type="qcurve" smooth="yes"/>
      <point x="305" y="315"/>
      <point x="307" y="304" type="qcurve" smooth="yes"/>
      <point x="309" y="297"/>
      <point x="313" y="290" type="qcurve" smooth="yes"/>
      <point x="321" y="275"/>
      <point x="351" y="259"/>
      <point x="368" y="259" type="qcurve" smooth="yes"/>
      <point x="385" y="259"/>
      <point x="416" y="275"/>
      <point x="433" y="305"/>
      <point x="433" y="322" type="qcurve" smooth="yes"/>
      <point x="433" y="339"/>
      <point x="415" y="370"/>
      <point x="384" y="387"/>
      <point x="368" y="387" type="qcurve" smooth="yes"/>
      <point x="352" y="387"/>
      <point x="322" y="370"/>
      <point x="314" y="355" type="qcurve" smooth="yes"/>
      <point x="306" y="341"/>
    </contour>
    <contour>
      <point x="489" y="176" type="qcurve"/>
      <point x="584" y="144"/>
      <point x="647" y="144" type="qcurve" smooth="yes"/>
      <point x="909" y="144"/>
      <point x="909" y="380" type="qcurve" smooth="yes"/>
      <point x="909" y="587" type="line"/>
      <point x="790" y="530"/>
      <point x="647" y="530" type="qcurve" smooth="yes"/>
      <point x="447" y="530"/>
      <point x="147" y="690"/>
      <point x="147" y="840" type="qcurve" smooth="yes"/>
      <point x="147" y="1010"/>
      <point x="427" y="1150"/>
      <point x="647" y="1150" type="qcurve"/>
      <point x="957" y="1140"/>
      <point x="1197" y="960"/>
      <point x="1197" y="770" type="qcurve" smooth="yes"/>
      <point x="1197" y="380" type="line" smooth="yes"/>
      <point x="1197" y="0"/>
      <point x="647" y="0" type="qcurve" smooth="yes"/>
      <point x="147" y="0"/>
      <point x="147" y="332" type="qcurve"/>
      <point x="148" y="332" type="line"/>
      <point x="151" y="369"/>
      <point x="171" y="402" type="qcurve" smooth="yes"/>
      <point x="193" y="440"/>
      <point x="284" y="483"/>
      <point x="347" y="483" type="qcurve" smooth="yes"/>
      <point x="410" y="483"/>
      <point x="492" y="440"/>
      <point x="540" y="364"/>
      <point x="540" y="321" type="qcurve" smooth="yes"/>
      <point x="540" y="203"/>
    </contour>
  </outline>
</glyph>
<glyph name="uni0EAE" format="1">
  <advance width="1365"/>
  <unicode hex="0EAE"/>
  <outline>
    <contour>
      <point x="535" y="508"/>
      <point x="577" y="432"/>
      <point x="577" y="390" type="qcurve" smooth="yes"/>
      <point x="577" y="348"/>
      <point x="534" y="271"/>
      <point x="457" y="230"/>
      <point x="417" y="230" type="qcurve"/>
      <point x="461" y="144"/>
      <point x="647" y="144" type="qcurve" smooth="yes"/>
      <point x="753" y="144"/>
      <point x="909" y="236"/>
      <point x="909" y="329" type="qcurve" smooth="yes"/>
      <point x="909" y="428"/>
      <point x="752" y="608"/>
      <point x="147" y="735"/>
      <point x="147" y="920" type="qcurve" smooth="yes"/>
      <point x="147" y="1035"/>
      <point x="293" y="1150"/>
      <point x="489" y="1150" type="qcurve" smooth="yes"/>
      <point x="593" y="1150"/>
      <point x="731" y="1075" type="qcurve" smooth="yes"/>
      <point x="813" y="1030"/>
      <point x="872" y="1030" type="qcurve" smooth="yes"/>
      <point x="930" y="1030"/>
      <point x="1058" y="1190" type="qcurve"/>
      <point x="1197" y="1033" type="line"/>
      <point x="1073" y="886"/>
      <point x="872" y="886" type="qcurve" smooth="yes"/>
      <point x="770" y="886"/>
      <point x="657" y="946" type="qcurve" smooth="yes"/>
      <point x="543" y="1006"/>
      <point x="489" y="1006" type="qcurve" smooth="yes"/>
      <point x="435" y="1006"/>
      <point x="435" y="920" type="qcurve" smooth="yes"/>
      <point x="435" y="785"/>
      <point x="912" y="688"/>
      <point x="1197" y="480"/>
      <point x="1197" y="329" type="qcurve" smooth="yes"/>
      <point x="1197" y="164"/>
      <point x="897" y="0"/>
      <point x="647" y="0" type="qcurve" smooth="yes"/>
      <point x="147" y="0"/>
      <point x="147" y="289" type="qcurve" smooth="yes"/>
      <point x="147" y="550"/>
      <point x="417" y="550" type="qcurve" smooth="yes"/>
      <point x="459" y="550"/>
    </contour>
    <contour>
      <point x="417" y="323" type="qcurve" smooth="yes"/>
      <point x="434" y="323"/>
      <point x="466" y="340"/>
      <point x="485" y="372"/>
      <point x="485" y="390" type="qcurve" smooth="yes"/>
      <point x="485" y="408"/>
      <point x="467" y="440"/>
      <point x="435" y="458"/>
      <point x="417" y="458" type="qcurve" smooth="yes"/>
      <point x="399" y="458"/>
      <point x="367" y="440"/>
      <point x="350" y="408"/>
      <point x="350" y="390" type="qcurve" smooth="yes"/>
      <point x="350" y="372"/>
      <point x="368" y="340"/>
      <point x="400" y="323"/>
    </contour>
  </outline>
</glyph>
<glyph name="uni0EAF" format="1">
  <advance width="1434"/>
  <unicode hex="0EAF"/>
  <outline>
    <contour>
      <point x="435" y="1058" type="qcurve" smooth="yes"/>
      <point x="365" y="1058"/>
      <point x="365" y="989" type="qcurve" smooth="yes"/>
      <point x="365" y="920"/>
      <point x="435" y="920" type="qcurve" smooth="yes"/>
      <point x="505" y="920"/>
      <point x="505" y="989" type="qcurve" smooth="yes"/>
      <point x="505" y="1058"/>
    </contour>
    <contour>
      <point x="540" y="720" type="qcurve" smooth="yes"/>
      <point x="651" y="720"/>
      <point x="936" y="984"/>
      <point x="1023" y="1150" type="qcurve"/>
      <point x="1287" y="1068" type="line"/>
      <point x="611" y="-407" type="line"/>
      <point x="349" y="-339" type="line"/>
      <point x="854" y="731" type="line"/>
      <point x="701" y="567"/>
      <point x="540" y="567" type="qcurve" smooth="yes"/>
      <point x="147" y="567"/>
      <point x="147" y="889" type="qcurve" smooth="yes"/>
      <point x="147" y="1144"/>
      <point x="397" y="1150" type="qcurve"/>
      <point x="598" y="1148"/>
      <point x="598" y="994" type="qcurve" smooth="yes"/>
      <point x="598" y="982"/>
      <point x="597" y="968" type="qcurve" smooth="yes"/>
      <point x="597" y="827"/>
      <point x="405" y="827" type="qcurve"/>
      <point x="425" y="720"/>
    </contour>
  </outline>
</glyph>
<glyph name="uni0EB0" format="1">
  <advance width="1232"/>
  <unicode hex="0EB0"/>
  <outline>
    <contour>
      <point x="310" y="366"/>
      <point x="293" y="335"/>
      <point x="293" y="318" type="qcurve" smooth="yes"/>
      <point x="293" y="301"/>
      <point x="309" y="270"/>
      <point x="340" y="254"/>
      <point x="357" y="254" type="qcurve" smooth="yes"/>
      <point x="374" y="254"/>
      <point x="405" y="270"/>
      <point x="423" y="301"/>
      <point x="423" y="318" type="qcurve" smooth="yes"/>
      <point x="423" y="335"/>
      <point x="404" y="366"/>
      <point x="373" y="384"/>
      <point x="357" y="384" type="qcurve" smooth="yes"/>
      <point x="341" y="384"/>
    </contour>
    <contour>
      <point x="597" y="178" type="qcurve" smooth="yes"/>
      <point x="673" y="178"/>
      <point x="781" y="309"/>
      <point x="797" y="458" type="qcurve"/>
      <point x="1085" y="458" type="line"/>
      <point x="1058" y="237"/>
      <point x="752" y="44"/>
      <point x="547" y="44" type="qcurve" smooth="yes"/>
      <point x="377" y="44"/>
      <point x="147" y="181"/>
      <point x="147" y="318" type="qcurve" smooth="yes"/>
      <point x="147" y="360"/>
      <point x="190" y="437"/>
      <point x="266" y="478"/>
      <point x="357" y="478" type="qcurve" smooth="yes"/>
      <point x="397" y="478"/>
      <point x="474" y="437"/>
      <point x="517" y="360"/>
      <point x="517" y="318" type="qcurve" smooth="yes"/>
      <point x="517" y="276"/>
      <point x="496" y="238" type="qcurve"/>
      <point x="513" y="178"/>
    </contour>
    <contour>
      <point x="310" y="988"/>
      <point x="293" y="957"/>
      <point x="293" y="940" type="qcurve" smooth="yes"/>
      <point x="293" y="923"/>
      <point x="309" y="892"/>
      <point x="340" y="876"/>
      <point x="357" y="876" type="qcurve" smooth="yes"/>
      <point x="374" y="876"/>
      <point x="405" y="892"/>
      <point x="423" y="923"/>
      <point x="423" y="940" type="qcurve" smooth="yes"/>
      <point x="423" y="957"/>
      <point x="404" y="988"/>
      <point x="373" y="1006"/>
      <point x="357" y="1006" type="qcurve" smooth="yes"/>
      <point x="341" y="1006"/>
    </contour>
    <contour>
      <point x="597" y="800" type="qcurve" smooth="yes"/>
      <point x="673" y="800"/>
      <point x="781" y="931"/>
      <point x="797" y="1080" type="qcurve"/>
      <point x="1085" y="1080" type="line"/>
      <point x="1058" y="859"/>
      <point x="752" y="666"/>
      <point x="547" y="666" type="qcurve" smooth="yes"/>
      <point x="377" y="666"/>
      <point x="147" y="803"/>
      <point x="147" y="940" type="qcurve" smooth="yes"/>
      <point x="147" y="982"/>
      <point x="190" y="1059"/>
      <point x="266" y="1100"/>
      <point x="357" y="1100" type="qcurve" smooth="yes"/>
      <point x="397" y="1100"/>
      <point x="474" y="1059"/>
      <point x="517" y="982"/>
      <point x="517" y="940" type="qcurve" smooth="yes"/>
      <point x="517" y="898"/>
      <point x="496" y="860" type="qcurve"/>
      <point x="513" y="800"/>
    </contour>
  </outline>
</glyph>
<glyph name="uni0EB1" format="1">
  <advance width="0"/>
  <unicode hex="0EB1"/>
  <outline>
    <contour>
      <point x="-826" y="1562"/>
      <point x="-843" y="1531"/>
      <point x="-843" y="1514" type="qcurve" smooth="yes"/>
      <point x="-843" y="1497"/>
      <point x="-827" y="1466"/>
      <point x="-796" y="1450"/>
      <point x="-779" y="1450" type="qcurve" smooth="yes"/>
      <point x="-762" y="1450"/>
      <point x="-731" y="1466"/>
      <point x="-713" y="1497"/>
      <point x="-713" y="1514" type="qcurve" smooth="yes"/>
      <point x="-713" y="1531"/>
      <point x="-732" y="1562"/>
      <point x="-763" y="1580"/>
      <point x="-779" y="1580" type="qcurve" smooth="yes"/>
      <point x="-795" y="1580"/>
    </contour>
    <contour>
      <point x="-539" y="1374" type="qcurve" smooth="yes"/>
      <point x="-463" y="1374"/>
      <point x="-355" y="1505"/>
      <point x="-339" y="1654" type="qcurve"/>
      <point x="-51" y="1654" type="line"/>
      <point x="-78" y="1433"/>
      <point x="-384" y="1240"/>
      <point x="-589" y="1240" type="qcurve" smooth="yes"/>
      <point x="-759" y="1240"/>
      <point x="-989" y="1377"/>
      <point x="-989" y="1514" type="qcurve" smooth="yes"/>
      <point x="-989" y="1556"/>
      <point x="-946" y="1633"/>
      <point x="-870" y="1674"/>
      <point x="-779" y="1674" type="qcurve" smooth="yes"/>
      <point x="-739" y="1674"/>
      <point x="-662" y="1633"/>
      <point x="-619" y="1556"/>
      <point x="-619" y="1514" type="qcurve" smooth="yes"/>
      <point x="-619" y="1472"/>
      <point x="-640" y="1434" type="qcurve"/>
      <point x="-623" y="1374"/>
    </contour>
  </outline>
</glyph>
<glyph name="uni0EB2" format="1">
  <advance width="1045"/>
  <unicode hex="0EB2"/>
  <outline>
    <contour>
      <point x="323" y="890" type="qcurve" smooth="yes"/>
      <point x="323" y="816"/>
      <point x="368" y="816" type="qcurve" smooth="yes"/>
      <point x="414" y="816"/>
      <point x="414" y="891" type="qcurve" smooth="yes"/>
      <point x="414" y="937"/>
      <point x="368" y="937" type="qcurve" smooth="yes"/>
      <point x="323" y="937"/>
    </contour>
    <contour>
      <point x="569" y="0" type="line"/>
      <point x="569" y="770" type="line" smooth="yes"/>
      <point x="569" y="887"/>
      <point x="529" y="890" type="qcurve"/>
      <point x="529" y="700"/>
      <point x="337" y="700" type="qcurve" smooth="yes"/>
      <point x="147" y="700"/>
      <point x="147" y="890" type="qcurve" smooth="yes"/>
      <point x="147" y="1150"/>
      <point x="452" y="1150" type="qcurve" smooth="yes"/>
      <point x="857" y="1150"/>
      <point x="857" y="770" type="qcurve" smooth="yes"/>
      <point x="857" y="0" type="line"/>
    </contour>
  </outline>
</glyph>
<glyph name="uni0EB3" format="1">
  <advance width="1045"/>
  <unicode hex="0EB3"/>
  <outline>
    <contour>
      <point x="-537" y="1519"/>
      <point x="-559" y="1471"/>
      <point x="-559" y="1450" type="qcurve" smooth="yes"/>
      <point x="-559" y="1429"/>
      <point x="-537" y="1381"/>
      <point x="-519" y="1370"/>
      <point x="-499" y="1370" type="qcurve" smooth="yes"/>
      <point x="-478" y="1370"/>
      <point x="-460" y="1381"/>
      <point x="-439" y="1429"/>
      <point x="-439" y="1450" type="qcurve" smooth="yes"/>
      <point x="-439" y="1471"/>
      <point x="-460" y="1519"/>
      <point x="-478" y="1530"/>
      <point x="-499" y="1530" type="qcurve" smooth="yes"/>
      <point x="-519" y="1530"/>
    </contour>
    <contour>
      <point x="-499" y="1650" type="qcurve" smooth="yes"/>
      <point x="-418" y="1650"/>
      <point x="-323" y="1598"/>
      <point x="-269" y="1502"/>
      <point x="-269" y="1450" type="qcurve" smooth="yes"/>
      <point x="-269" y="1398"/>
      <point x="-321" y="1303"/>
      <point x="-417" y="1250"/>
      <point x="-499" y="1250" type="qcurve" smooth="yes"/>
      <point x="-580" y="1250"/>
      <point x="-676" y="1303"/>
      <point x="-729" y="1398"/>
      <point x="-729" y="1450" type="qcurve" smooth="yes"/>
      <point x="-729" y="1502"/>
      <point x="-675" y="1598"/>
      <point x="-579" y="1650"/>
    </contour>
    <contour>
      <point x="323" y="890" type="qcurve" smooth="yes"/>
      <point x="323" y="816"/>
      <point x="368" y="816" type="qcurve" smooth="yes"/>
      <point x="414" y="816"/>
      <point x="414" y="891" type="qcurve" smooth="yes"/>
      <point x="414" y="937"/>
      <point x="368" y="937" type="qcurve" smooth="yes"/>
      <point x="323" y="937"/>
    </contour>
    <contour>
      <point x="569" y="0" type="line"/>
      <point x="569" y="770" type="line" smooth="yes"/>
      <point x="569" y="887"/>
      <point x="529" y="890" type="qcurve"/>
      <point x="529" y="700"/>
      <point x="337" y="700" type="qcurve" smooth="yes"/>
      <point x="147" y="700"/>
      <point x="147" y="890" type="qcurve" smooth="yes"/>
      <point x="147" y="1150"/>
      <point x="452" y="1150" type="qcurve" smooth="yes"/>
      <point x="857" y="1150"/>
      <point x="857" y="770" type="qcurve" smooth="yes"/>
      <point x="857" y="0" type="line"/>
    </contour>
  </outline>
</glyph>
<glyph name="uni0EB4" format="1">
  <advance width="0"/>
  <unicode hex="0EB4"/>
  <outline>
    <contour>
      <point x="-672" y="1547" type="line" smooth="yes"/>
      <point x="-802" y="1547"/>
      <point x="-878" y="1515"/>
      <point x="-894" y="1486" type="qcurve" smooth="yes"/>
      <point x="-901" y="1475"/>
      <point x="-901" y="1466" type="qcurve" smooth="yes"/>
      <point x="-901" y="1450"/>
      <point x="-884" y="1436" type="qcurve" smooth="yes"/>
      <point x="-857" y="1416"/>
      <point x="-795" y="1372" type="qcurve"/>
      <point x="-855" y="1292" type="line"/>
      <point x="-861" y="1293"/>
      <point x="-869" y="1293" type="qcurve" smooth="yes"/>
      <point x="-923" y="1314"/>
      <point x="-997" y="1349"/>
      <point x="-1070" y="1400"/>
      <point x="-1094" y="1436"/>
      <point x="-1100" y="1470" type="qcurve"/>
      <point x="-1100" y="1509"/>
      <point x="-993" y="1602"/>
      <point x="-809" y="1639"/>
      <point x="-650" y="1639" type="qcurve" smooth="yes"/>
      <point x="-490" y="1639"/>
      <point x="-306" y="1602"/>
      <point x="-200" y="1509"/>
      <point x="-200" y="1470" type="qcurve"/>
      <point x="-205" y="1436"/>
      <point x="-229" y="1400"/>
      <point x="-302" y="1341"/>
      <point x="-376" y="1307"/>
      <point x="-430" y="1293" type="qcurve" smooth="yes"/>
      <point x="-437" y="1292"/>
      <point x="-443" y="1292" type="qcurve"/>
      <point x="-502" y="1372" type="line"/>
      <point x="-442" y="1416"/>
      <point x="-415" y="1436" type="qcurve" smooth="yes"/>
      <point x="-398" y="1450"/>
      <point x="-398" y="1466" type="qcurve" smooth="yes"/>
      <point x="-398" y="1475"/>
      <point x="-404" y="1486" type="qcurve" smooth="yes"/>
      <point x="-421" y="1515"/>
      <point x="-497" y="1547"/>
      <point x="-628" y="1547" type="qcurve" smooth="yes"/>
    </contour>
  </outline>
</glyph>
<glyph name="uni0EB5" format="1">
  <advance width="0"/>
  <unicode hex="0EB5"/>
  <outline>
    <contour>
      <point x="-532" y="1374" type="line"/>
      <point x="-483" y="1418"/>
      <point x="-459" y="1440" type="qcurve" smooth="yes"/>
      <point x="-444" y="1452"/>
      <point x="-444" y="1469" type="qcurve" smooth="yes"/>
      <point x="-444" y="1479"/>
      <point x="-450" y="1490" type="qcurve" smooth="yes"/>
      <point x="-465" y="1519"/>
      <point x="-530" y="1554"/>
      <point x="-655" y="1554" type="qcurve" smooth="yes"/>
      <point x="-675" y="1554" type="line" smooth="yes"/>
      <point x="-799" y="1554"/>
      <point x="-864" y="1519"/>
      <point x="-879" y="1490" type="qcurve" smooth="yes"/>
      <point x="-885" y="1479"/>
      <point x="-885" y="1469" type="qcurve" smooth="yes"/>
      <point x="-885" y="1452"/>
      <point x="-870" y="1440" type="qcurve" smooth="yes"/>
      <point x="-846" y="1418"/>
      <point x="-796" y="1374" type="qcurve"/>
      <point x="-848" y="1292" type="line"/>
      <point x="-855" y="1293"/>
      <point x="-862" y="1293" type="qcurve" smooth="yes"/>
      <point x="-910" y="1307"/>
      <point x="-977" y="1342"/>
      <point x="-1042" y="1394"/>
      <point x="-1064" y="1432"/>
      <point x="-1070" y="1474" type="qcurve"/>
      <point x="-1070" y="1514"/>
      <point x="-973" y="1601"/>
      <point x="-808" y="1647"/>
      <point x="-665" y="1647" type="qcurve" smooth="yes"/>
      <point x="-522" y="1647"/>
      <point x="-356" y="1601"/>
      <point x="-261" y="1514"/>
      <point x="-261" y="1474" type="qcurve"/>
      <point x="-266" y="1440"/>
      <point x="-277" y="1421" type="qcurve" smooth="yes"/>
      <point x="-282" y="1409"/>
      <point x="-296" y="1389" type="qcurve"/>
      <point x="-170" y="1389" type="line"/>
      <point x="-170" y="1292" type="line"/>
      <point x="-532" y="1292" type="line"/>
    </contour>
  </outline>
</glyph>
<glyph name="uni0EB6" format="1">
  <advance width="0"/>
  <unicode hex="0EB6"/>
  <outline>
    <contour>
      <point x="-650" y="1500" type="qcurve" smooth="yes"/>
      <point x="-625" y="1500"/>
      <point x="-581" y="1486"/>
      <point x="-556" y="1459"/>
      <point x="-556" y="1445" type="qcurve" smooth="yes"/>
      <point x="-556" y="1431"/>
      <point x="-580" y="1404"/>
      <point x="-624" y="1390"/>
      <point x="-650" y="1390" type="qcurve" smooth="yes"/>
      <point x="-674" y="1390"/>
      <point x="-718" y="1404"/>
      <point x="-743" y="1431"/>
      <point x="-743" y="1445" type="qcurve" smooth="yes"/>
      <point x="-743" y="1459"/>
      <point x="-718" y="1486"/>
      <point x="-673" y="1500"/>
    </contour>
    <contour>
      <point x="-672" y="1557" type="line" smooth="yes"/>
      <point x="-802" y="1557"/>
      <point x="-878" y="1525"/>
      <point x="-894" y="1496" type="qcurve" smooth="yes"/>
      <point x="-901" y="1485"/>
      <point x="-901" y="1476" type="qcurve" smooth="yes"/>
      <point x="-901" y="1460"/>
      <point x="-884" y="1446" type="qcurve" smooth="yes"/>
      <point x="-857" y="1426"/>
      <point x="-795" y="1382" type="qcurve"/>
      <point x="-855" y="1302" type="line"/>
      <point x="-861" y="1303"/>
      <point x="-869" y="1303" type="qcurve" smooth="yes"/>
      <point x="-923" y="1324"/>
      <point x="-997" y="1359"/>
      <point x="-1070" y="1410"/>
      <point x="-1094" y="1446"/>
      <point x="-1100" y="1480" type="qcurve"/>
      <point x="-1100" y="1519"/>
      <point x="-993" y="1612"/>
      <point x="-809" y="1649"/>
      <point x="-650" y="1649" type="qcurve" smooth="yes"/>
      <point x="-490" y="1649"/>
      <point x="-306" y="1612"/>
      <point x="-200" y="1519"/>
      <point x="-200" y="1480" type="qcurve"/>
      <point x="-205" y="1446"/>
      <point x="-229" y="1410"/>
      <point x="-302" y="1351"/>
      <point x="-376" y="1317"/>
      <point x="-430" y="1303" type="qcurve" smooth="yes"/>
      <point x="-437" y="1302"/>
      <point x="-443" y="1302" type="qcurve"/>
      <point x="-502" y="1382" type="line"/>
      <point x="-442" y="1426"/>
      <point x="-415" y="1446" type="qcurve" smooth="yes"/>
      <point x="-398" y="1460"/>
      <point x="-398" y="1476" type="qcurve" smooth="yes"/>
      <point x="-398" y="1485"/>
      <point x="-404" y="1496" type="qcurve" smooth="yes"/>
      <point x="-421" y="1525"/>
      <point x="-497" y="1557"/>
      <point x="-628" y="1557" type="qcurve" smooth="yes"/>
    </contour>
  </outline>
</glyph>
<glyph name="uni0EB7" format="1">
  <advance width="0"/>
  <unicode hex="0EB7"/>
  <outline>
    <contour>
      <point x="-660" y="1510" type="qcurve" smooth="yes"/>
      <point x="-639" y="1510"/>
      <point x="-600" y="1496"/>
      <point x="-577" y="1470"/>
      <point x="-577" y="1457" type="qcurve" smooth="yes"/>
      <point x="-577" y="1444"/>
      <point x="-599" y="1417"/>
      <point x="-638" y="1403"/>
      <point x="-660" y="1403" type="qcurve" smooth="yes"/>
      <point x="-682" y="1403"/>
      <point x="-721" y="1417"/>
      <point x="-743" y="1444"/>
      <point x="-743" y="1457" type="qcurve" smooth="yes"/>
      <point x="-743" y="1470"/>
      <point x="-721" y="1496"/>
      <point x="-681" y="1510"/>
    </contour>
    <contour>
      <point x="-532" y="1384" type="line"/>
      <point x="-483" y="1428"/>
      <point x="-459" y="1450" type="qcurve" smooth="yes"/>
      <point x="-444" y="1462"/>
      <point x="-444" y="1479" type="qcurve" smooth="yes"/>
      <point x="-444" y="1489"/>
      <point x="-450" y="1500" type="qcurve" smooth="yes"/>
      <point x="-465" y="1529"/>
      <point x="-530" y="1564"/>
      <point x="-655" y="1564" type="qcurve" smooth="yes"/>
      <point x="-675" y="1564" type="line" smooth="yes"/>
      <point x="-799" y="1564"/>
      <point x="-864" y="1529"/>
      <point x="-879" y="1500" type="qcurve" smooth="yes"/>
      <point x="-885" y="1489"/>
      <point x="-885" y="1479" type="qcurve" smooth="yes"/>
      <point x="-885" y="1462"/>
      <point x="-870" y="1450" type="qcurve" smooth="yes"/>
      <point x="-846" y="1428"/>
      <point x="-796" y="1384" type="qcurve"/>
      <point x="-848" y="1302" type="line"/>
      <point x="-855" y="1303"/>
      <point x="-862" y="1303" type="qcurve" smooth="yes"/>
      <point x="-910" y="1317"/>
      <point x="-977" y="1352"/>
      <point x="-1042" y="1404"/>
      <point x="-1064" y="1442"/>
      <point x="-1070" y="1484" type="qcurve"/>
      <point x="-1070" y="1524"/>
      <point x="-973" y="1611"/>
      <point x="-808" y="1657"/>
      <point x="-665" y="1657" type="qcurve" smooth="yes"/>
      <point x="-522" y="1657"/>
      <point x="-356" y="1611"/>
      <point x="-261" y="1524"/>
      <point x="-261" y="1484" type="qcurve"/>
      <point x="-266" y="1450"/>
      <point x="-277" y="1431" type="qcurve" smooth="yes"/>
      <point x="-282" y="1419"/>
      <point x="-296" y="1399" type="qcurve"/>
      <point x="-170" y="1399" type="line"/>
      <point x="-170" y="1302" type="line"/>
      <point x="-532" y="1302" type="line"/>
    </contour>
  </outline>
</glyph>
<glyph name="uni0EB8" format="1">
  <advance width="0"/>
  <unicode hex="0EB8"/>
  <outline>
    <contour>
      <point x="-494" y="-176" type="qcurve" smooth="yes"/>
      <point x="-494" y="-211"/>
      <point x="-465" y="-211" type="qcurve" smooth="yes"/>
      <point x="-437" y="-211"/>
      <point x="-437" y="-176" type="qcurve" smooth="yes"/>
      <point x="-437" y="-141"/>
      <point x="-465" y="-141" type="qcurve" smooth="yes"/>
      <point x="-494" y="-141"/>
    </contour>
    <contour>
      <point x="-482" y="-289" type="qcurve"/>
      <point x="-496" y="-286"/>
      <point x="-539" y="-260"/>
      <point x="-572" y="-206"/>
      <point x="-572" y="-176" type="qcurve" smooth="yes"/>
      <point x="-572" y="-145"/>
      <point x="-537" y="-90"/>
      <point x="-477" y="-61"/>
      <point x="-415" y="-61" type="qcurve" smooth="yes"/>
      <point x="-363" y="-61"/>
      <point x="-303" y="-90"/>
      <point x="-269" y="-145"/>
      <point x="-269" y="-176" type="qcurve" smooth="yes"/>
      <point x="-269" y="-370"/>
      <point x="-454" y="-450" type="qcurve"/>
      <point x="-559" y="-340" type="line"/>
      <point x="-502" y="-330"/>
    </contour>
  </outline>
</glyph>
<glyph name="uni0EB9" format="1">
  <advance width="0"/>
  <unicode hex="0EB9"/>
  <outline>
    <contour>
      <point x="-645" y="-159"/>
      <point x="-645" y="-169" type="qcurve" smooth="yes"/>
      <point x="-645" y="-179"/>
      <point x="-636" y="-195"/>
      <point x="-622" y="-205"/>
      <point x="-596" y="-207" type="qcurve"/>
      <point x="-583" y="-186"/>
      <point x="-583" y="-169" type="qcurve" smooth="yes"/>
      <point x="-583" y="-159"/>
      <point x="-592" y="-142"/>
      <point x="-606" y="-132"/>
      <point x="-614" y="-132" type="qcurve" smooth="yes"/>
      <point x="-621" y="-132"/>
      <point x="-636" y="-142"/>
    </contour>
    <contour>
      <point x="-461" y="-234" type="qcurve" smooth="yes"/>
      <point x="-472" y="-264"/>
      <point x="-472" y="-292" type="qcurve" smooth="yes"/>
      <point x="-472" y="-304"/>
      <point x="-470" y="-316" type="qcurve" smooth="yes"/>
      <point x="-463" y="-336"/>
      <point x="-426" y="-336" type="qcurve" smooth="yes"/>
      <point x="-379" y="-336"/>
      <point x="-379" y="-221" type="qcurve" smooth="yes"/>
      <point x="-379" y="-61" type="line"/>
      <point x="-217" y="-61" type="line"/>
      <point x="-217" y="-226" type="line" smooth="yes"/>
      <point x="-217" y="-420"/>
      <point x="-426" y="-420" type="qcurve" smooth="yes"/>
      <point x="-582" y="-420"/>
      <point x="-608" y="-368" type="qcurve" smooth="yes"/>
      <point x="-624" y="-338"/>
      <point x="-624" y="-311" type="qcurve" smooth="yes"/>
      <point x="-624" y="-290"/>
      <point x="-615" y="-271" type="qcurve"/>
      <point x="-643" y="-271"/>
      <point x="-669" y="-257" type="qcurve" smooth="yes"/>
      <point x="-697" y="-243"/>
      <point x="-724" y="-193"/>
      <point x="-724" y="-166" type="qcurve" smooth="yes"/>
      <point x="-724" y="-138"/>
      <point x="-697" y="-87"/>
      <point x="-641" y="-61"/>
      <point x="-572" y="-61" type="qcurve" smooth="yes"/>
      <point x="-532" y="-61"/>
      <point x="-477" y="-87"/>
      <point x="-446" y="-138"/>
      <point x="-446" y="-166" type="qcurve" smooth="yes"/>
      <point x="-446" y="-191"/>
    </contour>
  </outline>
</glyph>
<glyph name="uni0EBB" format="1">
  <advance width="0"/>
  <unicode hex="0EBB"/>
  <outline>
    <contour>
      <point x="-779" y="1334" type="qcurve" smooth="yes"/>
      <point x="-763" y="1334"/>
      <point x="-732" y="1352"/>
      <point x="-713" y="1383"/>
      <point x="-713" y="1400" type="qcurve" smooth="yes"/>
      <point x="-713" y="1417"/>
      <point x="-731" y="1448"/>
      <point x="-762" y="1464"/>
      <point x="-779" y="1464" type="qcurve" smooth="yes"/>
      <point x="-796" y="1464"/>
      <point x="-827" y="1448"/>
      <point x="-843" y="1417"/>
      <point x="-843" y="1400" type="qcurve" smooth="yes"/>
      <point x="-843" y="1383"/>
      <point x="-826" y="1352"/>
      <point x="-795" y="1334"/>
    </contour>
    <contour>
      <point x="-640" y="1480" type="qcurve"/>
      <point x="-619" y="1442"/>
      <point x="-619" y="1400" type="qcurve" smooth="yes"/>
      <point x="-619" y="1358"/>
      <point x="-662" y="1281"/>
      <point x="-739" y="1240"/>
      <point x="-779" y="1240" type="qcurve" smooth="yes"/>
      <point x="-870" y="1240"/>
      <point x="-946" y="1281"/>
      <point x="-989" y="1358"/>
      <point x="-989" y="1400" type="qcurve" smooth="yes"/>
      <point x="-989" y="1537"/>
      <point x="-759" y="1674"/>
      <point x="-589" y="1674" type="qcurve" smooth="yes"/>
      <point x="-384" y="1674"/>
      <point x="-78" y="1481"/>
      <point x="-51" y="1260" type="qcurve"/>
      <point x="-339" y="1260" type="line"/>
      <point x="-355" y="1409"/>
      <point x="-463" y="1540"/>
      <point x="-539" y="1540" type="qcurve" smooth="yes"/>
      <point x="-623" y="1540"/>
    </contour>
  </outline>
</glyph>
<glyph name="uni0EBC" format="1">
  <advance width="0"/>
  <unicode hex="0EBC"/>
  <outline>
    <contour>
      <point x="-797" y="-221" type="qcurve" smooth="yes"/>
      <point x="-797" y="-227" type="line" smooth="yes"/>
      <point x="-797" y="-244"/>
      <point x="-788" y="-252" type="qcurve" smooth="yes"/>
      <point x="-777" y="-263"/>
      <point x="-758" y="-264" type="qcurve" smooth="yes"/>
      <point x="-740" y="-264"/>
      <point x="-728" y="-253" type="qcurve" smooth="yes"/>
      <point x="-718" y="-245"/>
      <point x="-718" y="-230" type="qcurve" smooth="yes"/>
      <point x="-718" y="-226"/>
      <point x="-719" y="-222" type="qcurve" smooth="yes"/>
      <point x="-721" y="-201"/>
      <point x="-747" y="-176" type="qcurve"/>
      <point x="-772" y="-180"/>
      <point x="-794" y="-200"/>
    </contour>
    <contour>
      <point x="-645" y="-181" type="qcurve"/>
      <point x="-629" y="-217"/>
      <point x="-629" y="-248" type="qcurve" smooth="yes"/>
      <point x="-629" y="-262"/>
      <point x="-632" y="-275" type="qcurve" smooth="yes"/>
      <point x="-643" y="-317"/>
      <point x="-705" y="-367"/>
      <point x="-755" y="-367" type="qcurve" smooth="yes"/>
      <point x="-865" y="-367"/>
      <point x="-908" y="-326" type="qcurve" smooth="yes"/>
      <point x="-948" y="-286"/>
      <point x="-948" y="-211" type="qcurve" smooth="yes"/>
      <point x="-948" y="-136"/>
      <point x="-842" y="-61"/>
      <point x="-740" y="-61" type="qcurve" smooth="yes"/>
      <point x="-628" y="-61"/>
      <point x="-509" y="-131"/>
      <point x="-444" y="-214"/>
      <point x="-413" y="-214" type="qcurve" smooth="yes"/>
      <point x="-382" y="-214"/>
      <point x="-365" y="-71" type="qcurve"/>
      <point x="-176" y="-71" type="line"/>
      <point x="-214" y="-339"/>
      <point x="-400" y="-339" type="qcurve" smooth="yes"/>
      <point x="-487" y="-339"/>
      <point x="-594" y="-189"/>
    </contour>
  </outline>
</glyph>
<glyph name="uni0EBD" format="1">
  <advance width="1050"/>
  <unicode hex="0EBD"/>
  <outline>
    <contour>
      <point x="313" y="-123" type="qcurve" smooth="yes"/>
      <point x="288" y="-123"/>
      <point x="273" y="-144" type="qcurve" smooth="yes"/>
      <point x="260" y="-163"/>
      <point x="260" y="-192" type="qcurve" smooth="yes"/>
      <point x="260" y="-197"/>
      <point x="261" y="-203" type="qcurve" smooth="yes"/>
      <point x="264" y="-258"/>
      <point x="341" y="-273" type="qcurve"/>
      <point x="374" y="-248"/>
      <point x="374" y="-205" type="qcurve" smooth="yes"/>
      <point x="374" y="-203" type="line" smooth="yes"/>
      <point x="374" y="-166"/>
      <point x="340" y="-123"/>
    </contour>
    <contour>
      <point x="535" y="-420" type="qcurve" smooth="yes"/>
      <point x="408" y="-420"/>
      <point x="264" y="-398"/>
      <point x="139" y="-343"/>
      <point x="82" y="-266"/>
      <point x="82" y="-201" type="qcurve" smooth="yes"/>
      <point x="82" y="-194" type="line" smooth="yes"/>
      <point x="82" y="-121"/>
      <point x="136" y="-68" type="qcurve" smooth="yes"/>
      <point x="191" y="-14"/>
      <point x="252" y="-8" type="qcurve" smooth="yes"/>
      <point x="269" y="-7"/>
      <point x="284" y="-7" type="qcurve" smooth="yes"/>
      <point x="323" y="-7"/>
      <point x="350" y="-16" type="qcurve" smooth="yes"/>
      <point x="388" y="-29"/>
      <point x="447" y="-77"/>
      <point x="467" y="-119" type="qcurve" smooth="yes"/>
      <point x="482" y="-150"/>
      <point x="482" y="-189" type="qcurve" smooth="yes"/>
      <point x="482" y="-203"/>
      <point x="480" y="-219" type="qcurve" smooth="yes"/>
      <point x="472" y="-276"/>
      <point x="446" y="-296" type="qcurve"/>
      <point x="594" y="-296"/>
      <point x="594" y="-6" type="qcurve" smooth="yes"/>
      <point x="594" y="624" type="line" smooth="yes"/>
      <point x="594" y="711"/>
      <point x="82" y="928"/>
      <point x="82" y="1011" type="qcurve" smooth="yes"/>
      <point x="82" y="1067"/>
      <point x="110" y="1097" type="qcurve" smooth="yes"/>
      <point x="137" y="1127"/>
      <point x="171" y="1139" type="qcurve" smooth="yes"/>
      <point x="205" y="1150"/>
      <point x="260" y="1150" type="qcurve" smooth="yes"/>
      <point x="315" y="1150"/>
      <point x="550" y="1074"/>
      <point x="572" y="1074" type="qcurve" smooth="yes"/>
      <point x="594" y="1074"/>
      <point x="594" y="1149" type="qcurve"/>
      <point x="882" y="1149" type="line"/>
      <point x="882" y="1095" type="line" smooth="yes"/>
      <point x="882" y="1038"/>
      <point x="853" y="998" type="qcurve" smooth="yes"/>
      <point x="824" y="958"/>
      <point x="779" y="946" type="qcurve" smooth="yes"/>
      <point x="756" y="940"/>
      <point x="728" y="940" type="qcurve" smooth="yes"/>
      <point x="703" y="940"/>
      <point x="674" y="945" type="qcurve" smooth="yes"/>
      <point x="613" y="956"/>
      <point x="546" y="977" type="qcurve" smooth="yes"/>
      <point x="478" y="997"/>
      <point x="402" y="1021" type="qcurve" smooth="yes"/>
      <point x="325" y="1044"/>
      <point x="277" y="1046" type="qcurve" smooth="yes"/>
      <point x="269" y="1046" type="line" smooth="yes"/>
      <point x="228" y="1046"/>
      <point x="223" y="1027" type="qcurve"/>
      <point x="223" y="1023" type="line" smooth="yes"/>
      <point x="223" y="1004"/>
      <point x="265" y="994" type="qcurve" smooth="yes"/>
      <point x="312" y="983"/>
      <point x="383" y="965" type="qcurve" smooth="yes"/>
      <point x="453" y="946"/>
      <point x="536" y="921" type="qcurve" smooth="yes"/>
      <point x="619" y="895"/>
      <point x="691" y="860" type="qcurve" smooth="yes"/>
      <point x="763" y="825"/>
      <point x="823" y="782" type="qcurve" smooth="yes"/>
      <point x="882" y="739"/>
      <point x="882" y="686" type="qcurve" smooth="yes"/>
      <point x="882" y="0" type="line" smooth="yes"/>
      <point x="882" y="-228"/>
      <point x="779" y="-332" type="qcurve" smooth="yes"/>
      <point x="693" y="-420"/>
    </contour>
  </outline>
</glyph>
<glyph name="uni0EC0" format="1">
  <advance width="815"/>
  <unicode hex="0EC0"/>
  <outline>
    <contour>
      <point x="468" y="183"/>
      <point x="468" y="170" type="qcurve" smooth="yes"/>
      <point x="468" y="157"/>
      <point x="481" y="133"/>
      <point x="505" y="120"/>
      <point x="518" y="120" type="qcurve" smooth="yes"/>
      <point x="531" y="120"/>
      <point x="555" y="133"/>
      <point x="568" y="157"/>
      <point x="568" y="170" type="qcurve" smooth="yes"/>
      <point x="568" y="183"/>
      <point x="554" y="207"/>
      <point x="531" y="220"/>
      <point x="518" y="220" type="qcurve" smooth="yes"/>
      <point x="505" y="220"/>
      <point x="481" y="207"/>
    </contour>
    <contour>
      <point x="456" y="306" type="line"/>
      <point x="486" y="320"/>
      <point x="518" y="320" type="qcurve" smooth="yes"/>
      <point x="556" y="320"/>
      <point x="627" y="281"/>
      <point x="668" y="209"/>
      <point x="668" y="170" type="qcurve" smooth="yes"/>
      <point x="668" y="87"/>
      <point x="625" y="45" type="qcurve" smooth="yes"/>
      <point x="580" y="0"/>
      <point x="488" y="0" type="qcurve" smooth="yes"/>
      <point x="334" y="0"/>
      <point x="254" y="70" type="qcurve" smooth="yes"/>
      <point x="168" y="144"/>
      <point x="168" y="300" type="qcurve" smooth="yes"/>
      <point x="168" y="850" type="line" smooth="yes"/>
      <point x="168" y="1007"/>
      <point x="254" y="1082" type="qcurve" smooth="yes"/>
      <point x="333" y="1150"/>
      <point x="482" y="1150" type="qcurve" smooth="yes"/>
      <point x="570" y="1150"/>
      <point x="668" y="1120" type="qcurve"/>
      <point x="668" y="976" type="line"/>
      <point x="590" y="1006"/>
      <point x="552" y="1006" type="qcurve" smooth="yes"/>
      <point x="504" y="1006"/>
      <point x="456" y="935"/>
      <point x="456" y="850" type="qcurve" smooth="yes"/>
    </contour>
  </outline>
</glyph>
<glyph name="uni0EC1" format="1">
  <advance width="1547"/>
  <unicode hex="0EC1"/>
  <outline>
    <contour>
      <point x="1200" y="183"/>
      <point x="1200" y="170" type="qcurve" smooth="yes"/>
      <point x="1200" y="157"/>
      <point x="1213" y="133"/>
      <point x="1237" y="120"/>
      <point x="1250" y="120" type="qcurve" smooth="yes"/>
      <point x="1263" y="120"/>
      <point x="1287" y="133"/>
      <point x="1300" y="157"/>
      <point x="1300" y="170" type="qcurve" smooth="yes"/>
      <point x="1300" y="183"/>
      <point x="1286" y="207"/>
      <point x="1263" y="220"/>
      <point x="1250" y="220" type="qcurve" smooth="yes"/>
      <point x="1237" y="220"/>
      <point x="1213" y="207"/>
    </contour>
    <contour>
      <point x="1188" y="306" type="line"/>
      <point x="1218" y="320"/>
      <point x="1250" y="320" type="qcurve" smooth="yes"/>
      <point x="1288" y="320"/>
      <point x="1359" y="281"/>
      <point x="1400" y="209"/>
      <point x="1400" y="170" type="qcurve" smooth="yes"/>
      <point x="1400" y="87"/>
      <point x="1357" y="45" type="qcurve" smooth="yes"/>
      <point x="1312" y="0"/>
      <point x="1220" y="0" type="qcurve" smooth="yes"/>
      <point x="1066" y="0"/>
      <point x="986" y="70" type="qcurve" smooth="yes"/>
      <point x="900" y="144"/>
      <point x="900" y="300" type="qcurve" smooth="yes"/>
      <point x="900" y="850" type="line" smooth="yes"/>
      <point x="900" y="1007"/>
      <point x="986" y="1082" type="qcurve" smooth="yes"/>
      <point x="1065" y="1150"/>
      <point x="1214" y="1150" type="qcurve" smooth="yes"/>
      <point x="1302" y="1150"/>
      <point x="1400" y="1120" type="qcurve"/>
      <point x="1400" y="976" type="line"/>
      <point x="1322" y="1006"/>
      <point x="1284" y="1006" type="qcurve" smooth="yes"/>
      <point x="1236" y="1006"/>
      <point x="1188" y="935"/>
      <point x="1188" y="850" type="qcurve" smooth="yes"/>
    </contour>
    <contour>
      <point x="468" y="183"/>
      <point x="468" y="170" type="qcurve" smooth="yes"/>
      <point x="468" y="157"/>
      <point x="481" y="133"/>
      <point x="505" y="120"/>
      <point x="518" y="120" type="qcurve" smooth="yes"/>
      <point x="531" y="120"/>
      <point x="555" y="133"/>
      <point x="568" y="157"/>
      <point x="568" y="170" type="qcurve" smooth="yes"/>
      <point x="568" y="183"/>
      <point x="554" y="207"/>
      <point x="531" y="220"/>
      <point x="518" y="220" type="qcurve" smooth="yes"/>
      <point x="505" y="220"/>
      <point x="481" y="207"/>
    </contour>
    <contour>
      <point x="456" y="306" type="line"/>
      <point x="486" y="320"/>
      <point x="518" y="320" type="qcurve" smooth="yes"/>
      <point x="556" y="320"/>
      <point x="627" y="281"/>
      <point x="668" y="209"/>
      <point x="668" y="170" type="qcurve" smooth="yes"/>
      <point x="668" y="87"/>
      <point x="625" y="45" type="qcurve" smooth="yes"/>
      <point x="580" y="0"/>
      <point x="488" y="0" type="qcurve" smooth="yes"/>
      <point x="334" y="0"/>
      <point x="254" y="70" type="qcurve" smooth="yes"/>
      <point x="168" y="144"/>
      <point x="168" y="300" type="qcurve" smooth="yes"/>
      <point x="168" y="850" type="line" smooth="yes"/>
      <point x="168" y="1007"/>
      <point x="254" y="1082" type="qcurve" smooth="yes"/>
      <point x="333" y="1150"/>
      <point x="482" y="1150" type="qcurve" smooth="yes"/>
      <point x="570" y="1150"/>
      <point x="668" y="1120" type="qcurve"/>
      <point x="668" y="976" type="line"/>
      <point x="590" y="1006"/>
      <point x="552" y="1006" type="qcurve" smooth="yes"/>
      <point x="504" y="1006"/>
      <point x="456" y="935"/>
      <point x="456" y="850" type="qcurve" smooth="yes"/>
    </contour>
  </outline>
</glyph>
<glyph name="uni0EC2" format="1">
  <advance width="800"/>
  <unicode hex="0EC2"/>
  <outline>
    <contour>
      <point x="468" y="170" type="qcurve" smooth="yes"/>
      <point x="468" y="157"/>
      <point x="481" y="133"/>
      <point x="505" y="120"/>
      <point x="518" y="120" type="qcurve" smooth="yes"/>
      <point x="531" y="120"/>
      <point x="555" y="133"/>
      <point x="568" y="157"/>
      <point x="568" y="170" type="qcurve" smooth="yes"/>
      <point x="568" y="183"/>
      <point x="554" y="207"/>
      <point x="531" y="220"/>
      <point x="518" y="220" type="qcurve" smooth="yes"/>
      <point x="505" y="220"/>
      <point x="481" y="207"/>
      <point x="468" y="183"/>
    </contour>
    <contour>
      <point x="168" y="850" type="line" smooth="yes"/>
      <point x="168" y="1030"/>
      <point x="382" y="1155" type="qcurve"/>
      <point x="83" y="1419" type="line" smooth="yes"/>
      <point x="16" y="1478"/>
      <point x="9" y="1575" type="qcurve"/>
      <point x="9" y="1582" type="line" smooth="yes"/>
      <point x="9" y="1654"/>
      <point x="50" y="1706" type="qcurve"/>
      <point x="111" y="1768"/>
      <point x="183" y="1773" type="qcurve" smooth="yes"/>
      <point x="194" y="1774"/>
      <point x="205" y="1774" type="qcurve" smooth="yes"/>
      <point x="294" y="1774"/>
      <point x="352" y="1723" type="qcurve" smooth="yes"/>
      <point x="459" y="1631" type="line"/>
      <point x="619" y="1487"/>
      <point x="699" y="1487" type="qcurve" smooth="yes"/>
      <point x="709" y="1487"/>
      <point x="718" y="1489" type="qcurve"/>
      <point x="718" y="1378" type="line"/>
      <point x="669" y="1362"/>
      <point x="626" y="1362" type="qcurve" smooth="yes"/>
      <point x="604" y="1362"/>
      <point x="583" y="1367" type="qcurve" smooth="yes"/>
      <point x="524" y="1380"/>
      <point x="342" y="1550" type="qcurve" smooth="yes"/>
      <point x="310" y="1580"/>
      <point x="281" y="1580" type="qcurve" smooth="yes"/>
      <point x="253" y="1580"/>
      <point x="228" y="1549" type="qcurve" smooth="yes"/>
      <point x="219" y="1537"/>
      <point x="219" y="1525" type="qcurve" smooth="yes"/>
      <point x="219" y="1498"/>
      <point x="258" y="1465" type="qcurve" smooth="yes"/>
      <point x="612" y="1152" type="line"/>
      <point x="617" y="1150" type="line" smooth="yes"/>
      <point x="616" y="1149"/>
      <point x="615" y="1149" type="qcurve" smooth="yes"/>
      <point x="617" y="1147" type="line"/>
      <point x="613" y="1147" type="line"/>
      <point x="486" y="1063"/>
      <point x="456" y="933"/>
      <point x="456" y="850" type="qcurve" smooth="yes"/>
      <point x="456" y="306" type="line"/>
      <point x="486" y="320"/>
      <point x="518" y="320" type="qcurve" smooth="yes"/>
      <point x="556" y="320"/>
      <point x="627" y="281"/>
      <point x="668" y="209"/>
      <point x="668" y="170" type="qcurve" smooth="yes"/>
      <point x="668" y="87"/>
      <point x="625" y="45" type="qcurve" smooth="yes"/>
      <point x="580" y="0"/>
      <point x="488" y="0" type="qcurve" smooth="yes"/>
      <point x="334" y="0"/>
      <point x="254" y="70" type="qcurve" smooth="yes"/>
      <point x="168" y="144"/>
      <point x="168" y="300" type="qcurve" smooth="yes"/>
    </contour>
  </outline>
</glyph>
<glyph name="uni0EC3" format="1">
  <advance width="947"/>
  <unicode hex="0EC3"/>
  <outline>
    <contour>
      <point x="550" y="170" type="qcurve" smooth="yes"/>
      <point x="550" y="157"/>
      <point x="563" y="133"/>
      <point x="587" y="120"/>
      <point x="600" y="120" type="qcurve" smooth="yes"/>
      <point x="613" y="120"/>
      <point x="637" y="133"/>
      <point x="650" y="157"/>
      <point x="650" y="170" type="qcurve" smooth="yes"/>
      <point x="650" y="183"/>
      <point x="636" y="207"/>
      <point x="613" y="220"/>
      <point x="600" y="220" type="qcurve" smooth="yes"/>
      <point x="587" y="220"/>
      <point x="563" y="207"/>
      <point x="550" y="183"/>
    </contour>
    <contour>
      <point x="250" y="921" type="line" smooth="yes"/>
      <point x="250" y="1059"/>
      <point x="566" y="1334"/>
      <point x="566" y="1450" type="qcurve" smooth="yes"/>
      <point x="566" y="1552"/>
      <point x="455" y="1657"/>
      <point x="401" y="1657" type="qcurve" smooth="yes"/>
      <point x="321" y="1657"/>
      <point x="244" y="1563"/>
      <point x="244" y="1511" type="qcurve" smooth="yes"/>
      <point x="244" y="1383"/>
      <point x="284" y="1383" type="qcurve" smooth="yes"/>
      <point x="324" y="1383"/>
      <point x="346" y="1450" type="qcurve"/>
      <point x="442" y="1376" type="line"/>
      <point x="351" y="1256"/>
      <point x="256" y="1256" type="qcurve" smooth="yes"/>
      <point x="242" y="1256"/>
      <point x="227" y="1259" type="qcurve" smooth="yes"/>
      <point x="170" y="1263"/>
      <point x="84" y="1319"/>
      <point x="23" y="1392"/>
      <point x="0" y="1472"/>
      <point x="0" y="1511" type="qcurve" smooth="yes"/>
      <point x="0" y="1624"/>
      <point x="96" y="1702" type="qcurve" smooth="yes"/>
      <point x="196" y="1784"/>
      <point x="401" y="1784" type="qcurve" smooth="yes"/>
      <point x="605" y="1784"/>
      <point x="704" y="1697" type="qcurve" smooth="yes"/>
      <point x="800" y="1614"/>
      <point x="800" y="1450" type="qcurve" smooth="yes"/>
      <point x="800" y="1298"/>
      <point x="538" y="1012"/>
      <point x="538" y="921" type="qcurve" smooth="yes"/>
      <point x="538" y="306" type="line"/>
      <point x="568" y="320"/>
      <point x="600" y="320" type="qcurve" smooth="yes"/>
      <point x="638" y="320"/>
      <point x="709" y="281"/>
      <point x="750" y="209"/>
      <point x="750" y="170" type="qcurve" smooth="yes"/>
      <point x="750" y="87"/>
      <point x="707" y="45" type="qcurve" smooth="yes"/>
      <point x="662" y="0"/>
      <point x="570" y="0" type="qcurve" smooth="yes"/>
      <point x="416" y="0"/>
      <point x="336" y="70" type="qcurve" smooth="yes"/>
      <point x="250" y="144"/>
      <point x="250" y="300" type="qcurve" smooth="yes"/>
    </contour>
  </outline>
</glyph>
<glyph name="uni0EC4" format="1">
  <advance width="856"/>
  <unicode hex="0EC4"/>
  <outline>
    <contour>
      <point x="468" y="170" type="qcurve" smooth="yes"/>
      <point x="468" y="157"/>
      <point x="481" y="133"/>
      <point x="505" y="120"/>
      <point x="518" y="120" type="qcurve" smooth="yes"/>
      <point x="531" y="120"/>
      <point x="555" y="133"/>
      <point x="568" y="157"/>
      <point x="568" y="170" type="qcurve" smooth="yes"/>
      <point x="568" y="183"/>
      <point x="554" y="207"/>
      <point x="531" y="220"/>
      <point x="518" y="220" type="qcurve" smooth="yes"/>
      <point x="505" y="220"/>
      <point x="481" y="207"/>
      <point x="468" y="183"/>
    </contour>
    <contour>
      <point x="168" y="850" type="line" smooth="yes"/>
      <point x="168" y="955"/>
      <point x="466" y="1127"/>
      <point x="495" y="1154"/>
      <point x="495" y="1170" type="qcurve" smooth="yes"/>
      <point x="495" y="1186"/>
      <point x="473" y="1197"/>
      <point x="461" y="1197" type="qcurve" smooth="yes"/>
      <point x="438" y="1197"/>
      <point x="390" y="1165"/>
      <point x="359" y="1165" type="qcurve" smooth="yes"/>
      <point x="300" y="1165"/>
      <point x="230" y="1247"/>
      <point x="206" y="1345" type="qcurve" smooth="yes"/>
      <point x="165" y="1506"/>
      <point x="101" y="1614"/>
      <point x="9" y="1692" type="qcurve"/>
      <point x="156" y="1790" type="line"/>
      <point x="214" y="1747"/>
      <point x="301" y="1635"/>
      <point x="336" y="1567"/>
      <point x="346" y="1540"/>
      <point x="357" y="1498" type="qcurve" smooth="yes"/>
      <point x="368" y="1462"/>
      <point x="383" y="1393"/>
      <point x="395" y="1356"/>
      <point x="413" y="1328"/>
      <point x="430" y="1328" type="qcurve" smooth="yes"/>
      <point x="452" y="1328"/>
      <point x="500" y="1352"/>
      <point x="551" y="1352" type="qcurve" smooth="yes"/>
      <point x="602" y="1352"/>
      <point x="718" y="1280"/>
      <point x="718" y="1212" type="qcurve" smooth="yes"/>
      <point x="718" y="1115"/>
      <point x="456" y="933"/>
      <point x="456" y="850" type="qcurve" smooth="yes"/>
      <point x="456" y="306" type="line"/>
      <point x="486" y="320"/>
      <point x="518" y="320" type="qcurve" smooth="yes"/>
      <point x="556" y="320"/>
      <point x="627" y="281"/>
      <point x="668" y="209"/>
      <point x="668" y="170" type="qcurve" smooth="yes"/>
      <point x="668" y="87"/>
      <point x="625" y="45" type="qcurve" smooth="yes"/>
      <point x="580" y="0"/>
      <point x="488" y="0" type="qcurve" smooth="yes"/>
      <point x="334" y="0"/>
      <point x="254" y="70" type="qcurve" smooth="yes"/>
      <point x="168" y="144"/>
      <point x="168" y="300" type="qcurve" smooth="yes"/>
    </contour>
  </outline>
</glyph>
<glyph name="uni0EC6" format="1">
  <advance width="1315"/>
  <unicode hex="0EC6"/>
  <outline>
    <contour>
      <point x="415" y="796" type="qcurve" smooth="yes"/>
      <point x="376" y="796"/>
      <point x="376" y="727" type="qcurve" smooth="yes"/>
      <point x="376" y="658"/>
      <point x="415" y="658" type="qcurve" smooth="yes"/>
      <point x="454" y="658"/>
      <point x="454" y="727" type="qcurve" smooth="yes"/>
      <point x="454" y="796"/>
    </contour>
    <contour>
      <point x="392" y="1150" type="qcurve" smooth="yes"/>
      <point x="437" y="1150"/>
      <point x="517" y="1107"/>
      <point x="563" y="1078" type="qcurve" smooth="yes"/>
      <point x="606" y="1050"/>
      <point x="641" y="1050" type="qcurve" smooth="yes"/>
      <point x="644" y="1050" type="line" smooth="yes"/>
      <point x="679" y="1051"/>
      <point x="773" y="1108"/>
      <point x="836" y="1150"/>
      <point x="893" y="1150" type="qcurve" smooth="yes"/>
      <point x="1147" y="1150"/>
      <point x="1147" y="800" type="qcurve" smooth="yes"/>
      <point x="1147" y="-50" type="line" smooth="yes"/>
      <point x="1147" y="-420"/>
      <point x="692" y="-420" type="qcurve" smooth="yes"/>
      <point x="640" y="-420"/>
      <point x="497" y="-393"/>
      <point x="380" y="-336"/>
      <point x="282" y="-262"/>
      <point x="235" y="-223" type="qcurve"/>
      <point x="439" y="-79" type="line"/>
      <point x="525" y="-197"/>
      <point x="601" y="-293"/>
      <point x="692" y="-293" type="qcurve" smooth="yes"/>
      <point x="869" y="-293"/>
      <point x="869" y="-50" type="qcurve" smooth="yes"/>
      <point x="869" y="800" type="line"/>
      <point x="863" y="1006"/>
      <point x="847" y="1006" type="qcurve" smooth="yes"/>
      <point x="831" y="1006"/>
      <point x="765" y="957" type="qcurve" smooth="yes"/>
      <point x="703" y="911"/>
      <point x="646" y="911" type="qcurve" smooth="yes"/>
      <point x="642" y="911"/>
      <point x="638" y="912" type="qcurve" smooth="yes"/>
      <point x="577" y="915"/>
      <point x="447" y="1006"/>
      <point x="440" y="1006" type="qcurve" smooth="yes"/>
      <point x="433" y="1006"/>
      <point x="411" y="964" type="qcurve" smooth="yes"/>
      <point x="391" y="926"/>
      <point x="391" y="894" type="qcurve" smooth="yes"/>
      <point x="391" y="877" type="line"/>
      <point x="411" y="881"/>
      <point x="430" y="881" type="qcurve" smooth="yes"/>
      <point x="469" y="881"/>
      <point x="505" y="864" type="qcurve" smooth="yes"/>
      <point x="558" y="839"/>
      <point x="558" y="748" type="qcurve"/>
      <point x="548" y="568"/>
      <point x="375" y="566" type="qcurve"/>
      <point x="147" y="572"/>
      <point x="147" y="827" type="qcurve" smooth="yes"/>
      <point x="147" y="995"/>
      <point x="291" y="1150"/>
    </contour>
  </outline>
</glyph>
<glyph name="uni0EC8" format="1">
  <advance width="0"/>
  <unicode hex="0EC8"/>
  <outline>
    <contour>
      <point x="-719" y="2084" type="line"/>
      <point x="-525" y="2084" type="line"/>
      <point x="-525" y="1700" type="line"/>
      <point x="-719" y="1700" type="line"/>
    </contour>
  </outline>
</glyph>
<glyph name="uni0EC9" format="1">
  <advance width="0"/>
  <unicode hex="0EC9"/>
  <outline>
    <contour>
      <point x="-667" y="1959" type="qcurve"/>
      <point x="-660" y="1975"/>
      <point x="-660" y="1986" type="qcurve" smooth="yes"/>
      <point x="-660" y="1993"/>
      <point x="-663" y="1999" type="qcurve" smooth="yes"/>
      <point x="-675" y="2021"/>
      <point x="-697" y="2021" type="qcurve" smooth="yes"/>
      <point x="-701" y="2021"/>
      <point x="-706" y="2021" type="qcurve" smooth="yes"/>
      <point x="-725" y="2015"/>
      <point x="-726" y="1990" type="qcurve" smooth="yes"/>
      <point x="-727" y="1988"/>
      <point x="-727" y="1987" type="qcurve" smooth="yes"/>
      <point x="-727" y="1964"/>
      <point x="-711" y="1960" type="qcurve" smooth="yes"/>
      <point x="-697" y="1958"/>
      <point x="-682" y="1958" type="qcurve" smooth="yes"/>
      <point x="-675" y="1958"/>
    </contour>
    <contour>
      <point x="-802" y="1925" type="qcurve" smooth="yes"/>
      <point x="-834" y="1949"/>
      <point x="-834" y="1990" type="qcurve" smooth="yes"/>
      <point x="-834" y="1998" type="line"/>
      <point x="-830" y="2044"/>
      <point x="-786" y="2072" type="qcurve" smooth="yes"/>
      <point x="-750" y="2093"/>
      <point x="-703" y="2093" type="qcurve" smooth="yes"/>
      <point x="-693" y="2093"/>
      <point x="-682" y="2092" type="qcurve" smooth="yes"/>
      <point x="-561" y="2086"/>
      <point x="-539" y="2050" type="qcurve" smooth="yes"/>
      <point x="-519" y="2018"/>
      <point x="-519" y="1970" type="qcurve" smooth="yes"/>
      <point x="-519" y="1962" type="line" smooth="yes"/>
      <point x="-521" y="1908"/>
      <point x="-598" y="1834" type="qcurve"/>
      <point x="-520" y="1843"/>
      <point x="-392" y="1963"/>
      <point x="-351" y="2063" type="qcurve"/>
      <point x="-141" y="2010" type="line"/>
      <point x="-202" y="1903"/>
      <point x="-324" y="1805"/>
      <point x="-506" y="1740"/>
      <point x="-696" y="1740" type="qcurve" smooth="yes"/>
      <point x="-910" y="1740" type="line"/>
      <point x="-910" y="1819" type="line"/>
      <point x="-774" y="1843"/>
      <point x="-720" y="1897" type="qcurve"/>
      <point x="-772" y="1903"/>
    </contour>
  </outline>
</glyph>
<glyph name="uni0ECA" format="1">
  <advance width="0"/>
  <unicode hex="0ECA"/>
  <outline>
    <contour>
      <point x="-763" y="1710" type="qcurve"/>
      <point x="-859" y="1746"/>
      <point x="-943" y="1841"/>
      <point x="-943" y="1902" type="qcurve" smooth="yes"/>
      <point x="-943" y="1946"/>
      <point x="-894" y="2015"/>
      <point x="-841" y="2065"/>
      <point x="-769" y="2093"/>
      <point x="-717" y="2093" type="qcurve" smooth="yes"/>
      <point x="-690" y="2093"/>
      <point x="-632" y="2073"/>
      <point x="-558" y="2011"/>
      <point x="-543" y="1997" type="qcurve"/>
      <point x="-505" y="2024"/>
      <point x="-427" y="2084"/>
      <point x="-368" y="2093" type="qcurve"/>
      <point x="-321" y="2093"/>
      <point x="-238" y="2060"/>
      <point x="-191" y="2011"/>
      <point x="-178" y="1987" type="qcurve" smooth="yes"/>
      <point x="-167" y="1965"/>
      <point x="-167" y="1935" type="qcurve" smooth="yes"/>
      <point x="-167" y="1927" type="line"/>
      <point x="-132" y="1970"/>
      <point x="-112" y="2025"/>
      <point x="-95" y="2080" type="qcurve"/>
      <point x="-54" y="2079"/>
      <point x="-8" y="2053"/>
      <point x="9" y="2028" type="qcurve" smooth="yes"/>
      <point x="10" y="2023"/>
      <point x="10" y="2018" type="qcurve" smooth="yes"/>
      <point x="10" y="1963"/>
      <point x="-18" y="1918" type="qcurve" smooth="yes"/>
      <point x="-49" y="1867"/>
      <point x="-138" y="1798"/>
      <point x="-253" y="1730"/>
      <point x="-318" y="1718" type="qcurve" smooth="yes"/>
      <point x="-324" y="1719"/>
      <point x="-329" y="1720" type="qcurve" smooth="yes"/>
      <point x="-387" y="1790" type="line"/>
      <point x="-352" y="1810"/>
      <point x="-317" y="1870"/>
      <point x="-316" y="1898" type="qcurve" smooth="yes"/>
      <point x="-316" y="1928"/>
      <point x="-351" y="1983"/>
      <point x="-379" y="1983" type="qcurve" smooth="yes"/>
      <point x="-407" y="1983"/>
      <point x="-520" y="1849"/>
      <point x="-546" y="1849" type="qcurve" smooth="yes"/>
      <point x="-570" y="1849"/>
      <point x="-683" y="1981"/>
      <point x="-707" y="1981" type="qcurve" smooth="yes"/>
      <point x="-732" y="1981"/>
      <point x="-769" y="1919"/>
      <point x="-769" y="1885" type="qcurve" smooth="yes"/>
      <point x="-769" y="1858"/>
      <point x="-729" y="1806"/>
      <point x="-701" y="1792" type="qcurve"/>
      <point x="-747" y="1715" type="line"/>
      <point x="-755" y="1713"/>
    </contour>
  </outline>
</glyph>
<glyph name="uni0ECB" format="1">
  <advance width="0"/>
  <unicode hex="0ECB"/>
  <outline>
    <contour>
      <point x="-573" y="1700" type="line"/>
      <point x="-573" y="1830" type="line"/>
      <point x="-707" y="1830" type="line"/>
      <point x="-707" y="1950" type="line"/>
      <point x="-573" y="1950" type="line"/>
      <point x="-573" y="2080" type="line"/>
      <point x="-390" y="2080" type="line"/>
      <point x="-390" y="1950" type="line"/>
      <point x="-257" y="1950" type="line"/>
      <point x="-257" y="1830" type="line"/>
      <point x="-390" y="1830" type="line"/>
      <point x="-390" y="1700" type="line"/>
    </contour>
  </outline>
</glyph>
<glyph name="uni0ECC" format="1">
  <advance width="0"/>
  <unicode hex="0ECC"/>
  <outline>
    <contour>
      <point x="-718" y="1823" type="qcurve" smooth="yes"/>
      <point x="-720" y="1836"/>
      <point x="-720" y="1846" type="qcurve" smooth="yes"/>
      <point x="-720" y="1887"/>
      <point x="-697" y="1916" type="qcurve" smooth="yes"/>
      <point x="-669" y="1953"/>
      <point x="-627" y="1966" type="qcurve" smooth="yes"/>
      <point x="-600" y="1974"/>
      <point x="-554" y="1974" type="qcurve" smooth="yes"/>
      <point x="-528" y="1974"/>
      <point x="-497" y="1972" type="qcurve" smooth="yes"/>
      <point x="-480" y="1970"/>
      <point x="-463" y="1970" type="qcurve" smooth="yes"/>
      <point x="-425" y="1970"/>
      <point x="-325" y="2023"/>
      <point x="-295" y="2085" type="qcurve"/>
      <point x="-160" y="1988" type="line"/>
      <point x="-193" y="1930"/>
      <point x="-248" y="1901" type="qcurve" smooth="yes"/>
      <point x="-298" y="1874"/>
      <point x="-386" y="1874" type="qcurve" smooth="yes"/>
      <point x="-401" y="1874" type="line"/>
      <point x="-399" y="1864"/>
      <point x="-399" y="1851" type="qcurve" smooth="yes"/>
      <point x="-399" y="1831"/>
      <point x="-404" y="1804" type="qcurve" smooth="yes"/>
      <point x="-414" y="1760"/>
      <point x="-488" y="1710"/>
      <point x="-555" y="1710" type="qcurve" smooth="yes"/>
      <point x="-622" y="1710"/>
      <point x="-710" y="1768"/>
    </contour>
    <contour>
      <point x="-565" y="1817" type="qcurve" smooth="yes"/>
      <point x="-555" y="1810"/>
      <point x="-543" y="1810" type="qcurve" smooth="yes"/>
      <point x="-539" y="1810"/>
      <point x="-535" y="1810" type="qcurve" smooth="yes"/>
      <point x="-518" y="1814"/>
      <point x="-509" y="1826" type="qcurve" smooth="yes"/>
      <point x="-502" y="1835"/>
      <point x="-502" y="1846" type="qcurve" smooth="yes"/>
      <point x="-502" y="1850"/>
      <point x="-503" y="1853" type="qcurve" smooth="yes"/>
      <point x="-506" y="1868"/>
      <point x="-519" y="1877" type="qcurve" smooth="yes"/>
      <point x="-529" y="1883"/>
      <point x="-540" y="1883" type="qcurve" smooth="yes"/>
      <point x="-545" y="1883"/>
      <point x="-549" y="1883" type="qcurve" smooth="yes"/>
      <point x="-565" y="1880"/>
      <point x="-574" y="1868" type="qcurve" smooth="yes"/>
      <point x="-581" y="1858"/>
      <point x="-581" y="1846" type="qcurve" smooth="yes"/>
      <point x="-581" y="1843"/>
      <point x="-580" y="1839" type="qcurve" smooth="yes"/>
      <point x="-578" y="1825"/>
    </contour>
  </outline>
</glyph>
<glyph name="uni0ECD" format="1">
  <advance width="0"/>
  <unicode hex="0ECD"/>
  <outline>
    <contour>
      <point x="-553" y="1945"/>
      <point x="-567" y="1911"/>
      <point x="-567" y="1892" type="qcurve" smooth="yes"/>
      <point x="-567" y="1872"/>
      <point x="-553" y="1838"/>
      <point x="-529" y="1819"/>
      <point x="-517" y="1819" type="qcurve" smooth="yes"/>
      <point x="-504" y="1819"/>
      <point x="-480" y="1838"/>
      <point x="-467" y="1872"/>
      <point x="-467" y="1892" type="qcurve" smooth="yes"/>
      <point x="-467" y="1911"/>
      <point x="-480" y="1945"/>
      <point x="-504" y="1964"/>
      <point x="-517" y="1964" type="qcurve" smooth="yes"/>
      <point x="-529" y="1964"/>
    </contour>
    <contour>
      <point x="-517" y="2073" type="qcurve" smooth="yes"/>
      <point x="-460" y="2073"/>
      <point x="-353" y="2026"/>
      <point x="-292" y="1939"/>
      <point x="-292" y="1892" type="qcurve" smooth="yes"/>
      <point x="-292" y="1844"/>
      <point x="-350" y="1758"/>
      <point x="-458" y="1710"/>
      <point x="-517" y="1710" type="qcurve" smooth="yes"/>
      <point x="-574" y="1710"/>
      <point x="-682" y="1758"/>
      <point x="-742" y="1844"/>
      <point x="-742" y="1892" type="qcurve" smooth="yes"/>
      <point x="-742" y="1939"/>
      <point x="-681" y="2026"/>
      <point x="-573" y="2073"/>
    </contour>
  </outline>
</glyph>
<glyph name="uni0ED0" format="1">
  <advance width="1294"/>
  <unicode hex="0ED0"/>
  <outline>
    <contour>
      <point x="647" y="1006" type="qcurve" smooth="yes"/>
      <point x="541" y="1006"/>
      <point x="435" y="791"/>
      <point x="435" y="575" type="qcurve" smooth="yes"/>
      <point x="435" y="360"/>
      <point x="541" y="144"/>
      <point x="647" y="144" type="qcurve" smooth="yes"/>
      <point x="753" y="144"/>
      <point x="859" y="360"/>
      <point x="859" y="575" type="qcurve" smooth="yes"/>
      <point x="859" y="791"/>
      <point x="753" y="1006"/>
    </contour>
    <contour>
      <point x="647" y="0" type="qcurve" smooth="yes"/>
      <point x="422" y="0"/>
      <point x="147" y="288"/>
      <point x="147" y="575" type="qcurve" smooth="yes"/>
      <point x="147" y="863"/>
      <point x="422" y="1150"/>
      <point x="647" y="1150" type="qcurve" smooth="yes"/>
      <point x="872" y="1150"/>
      <point x="1147" y="863"/>
      <point x="1147" y="575" type="qcurve" smooth="yes"/>
      <point x="1147" y="288"/>
      <point x="872" y="0"/>
    </contour>
  </outline>
</glyph>
<glyph name="uni0ED1" format="1">
  <advance width="1394"/>
  <unicode hex="0ED1"/>
  <outline>
    <contour>
      <point x="752" y="651" type="qcurve" smooth="yes"/>
      <point x="752" y="682"/>
      <point x="720" y="727"/>
      <point x="699" y="727" type="qcurve" smooth="yes"/>
      <point x="676" y="727"/>
      <point x="645" y="682"/>
      <point x="645" y="651" type="qcurve" smooth="yes"/>
      <point x="645" y="618"/>
      <point x="676" y="576"/>
      <point x="699" y="576" type="qcurve" smooth="yes"/>
      <point x="720" y="576"/>
      <point x="752" y="618"/>
    </contour>
    <contour>
      <point x="546" y="0" type="qcurve"/>
      <point x="464" y="100" type="line"/>
      <point x="772" y="141"/>
      <point x="969" y="410"/>
      <point x="969" y="600" type="qcurve" smooth="yes"/>
      <point x="969" y="812"/>
      <point x="834" y="1006"/>
      <point x="664" y="1006" type="qcurve" smooth="yes"/>
      <point x="577" y="1006"/>
      <point x="435" y="888"/>
      <point x="435" y="765" type="qcurve" smooth="yes"/>
      <point x="435" y="633"/>
      <point x="524" y="546"/>
      <point x="580" y="538" type="qcurve"/>
      <point x="529" y="571"/>
      <point x="508" y="651"/>
      <point x="508" y="668" type="qcurve" smooth="yes"/>
      <point x="516" y="731"/>
      <point x="563" y="804"/>
      <point x="640" y="851"/>
      <point x="684" y="851" type="qcurve" smooth="yes"/>
      <point x="728" y="851"/>
      <point x="818" y="804"/>
      <point x="882" y="707"/>
      <point x="882" y="645" type="qcurve" smooth="yes"/>
      <point x="882" y="571"/>
      <point x="813" y="476"/>
      <point x="732" y="421"/>
      <point x="665" y="401"/>
      <point x="605" y="396" type="qcurve" smooth="yes"/>
      <point x="596" y="395"/>
      <point x="586" y="395" type="qcurve" smooth="yes"/>
      <point x="481" y="395"/>
      <point x="405" y="418" type="qcurve" smooth="yes"/>
      <point x="315" y="445"/>
      <point x="198" y="548"/>
      <point x="147" y="684"/>
      <point x="147" y="757" type="qcurve" smooth="yes"/>
      <point x="147" y="936"/>
      <point x="393" y="1150"/>
      <point x="664" y="1150" type="qcurve" smooth="yes"/>
      <point x="968" y="1150"/>
      <point x="1247" y="887"/>
      <point x="1247" y="600" type="qcurve" smooth="yes"/>
      <point x="1247" y="326"/>
      <point x="873" y="25"/>
    </contour>
  </outline>
</glyph>
<glyph name="uni0ED2" format="1">
  <advance width="1239"/>
  <unicode hex="0ED2"/>
  <outline>
    <contour>
      <point x="1157" y="1334" type="line"/>
      <point x="1057" y="1157"/>
      <point x="435" y="745"/>
      <point x="435" y="541" type="qcurve" smooth="yes"/>
      <point x="435" y="455"/>
      <point x="465" y="319"/>
      <point x="605" y="144"/>
      <point x="691" y="144" type="qcurve" smooth="yes"/>
      <point x="761" y="144"/>
      <point x="814" y="158" type="qcurve"/>
      <point x="768" y="203"/>
      <point x="739" y="244"/>
      <point x="720" y="287"/>
      <point x="720" y="305" type="qcurve" smooth="yes"/>
      <point x="720" y="365"/>
      <point x="766" y="438"/>
      <point x="836" y="479"/>
      <point x="876" y="486" type="qcurve" smooth="yes"/>
      <point x="906" y="490"/>
      <point x="933" y="490" type="qcurve" smooth="yes"/>
      <point x="949" y="490" type="line" smooth="yes"/>
      <point x="995" y="488"/>
      <point x="1067" y="453"/>
      <point x="1117" y="399"/>
      <point x="1146" y="332"/>
      <point x="1146" y="299" type="qcurve" smooth="yes"/>
      <point x="1146" y="260"/>
      <point x="1140" y="211"/>
      <point x="1103" y="134"/>
      <point x="1016" y="66" type="qcurve"/>
      <point x="923" y="23"/>
      <point x="816" y="0"/>
      <point x="691" y="0" type="qcurve" smooth="yes"/>
      <point x="437" y="0"/>
      <point x="147" y="275"/>
      <point x="147" y="541" type="qcurve" smooth="yes"/>
      <point x="147" y="639"/>
      <point x="198" y="782"/>
      <point x="377" y="937"/>
      <point x="622" y="1078" type="qcurve" smooth="yes"/>
      <point x="882" y="1224"/>
      <point x="1038" y="1348"/>
      <point x="1117" y="1459" type="qcurve"/>
    </contour>
    <contour>
      <point x="970" y="369"/>
      <point x="939" y="369" type="qcurve" smooth="yes"/>
      <point x="907" y="369"/>
      <point x="863" y="326"/>
      <point x="863" y="295" type="qcurve" smooth="yes"/>
      <point x="863" y="266"/>
      <point x="907" y="223"/>
      <point x="939" y="223" type="qcurve" smooth="yes"/>
      <point x="970" y="223"/>
      <point x="1016" y="266"/>
      <point x="1016" y="295" type="qcurve" smooth="yes"/>
      <point x="1016" y="326"/>
    </contour>
  </outline>
</glyph>
<glyph name="uni0ED3" format="1">
  <advance width="1493"/>
  <unicode hex="0ED3"/>
  <outline>
    <contour>
      <point x="243" y="158" type="qcurve" smooth="yes"/>
      <point x="305" y="158"/>
      <point x="305" y="220" type="qcurve" smooth="yes"/>
      <point x="305" y="281"/>
      <point x="243" y="281" type="qcurve" smooth="yes"/>
      <point x="182" y="281"/>
      <point x="182" y="220" type="qcurve" smooth="yes"/>
      <point x="182" y="158"/>
    </contour>
    <contour>
      <point x="1087" y="1028" type="line" smooth="yes"/>
      <point x="1087" y="1071"/>
      <point x="933" y="1194"/>
      <point x="631" y="1324"/>
      <point x="549" y="1438"/>
      <point x="549" y="1496" type="qcurve" smooth="yes"/>
      <point x="549" y="1573"/>
      <point x="638" y="1649"/>
      <point x="704" y="1649" type="qcurve" smooth="yes"/>
      <point x="827" y="1649"/>
      <point x="939" y="1593" type="qcurve" smooth="yes"/>
      <point x="1385" y="1382" type="line"/>
      <point x="1312" y="1274" type="line"/>
      <point x="890" y="1478" type="line" smooth="yes"/>
      <point x="857" y="1498"/>
      <point x="820" y="1498" type="qcurve" smooth="yes"/>
      <point x="803" y="1498"/>
      <point x="784" y="1466"/>
      <point x="784" y="1455" type="qcurve" smooth="yes"/>
      <point x="784" y="1437"/>
      <point x="814" y="1399"/>
      <point x="836" y="1384" type="qcurve"/>
      <point x="1209" y="1223" type="line"/>
      <point x="1340" y="1160"/>
      <point x="1375" y="1024" type="qcurve"/>
      <point x="1375" y="380" type="line" smooth="yes"/>
      <point x="1375" y="190"/>
      <point x="1095" y="0"/>
      <point x="900" y="0" type="qcurve" smooth="yes"/>
      <point x="715" y="0"/>
      <point x="590" y="95" type="qcurve"/>
      <point x="589" y="96" type="line"/>
      <point x="511" y="0"/>
      <point x="340" y="0" type="qcurve" smooth="yes"/>
      <point x="82" y="0"/>
      <point x="82" y="220" type="qcurve" smooth="yes"/>
      <point x="82" y="382"/>
      <point x="243" y="382" type="qcurve" smooth="yes"/>
      <point x="405" y="382"/>
      <point x="415" y="222" type="qcurve"/>
      <point x="415" y="1150" type="line"/>
      <point x="703" y="1150" type="line"/>
      <point x="703" y="380" type="line" smooth="yes"/>
      <point x="703" y="257"/>
      <point x="799" y="144"/>
      <point x="900" y="144" type="qcurve" smooth="yes"/>
      <point x="1001" y="144"/>
      <point x="1087" y="257"/>
      <point x="1087" y="380" type="qcurve" smooth="yes"/>
    </contour>
  </outline>
</glyph>
<glyph name="uni0ED4" format="1">
  <advance width="1404"/>
  <unicode hex="0ED4"/>
  <outline>
    <contour>
      <point x="1088" y="623" type="qcurve" smooth="yes"/>
      <point x="1035" y="623"/>
      <point x="1035" y="568" type="qcurve" smooth="yes"/>
      <point x="1035" y="503"/>
      <point x="1088" y="503" type="qcurve" smooth="yes"/>
      <point x="1150" y="503"/>
      <point x="1150" y="568" type="qcurve" smooth="yes"/>
      <point x="1150" y="623"/>
    </contour>
    <contour>
      <point x="1081" y="97" type="qcurve" smooth="yes"/>
      <point x="1137" y="97"/>
      <point x="1137" y="142" type="qcurve" smooth="yes"/>
      <point x="1137" y="187"/>
      <point x="1073" y="187" type="qcurve" smooth="yes"/>
      <point x="1070" y="187" type="line" smooth="yes"/>
      <point x="1047" y="187"/>
      <point x="1035" y="185" type="qcurve"/>
      <point x="1035" y="181" type="line" smooth="yes"/>
      <point x="1035" y="97"/>
    </contour>
    <contour>
      <point x="1167" y="1346" type="qcurve" smooth="yes"/>
      <point x="1150" y="1309"/>
      <point x="1098" y="1235"/>
      <point x="1028" y="1172"/>
      <point x="468" y="872"/>
      <point x="435" y="682"/>
      <point x="435" y="500" type="qcurve" smooth="yes"/>
      <point x="435" y="385"/>
      <point x="450" y="265" type="qcurve" smooth="yes"/>
      <point x="465" y="144"/>
      <point x="517" y="144" type="qcurve" smooth="yes"/>
      <point x="583" y="144"/>
      <point x="684" y="231"/>
      <point x="747" y="289" type="qcurve"/>
      <point x="747" y="568" type="line" smooth="yes"/>
      <point x="747" y="743"/>
      <point x="1069" y="743" type="qcurve" smooth="yes"/>
      <point x="1257" y="743"/>
      <point x="1257" y="568" type="qcurve" smooth="yes"/>
      <point x="1257" y="393"/>
      <point x="1069" y="393" type="qcurve" smooth="yes"/>
      <point x="1047" y="393"/>
      <point x="1035" y="396" type="qcurve"/>
      <point x="1035" y="291" type="line"/>
      <point x="1048" y="293"/>
      <point x="1070" y="293" type="qcurve" smooth="yes"/>
      <point x="1233" y="293"/>
      <point x="1233" y="146" type="qcurve" smooth="yes"/>
      <point x="1233" y="0"/>
      <point x="1081" y="0" type="qcurve" smooth="yes"/>
      <point x="840" y="0"/>
      <point x="747" y="125" type="qcurve"/>
      <point x="682" y="67"/>
      <point x="583" y="0"/>
      <point x="514" y="0" type="qcurve" smooth="yes"/>
      <point x="278" y="0"/>
      <point x="147" y="279"/>
      <point x="147" y="500" type="qcurve" smooth="yes"/>
      <point x="147" y="682"/>
      <point x="166" y="761" type="qcurve" smooth="yes"/>
      <point x="186" y="844"/>
      <point x="284" y="1012"/>
      <point x="384" y="1061" type="qcurve"/>
      <point x="904" y="1276" type="line" smooth="yes"/>
      <point x="930" y="1289"/>
      <point x="972" y="1327"/>
      <point x="1005" y="1370"/>
      <point x="1028" y="1409"/>
      <point x="1034" y="1420" type="qcurve" smooth="yes"/>
      <point x="1047" y="1442"/>
      <point x="1061" y="1455" type="qcurve"/>
      <point x="1179" y="1383" type="line"/>
      <point x="1175" y="1366"/>
    </contour>
  </outline>
</glyph>
<glyph name="uni0ED5" format="1">
  <advance width="1404"/>
  <unicode hex="0ED5"/>
  <outline>
    <contour>
      <point x="829" y="1274" type="qcurve" smooth="yes"/>
      <point x="829" y="1305"/>
      <point x="785" y="1346"/>
      <point x="751" y="1346" type="qcurve" smooth="yes"/>
      <point x="720" y="1346"/>
      <point x="674" y="1305"/>
      <point x="674" y="1274" type="qcurve"/>
      <point x="686" y="1207"/>
      <point x="780" y="1206" type="qcurve"/>
      <point x="829" y="1233"/>
    </contour>
    <contour>
      <point x="1088" y="623" type="qcurve" smooth="yes"/>
      <point x="1035" y="623"/>
      <point x="1035" y="568" type="qcurve" smooth="yes"/>
      <point x="1035" y="503"/>
      <point x="1088" y="503" type="qcurve" smooth="yes"/>
      <point x="1150" y="503"/>
      <point x="1150" y="568" type="qcurve" smooth="yes"/>
      <point x="1150" y="623"/>
    </contour>
    <contour>
      <point x="1081" y="97" type="qcurve" smooth="yes"/>
      <point x="1137" y="97"/>
      <point x="1137" y="142" type="qcurve" smooth="yes"/>
      <point x="1137" y="187"/>
      <point x="1073" y="187" type="qcurve" smooth="yes"/>
      <point x="1070" y="187" type="line" smooth="yes"/>
      <point x="1047" y="187"/>
      <point x="1035" y="185" type="qcurve"/>
      <point x="1035" y="181" type="line" smooth="yes"/>
      <point x="1035" y="97"/>
    </contour>
    <contour>
      <point x="1213" y="1403" type="line" smooth="yes"/>
      <point x="1213" y="1374"/>
      <point x="1129" y="1199"/>
      <point x="983" y="1094"/>
      <point x="829" y="1094" type="qcurve"/>
      <point x="816" y="1053"/>
      <point x="736" y="1020" type="qcurve" smooth="yes"/>
      <point x="513" y="917"/>
      <point x="435" y="682"/>
      <point x="435" y="500" type="qcurve" smooth="yes"/>
      <point x="435" y="385"/>
      <point x="450" y="265" type="qcurve" smooth="yes"/>
      <point x="465" y="144"/>
      <point x="517" y="144" type="qcurve" smooth="yes"/>
      <point x="583" y="144"/>
      <point x="684" y="231"/>
      <point x="747" y="289" type="qcurve"/>
      <point x="747" y="568" type="line" smooth="yes"/>
      <point x="747" y="743"/>
      <point x="1069" y="743" type="qcurve" smooth="yes"/>
      <point x="1257" y="743"/>
      <point x="1257" y="568" type="qcurve" smooth="yes"/>
      <point x="1257" y="393"/>
      <point x="1069" y="393" type="qcurve" smooth="yes"/>
      <point x="1047" y="393"/>
      <point x="1035" y="396" type="qcurve"/>
      <point x="1035" y="291" type="line"/>
      <point x="1048" y="293"/>
      <point x="1070" y="293" type="qcurve" smooth="yes"/>
      <point x="1233" y="293"/>
      <point x="1233" y="146" type="qcurve" smooth="yes"/>
      <point x="1233" y="0"/>
      <point x="1081" y="0" type="qcurve" smooth="yes"/>
      <point x="840" y="0"/>
      <point x="747" y="125" type="qcurve"/>
      <point x="682" y="67"/>
      <point x="583" y="0"/>
      <point x="514" y="0" type="qcurve" smooth="yes"/>
      <point x="278" y="0"/>
      <point x="147" y="279"/>
      <point x="147" y="500" type="qcurve" smooth="yes"/>
      <point x="147" y="682"/>
      <point x="166" y="761" type="qcurve" smooth="yes"/>
      <point x="186" y="844"/>
      <point x="393" y="1044"/>
      <point x="655" y="1127" type="qcurve"/>
      <point x="613" y="1139"/>
      <point x="565" y="1190"/>
      <point x="538" y="1245"/>
      <point x="536" y="1272" type="qcurve" smooth="yes"/>
      <point x="534" y="1284"/>
      <point x="534" y="1294" type="qcurve" smooth="yes"/>
      <point x="534" y="1305"/>
      <point x="536" y="1313" type="qcurve" smooth="yes"/>
      <point x="543" y="1356"/>
      <point x="587" y="1415"/>
      <point x="646" y="1450"/>
      <point x="716" y="1467"/>
      <point x="749" y="1467" type="qcurve" smooth="yes"/>
      <point x="824" y="1467"/>
      <point x="910" y="1411"/>
      <point x="949" y="1340"/>
      <point x="954" y="1309" type="qcurve"/>
      <point x="954" y="1299" type="line" smooth="yes"/>
      <point x="954" y="1269"/>
      <point x="933" y="1218" type="qcurve"/>
      <point x="986" y="1234"/>
      <point x="1029" y="1294" type="qcurve" smooth="yes"/>
      <point x="1070" y="1351"/>
      <point x="1070" y="1395" type="qcurve" smooth="yes"/>
      <point x="1070" y="1405" type="line" smooth="yes"/>
      <point x="1070" y="1430"/>
      <point x="1078" y="1443" type="qcurve"/>
      <point x="1213" y="1405" type="line"/>
    </contour>
  </outline>
</glyph>
<glyph name="uni0ED6" format="1">
  <advance width="1483"/>
  <unicode hex="0ED6"/>
  <outline>
    <contour>
      <point x="740" y="417" type="qcurve"/>
      <point x="769" y="469"/>
      <point x="769" y="510" type="qcurve" smooth="yes"/>
      <point x="769" y="557"/>
      <point x="758" y="615"/>
      <point x="740" y="615" type="qcurve" smooth="yes"/>
      <point x="722" y="615"/>
      <point x="711" y="557"/>
      <point x="711" y="510" type="qcurve" smooth="yes"/>
      <point x="711" y="469"/>
    </contour>
    <contour>
      <point x="587" y="864" type="qcurve" smooth="yes"/>
      <point x="549" y="827"/>
      <point x="511" y="827" type="qcurve" smooth="yes"/>
      <point x="473" y="827"/>
      <point x="456" y="843" type="qcurve"/>
      <point x="456" y="363" type="line" smooth="yes"/>
      <point x="456" y="157"/>
      <point x="485" y="144" type="qcurve"/>
      <point x="526" y="144"/>
      <point x="574" y="174"/>
      <point x="646" y="252"/>
      <point x="683" y="324" type="qcurve"/>
      <point x="654" y="370"/>
      <point x="621" y="455"/>
      <point x="615" y="530" type="qcurve"/>
      <point x="615" y="549" type="line" smooth="yes"/>
      <point x="615" y="625"/>
      <point x="650" y="669" type="qcurve" smooth="yes"/>
      <point x="684" y="712"/>
      <point x="740" y="712" type="qcurve" smooth="yes"/>
      <point x="796" y="712"/>
      <point x="830" y="669" type="qcurve" smooth="yes"/>
      <point x="865" y="625"/>
      <point x="865" y="549" type="qcurve" smooth="yes"/>
      <point x="865" y="530" type="line"/>
      <point x="859" y="455"/>
      <point x="826" y="370"/>
      <point x="797" y="324" type="qcurve"/>
      <point x="834" y="252"/>
      <point x="906" y="174"/>
      <point x="954" y="144"/>
      <point x="995" y="144" type="qcurve"/>
      <point x="1024" y="157"/>
      <point x="1024" y="363" type="qcurve" smooth="yes"/>
      <point x="1024" y="931" type="line" smooth="yes"/>
      <point x="1024" y="991"/>
      <point x="802" y="1212"/>
      <point x="749" y="1281"/>
      <point x="737" y="1324"/>
      <point x="737" y="1348" type="qcurve" smooth="yes"/>
      <point x="737" y="1400"/>
      <point x="812" y="1481"/>
      <point x="874" y="1481" type="qcurve" smooth="yes"/>
      <point x="941" y="1481"/>
      <point x="1120" y="1400"/>
      <point x="1315" y="1297" type="qcurve"/>
      <point x="1246" y="1197" type="line"/>
      <point x="1021" y="1326" type="line" smooth="yes"/>
      <point x="975" y="1352"/>
      <point x="952" y="1352" type="qcurve" smooth="yes"/>
      <point x="936" y="1352"/>
      <point x="918" y="1332"/>
      <point x="918" y="1322" type="qcurve" smooth="yes"/>
      <point x="918" y="1305"/>
      <point x="946" y="1270"/>
      <point x="967" y="1256" type="qcurve" smooth="yes"/>
      <point x="1220" y="1073" type="line"/>
      <point x="1282" y="1034"/>
      <point x="1312" y="927" type="qcurve"/>
      <point x="1312" y="363" type="line" smooth="yes"/>
      <point x="1312" y="16"/>
      <point x="986" y="0" type="qcurve" smooth="yes"/>
      <point x="933" y="0"/>
      <point x="810" y="90"/>
      <point x="783" y="126" type="qcurve" smooth="yes"/>
      <point x="764" y="151"/>
      <point x="750" y="177" type="qcurve" smooth="yes"/>
      <point x="740" y="194" type="line"/>
      <point x="730" y="177" type="line" smooth="yes"/>
      <point x="716" y="151"/>
      <point x="697" y="126" type="qcurve" smooth="yes"/>
      <point x="670" y="90"/>
      <point x="547" y="0"/>
      <point x="494" y="0" type="qcurve" smooth="yes"/>
      <point x="168" y="16"/>
      <point x="168" y="363" type="qcurve" smooth="yes"/>
      <point x="168" y="849" type="line" smooth="yes"/>
      <point x="168" y="1026"/>
      <point x="254" y="1099" type="qcurve" smooth="yes"/>
      <point x="311" y="1148"/>
      <point x="456" y="1150" type="qcurve" smooth="yes"/>
      <point x="542" y="1149"/>
      <point x="585" y="1109" type="qcurve" smooth="yes"/>
      <point x="629" y="1069"/>
      <point x="629" y="989" type="qcurve" smooth="yes"/>
      <point x="629" y="904"/>
    </contour>
    <contour>
      <point x="431" y="1044" type="qcurve" smooth="yes"/>
      <point x="414" y="1027"/>
      <point x="414" y="989" type="qcurve" smooth="yes"/>
      <point x="414" y="922"/>
      <point x="469" y="922" type="qcurve" smooth="yes"/>
      <point x="495" y="922"/>
      <point x="509" y="937" type="qcurve" smooth="yes"/>
      <point x="524" y="953"/>
      <point x="524" y="989" type="qcurve" smooth="yes"/>
      <point x="524" y="1024"/>
      <point x="509" y="1041" type="qcurve" smooth="yes"/>
      <point x="495" y="1057"/>
      <point x="469" y="1057" type="qcurve" smooth="yes"/>
      <point x="445" y="1057"/>
    </contour>
  </outline>
</glyph>
<glyph name="uni0ED7" format="1">
  <advance width="1496"/>
  <unicode hex="0ED7"/>
  <outline>
    <contour>
      <point x="198" y="191" type="qcurve" smooth="yes"/>
      <point x="198" y="116"/>
      <point x="273" y="116" type="qcurve" smooth="yes"/>
      <point x="349" y="116"/>
      <point x="349" y="191" type="qcurve" smooth="yes"/>
      <point x="349" y="267"/>
      <point x="273" y="267" type="qcurve" smooth="yes"/>
      <point x="198" y="267"/>
    </contour>
    <contour>
      <point x="340" y="895" type="qcurve"/>
      <point x="340" y="918" type="line" smooth="yes"/>
      <point x="340" y="1036"/>
      <point x="268" y="1036" type="qcurve" smooth="yes"/>
      <point x="198" y="1036"/>
      <point x="198" y="965" type="qcurve" smooth="yes"/>
      <point x="198" y="894"/>
      <point x="311" y="894" type="qcurve" smooth="yes"/>
      <point x="326" y="894"/>
    </contour>
    <contour>
      <point x="340" y="780" type="line"/>
      <point x="313" y="780" type="line" smooth="yes"/>
      <point x="189" y="780"/>
      <point x="132" y="833" type="qcurve" smooth="yes"/>
      <point x="82" y="879"/>
      <point x="82" y="965" type="qcurve" smooth="yes"/>
      <point x="82" y="1059"/>
      <point x="131" y="1105" type="qcurve" smooth="yes"/>
      <point x="179" y="1150"/>
      <point x="273" y="1150" type="qcurve" smooth="yes"/>
      <point x="575" y="1150"/>
      <point x="617" y="1009" type="qcurve"/>
      <point x="728" y="1150"/>
      <point x="949" y="1150" type="qcurve" smooth="yes"/>
      <point x="1133" y="1150"/>
      <point x="1328" y="1004"/>
      <point x="1328" y="830" type="qcurve" smooth="yes"/>
      <point x="1328" y="-170" type="line" smooth="yes"/>
      <point x="1328" y="-250"/>
      <point x="1381" y="-310" type="qcurve"/>
      <point x="1147" y="-400" type="line"/>
      <point x="1040" y="-300"/>
      <point x="1040" y="-190" type="qcurve" smooth="yes"/>
      <point x="1040" y="830" type="line" smooth="yes"/>
      <point x="1040" y="919"/>
      <point x="938" y="1006"/>
      <point x="853" y="1006" type="qcurve" smooth="yes"/>
      <point x="758" y="1006"/>
      <point x="661" y="883" type="qcurve"/>
      <point x="628" y="835" type="line"/>
      <point x="628" y="260" type="line" smooth="yes"/>
      <point x="628" y="123"/>
      <point x="557" y="58" type="qcurve" smooth="yes"/>
      <point x="494" y="0"/>
      <point x="273" y="0" type="qcurve" smooth="yes"/>
      <point x="171" y="0"/>
      <point x="124" y="54" type="qcurve" smooth="yes"/>
      <point x="82" y="102"/>
      <point x="82" y="191" type="qcurve" smooth="yes"/>
      <point x="82" y="281"/>
      <point x="124" y="328" type="qcurve" smooth="yes"/>
      <point x="172" y="382"/>
      <point x="273" y="382" type="qcurve" smooth="yes"/>
      <point x="310" y="382"/>
      <point x="340" y="375" type="qcurve"/>
    </contour>
  </outline>
</glyph>
<glyph name="uni0ED8" format="1">
  <advance width="1386"/>
  <unicode hex="0ED8"/>
  <outline>
    <contour>
      <point x="887" y="-421" type="qcurve" smooth="yes"/>
      <point x="887" y="-437"/>
      <point x="910" y="-467"/>
      <point x="953" y="-483"/>
      <point x="976" y="-483" type="qcurve" smooth="yes"/>
      <point x="998" y="-483"/>
      <point x="1040" y="-467"/>
      <point x="1064" y="-437"/>
      <point x="1064" y="-421" type="qcurve" smooth="yes"/>
      <point x="1064" y="-406"/>
      <point x="1040" y="-375"/>
      <point x="998" y="-360"/>
      <point x="976" y="-360" type="qcurve" smooth="yes"/>
      <point x="953" y="-360"/>
      <point x="910" y="-375"/>
      <point x="887" y="-406"/>
    </contour>
    <contour>
      <point x="591" y="131" type="qcurve" smooth="yes"/>
      <point x="613" y="150"/>
      <point x="613" y="191" type="qcurve" smooth="yes"/>
      <point x="613" y="227"/>
      <point x="596" y="246" type="qcurve" smooth="yes"/>
      <point x="577" y="267"/>
      <point x="538" y="267" type="qcurve" smooth="yes"/>
      <point x="462" y="267"/>
      <point x="462" y="191" type="qcurve" smooth="yes"/>
      <point x="462" y="146"/>
      <point x="489" y="128" type="qcurve" smooth="yes"/>
      <point x="507" y="116"/>
      <point x="538" y="116" type="qcurve" smooth="yes"/>
      <point x="572" y="116"/>
    </contour>
    <contour>
      <point x="1218" y="-160" type="line"/>
      <point x="1186" y="-224"/>
      <point x="1124" y="-267" type="qcurve"/>
      <point x="1084" y="-287" type="line"/>
      <point x="1106" y="-292"/>
      <point x="1119" y="-296" type="qcurve" smooth="yes"/>
      <point x="1169" y="-315"/>
      <point x="1218" y="-388"/>
      <point x="1218" y="-428" type="qcurve" smooth="yes"/>
      <point x="1218" y="-467"/>
      <point x="1171" y="-539"/>
      <point x="1071" y="-580"/>
      <point x="966" y="-580" type="qcurve" smooth="yes"/>
      <point x="911" y="-580"/>
      <point x="812" y="-539"/>
      <point x="756" y="-467"/>
      <point x="756" y="-428" type="qcurve" smooth="yes"/>
      <point x="756" y="-419" type="line"/>
      <point x="727" y="-432"/>
      <point x="698" y="-451" type="qcurve" smooth="yes"/>
      <point x="561" y="-539"/>
      <point x="434" y="-539" type="qcurve" smooth="yes"/>
      <point x="301" y="-539"/>
      <point x="180" y="-434"/>
      <point x="180" y="-360" type="qcurve" smooth="yes"/>
      <point x="180" y="-220"/>
      <point x="544" y="-126" type="qcurve" smooth="yes"/>
      <point x="930" y="-24" type="line"/>
      <point x="930" y="770" type="line" smooth="yes"/>
      <point x="930" y="1006"/>
      <point x="887" y="1006" type="qcurve" smooth="yes"/>
      <point x="844" y="1006"/>
      <point x="693" y="823" type="qcurve"/>
      <point x="542" y="1006"/>
      <point x="499" y="1006" type="qcurve" smooth="yes"/>
      <point x="456" y="1006"/>
      <point x="456" y="770" type="qcurve" smooth="yes"/>
      <point x="456" y="352" type="line"/>
      <point x="502" y="382"/>
      <point x="563" y="382" type="qcurve" smooth="yes"/>
      <point x="623" y="382"/>
      <point x="671" y="334" type="qcurve" smooth="yes"/>
      <point x="718" y="286"/>
      <point x="718" y="190" type="qcurve" smooth="yes"/>
      <point x="718" y="95"/>
      <point x="670" y="47" type="qcurve" smooth="yes"/>
      <point x="623" y="0"/>
      <point x="488" y="0" type="qcurve" smooth="yes"/>
      <point x="348" y="0"/>
      <point x="273" y="52" type="qcurve" smooth="yes"/>
      <point x="168" y="123"/>
      <point x="168" y="295" type="qcurve" smooth="yes"/>
      <point x="168" y="770" type="line" smooth="yes"/>
      <point x="168" y="985"/>
      <point x="352" y="1150"/>
      <point x="475" y="1150" type="qcurve" smooth="yes"/>
      <point x="602" y="1150"/>
      <point x="693" y="1007" type="qcurve"/>
      <point x="784" y="1150"/>
      <point x="911" y="1150" type="qcurve" smooth="yes"/>
      <point x="1035" y="1150"/>
      <point x="1218" y="982"/>
      <point x="1218" y="770" type="qcurve" smooth="yes"/>
    </contour>
    <contour>
      <point x="930" y="-138" type="line"/>
      <point x="705" y="-199" type="line"/>
      <point x="579" y="-234" type="line"/>
      <point x="425" y="-297"/>
      <point x="425" y="-340" type="qcurve" smooth="yes"/>
      <point x="425" y="-376"/>
      <point x="475" y="-388"/>
      <point x="502" y="-388" type="qcurve" smooth="yes"/>
      <point x="552" y="-388"/>
      <point x="765" y="-285" type="qcurve" smooth="yes"/>
      <point x="876" y="-231"/>
      <point x="930" y="-199" type="qcurve"/>
    </contour>
  </outline>
</glyph>
<glyph name="uni0ED9" format="1">
  <advance width="1706"/>
  <unicode hex="0ED9"/>
  <outline>
    <contour>
      <point x="1538" y="1150" type="line"/>
      <point x="1538" y="343" type="line" smooth="yes"/>
      <point x="1538" y="0"/>
      <point x="1153" y="0" type="qcurve" smooth="yes"/>
      <point x="768" y="0"/>
      <point x="768" y="343" type="qcurve" smooth="yes"/>
      <point x="768" y="784" type="line" smooth="yes"/>
      <point x="768" y="1006"/>
      <point x="612" y="1006" type="qcurve" smooth="yes"/>
      <point x="456" y="1006"/>
      <point x="456" y="784" type="qcurve" smooth="yes"/>
      <point x="456" y="345" type="line"/>
      <point x="487" y="364"/>
      <point x="518" y="364" type="qcurve" smooth="yes"/>
      <point x="549" y="364"/>
      <point x="619" y="335"/>
      <point x="668" y="273"/>
      <point x="677" y="238" type="qcurve" smooth="yes"/>
      <point x="683" y="211"/>
      <point x="683" y="177" type="qcurve" smooth="yes"/>
      <point x="683" y="164"/>
      <point x="682" y="151" type="qcurve" smooth="yes"/>
      <point x="676" y="100"/>
      <point x="635" y="42"/>
      <point x="578" y="12"/>
      <point x="526" y="2"/>
      <point x="489" y="2" type="qcurve" smooth="yes"/>
      <point x="272" y="8"/>
      <point x="168" y="229"/>
      <point x="168" y="326" type="qcurve" smooth="yes"/>
      <point x="168" y="784" type="line" smooth="yes"/>
      <point x="168" y="1150"/>
      <point x="612" y="1150" type="qcurve" smooth="yes"/>
      <point x="1056" y="1150"/>
      <point x="1056" y="784" type="qcurve" smooth="yes"/>
      <point x="1056" y="343" type="line" smooth="yes"/>
      <point x="1056" y="144"/>
      <point x="1153" y="144" type="qcurve" smooth="yes"/>
      <point x="1250" y="144"/>
      <point x="1250" y="343" type="qcurve" smooth="yes"/>
      <point x="1250" y="1150" type="line"/>
    </contour>
    <contour>
      <point x="572" y="193" type="qcurve"/>
      <point x="570" y="243"/>
      <point x="518" y="247" type="qcurve"/>
      <point x="452" y="243"/>
      <point x="446" y="189" type="qcurve"/>
      <point x="452" y="123"/>
      <point x="518" y="117" type="qcurve"/>
      <point x="568" y="123"/>
    </contour>
  </outline>
</glyph>
<glyph name="uni0EDC" format="1">
  <advance width="2425"/>
  <unicode hex="0EDC"/>
  <outline>
    <contour>
      <point x="310" y="903" type="qcurve" smooth="yes"/>
      <point x="371" y="903"/>
      <point x="371" y="967" type="qcurve" smooth="yes"/>
      <point x="371" y="1030"/>
      <point x="310" y="1030" type="qcurve" smooth="yes"/>
      <point x="249" y="1030"/>
      <point x="249" y="967" type="qcurve" smooth="yes"/>
      <point x="249" y="903"/>
    </contour>
    <contour>
      <point x="859" y="895" type="qcurve"/>
      <point x="859" y="918" type="line" smooth="yes"/>
      <point x="859" y="1036"/>
      <point x="817" y="1036" type="qcurve" smooth="yes"/>
      <point x="777" y="1036"/>
      <point x="777" y="965" type="qcurve" smooth="yes"/>
      <point x="777" y="894"/>
      <point x="830" y="894" type="qcurve" smooth="yes"/>
      <point x="845" y="894"/>
    </contour>
    <contour>
      <point x="1399" y="830" type="line" smooth="yes"/>
      <point x="1399" y="939"/>
      <point x="1347" y="1006"/>
      <point x="1302" y="1006" type="qcurve" smooth="yes"/>
      <point x="1247" y="1006"/>
      <point x="1147" y="835" type="qcurve"/>
      <point x="1147" y="380" type="line" smooth="yes"/>
      <point x="1147" y="0"/>
      <point x="647" y="0" type="qcurve" smooth="yes"/>
      <point x="147" y="0"/>
      <point x="147" y="363" type="qcurve" smooth="yes"/>
      <point x="147" y="541"/>
      <point x="259" y="696" type="qcurve" smooth="yes"/>
      <point x="297" y="748"/>
      <point x="322" y="795" type="qcurve"/>
      <point x="230" y="796"/>
      <point x="186" y="844" type="qcurve" smooth="yes"/>
      <point x="147" y="887"/>
      <point x="147" y="967" type="qcurve" smooth="yes"/>
      <point x="147" y="1056"/>
      <point x="189" y="1101" type="qcurve" smooth="yes"/>
      <point x="233" y="1150"/>
      <point x="325" y="1150" type="qcurve" smooth="yes"/>
      <point x="476" y="1150"/>
      <point x="526" y="1102" type="qcurve" smooth="yes"/>
      <point x="573" y="1056"/>
      <point x="573" y="967" type="qcurve" smooth="yes"/>
      <point x="573" y="820"/>
      <point x="435" y="497"/>
      <point x="435" y="363" type="qcurve" smooth="yes"/>
      <point x="435" y="144"/>
      <point x="647" y="144" type="qcurve" smooth="yes"/>
      <point x="859" y="144"/>
      <point x="859" y="380" type="qcurve" smooth="yes"/>
      <point x="859" y="780" type="line"/>
      <point x="832" y="780" type="line" smooth="yes"/>
      <point x="768" y="780"/>
      <point x="671" y="879"/>
      <point x="671" y="965" type="qcurve" smooth="yes"/>
      <point x="671" y="1059"/>
      <point x="798" y="1150"/>
      <point x="902" y="1150" type="qcurve" smooth="yes"/>
      <point x="1094" y="1150"/>
      <point x="1136" y="1009" type="qcurve"/>
      <point x="1217" y="1150"/>
      <point x="1368" y="1150" type="qcurve" smooth="yes"/>
      <point x="1492" y="1150"/>
      <point x="1581" y="1083" type="qcurve" smooth="yes"/>
      <point x="1687" y="1004"/>
      <point x="1687" y="830" type="qcurve" smooth="yes"/>
      <point x="1687" y="350" type="line" smooth="yes"/>
      <point x="1687" y="297"/>
      <point x="1678" y="252" type="qcurve"/>
      <point x="1736" y="247"/>
      <point x="1793" y="190" type="qcurve"/>
      <point x="1850" y="144"/>
      <point x="1888" y="144" type="qcurve" smooth="yes"/>
      <point x="1969" y="144"/>
      <point x="1969" y="320" type="qcurve" smooth="yes"/>
      <point x="1969" y="1150" type="line"/>
      <point x="2257" y="1150" type="line"/>
      <point x="2257" y="320" type="line" smooth="yes"/>
      <point x="2257" y="0"/>
      <point x="1878" y="0" type="qcurve" smooth="yes"/>
      <point x="1807" y="0"/>
      <point x="1709" y="106" type="qcurve" smooth="yes"/>
      <point x="1676" y="141"/>
      <point x="1638" y="144" type="qcurve"/>
      <point x="1550" y="0"/>
      <point x="1226" y="0" type="qcurve"/>
      <point x="1226" y="144" type="line"/>
      <point x="1303" y="144"/>
      <point x="1399" y="247"/>
      <point x="1399" y="350" type="qcurve" smooth="yes"/>
    </contour>
  </outline>
</glyph>
<glyph name="uni0EDE" format="1">
  <advance width="1446"/>
  <unicode hex="0EDE"/>
  <outline>
    <contour>
      <point x="198" y="191" type="qcurve" smooth="yes"/>
      <point x="198" y="116"/>
      <point x="273" y="116" type="qcurve" smooth="yes"/>
      <point x="349" y="116"/>
      <point x="349" y="191" type="qcurve" smooth="yes"/>
      <point x="349" y="267"/>
      <point x="273" y="267" type="qcurve" smooth="yes"/>
      <point x="198" y="267"/>
    </contour>
    <contour>
      <point x="805" y="585"/>
      <point x="805" y="568" type="qcurve" smooth="yes"/>
      <point x="805" y="551"/>
      <point x="821" y="520"/>
      <point x="852" y="504"/>
      <point x="869" y="504" type="qcurve" smooth="yes"/>
      <point x="886" y="504"/>
      <point x="917" y="520"/>
      <point x="935" y="551"/>
      <point x="935" y="568" type="qcurve" smooth="yes"/>
      <point x="935" y="585"/>
      <point x="916" y="616"/>
      <point x="885" y="634"/>
      <point x="869" y="634" type="qcurve" smooth="yes"/>
      <point x="853" y="634"/>
      <point x="822" y="616"/>
    </contour>
    <contour>
      <point x="340" y="895" type="qcurve"/>
      <point x="340" y="918" type="line" smooth="yes"/>
      <point x="340" y="1036"/>
      <point x="268" y="1036" type="qcurve" smooth="yes"/>
      <point x="198" y="1036"/>
      <point x="198" y="965" type="qcurve" smooth="yes"/>
      <point x="198" y="894"/>
      <point x="311" y="894" type="qcurve" smooth="yes"/>
      <point x="326" y="894"/>
    </contour>
    <contour>
      <point x="990" y="674" type="qcurve"/>
      <point x="990" y="830" type="line" smooth="yes"/>
      <point x="990" y="919"/>
      <point x="938" y="963" type="qcurve" smooth="yes"/>
      <point x="888" y="1006"/>
      <point x="823" y="1006" type="qcurve" smooth="yes"/>
      <point x="758" y="1006"/>
      <point x="661" y="883" type="qcurve"/>
      <point x="628" y="835" type="line"/>
      <point x="628" y="260" type="line" smooth="yes"/>
      <point x="628" y="123"/>
      <point x="557" y="58" type="qcurve" smooth="yes"/>
      <point x="494" y="0"/>
      <point x="273" y="0" type="qcurve" smooth="yes"/>
      <point x="171" y="0"/>
      <point x="124" y="54" type="qcurve" smooth="yes"/>
      <point x="82" y="102"/>
      <point x="82" y="191" type="qcurve" smooth="yes"/>
      <point x="82" y="281"/>
      <point x="124" y="328" type="qcurve" smooth="yes"/>
      <point x="172" y="382"/>
      <point x="273" y="382" type="qcurve" smooth="yes"/>
      <point x="310" y="382"/>
      <point x="340" y="375" type="qcurve"/>
      <point x="340" y="780" type="line"/>
      <point x="313" y="780" type="line" smooth="yes"/>
      <point x="189" y="780"/>
      <point x="132" y="833" type="qcurve" smooth="yes"/>
      <point x="82" y="879"/>
      <point x="82" y="965" type="qcurve" smooth="yes"/>
      <point x="82" y="1059"/>
      <point x="131" y="1105" type="qcurve" smooth="yes"/>
      <point x="179" y="1150"/>
      <point x="273" y="1150" type="qcurve" smooth="yes"/>
      <point x="575" y="1150"/>
      <point x="617" y="1009" type="qcurve"/>
      <point x="728" y="1150"/>
      <point x="919" y="1150" type="qcurve" smooth="yes"/>
      <point x="1083" y="1150"/>
      <point x="1172" y="1083" type="qcurve" smooth="yes"/>
      <point x="1278" y="1004"/>
      <point x="1278" y="830" type="qcurve" smooth="yes"/>
      <point x="1278" y="564" type="line"/>
      <point x="1300" y="622"/>
      <point x="1309" y="708" type="qcurve"/>
      <point x="1597" y="708" type="line"/>
      <point x="1570" y="487"/>
      <point x="1417" y="391" type="qcurve" smooth="yes"/>
      <point x="1352" y="350"/>
      <point x="1278" y="326" type="qcurve"/>
      <point x="1278" y="0" type="line"/>
      <point x="990" y="0" type="line"/>
      <point x="990" y="297" type="line"/>
      <point x="865" y="308"/>
      <point x="774" y="363" type="qcurve" smooth="yes"/>
      <point x="659" y="431"/>
      <point x="659" y="568" type="qcurve" smooth="yes"/>
      <point x="659" y="610"/>
      <point x="702" y="687"/>
      <point x="778" y="728"/>
      <point x="869" y="728" type="qcurve" smooth="yes"/>
      <point x="909" y="728"/>
      <point x="948" y="708" type="qcurve" smooth="yes"/>
      <point x="972" y="694"/>
    </contour>
  </outline>
</glyph>
<glyph name="uni0EDF" format="1">
  <advance width="1365"/>
  <unicode hex="0EDF"/>
  <outline>
    <contour>
      <point x="517" y="1034" type="qcurve" smooth="yes"/>
      <point x="486" y="1034"/>
      <point x="468" y="1022" type="qcurve" smooth="yes"/>
      <point x="441" y="1004"/>
      <point x="441" y="959" type="qcurve" smooth="yes"/>
      <point x="441" y="883"/>
      <point x="517" y="883" type="qcurve" smooth="yes"/>
      <point x="556" y="883"/>
      <point x="575" y="904" type="qcurve" smooth="yes"/>
      <point x="592" y="923"/>
      <point x="592" y="959" type="qcurve" smooth="yes"/>
      <point x="592" y="1000"/>
      <point x="570" y="1019" type="qcurve" smooth="yes"/>
      <point x="551" y="1034"/>
    </contour>
    <contour>
      <point x="775" y="635"/>
      <point x="775" y="618" type="qcurve" smooth="yes"/>
      <point x="775" y="601"/>
      <point x="791" y="570"/>
      <point x="822" y="554"/>
      <point x="839" y="554" type="qcurve" smooth="yes"/>
      <point x="856" y="554"/>
      <point x="887" y="570"/>
      <point x="905" y="601"/>
      <point x="905" y="618" type="qcurve" smooth="yes"/>
      <point x="905" y="635"/>
      <point x="886" y="666"/>
      <point x="855" y="684"/>
      <point x="839" y="684" type="qcurve" smooth="yes"/>
      <point x="823" y="684"/>
      <point x="792" y="666"/>
    </contour>
    <contour>
      <point x="1197" y="362" type="qcurve"/>
      <point x="1191" y="183"/>
      <point x="1070" y="94" type="qcurve" smooth="yes"/>
      <point x="943" y="0"/>
      <point x="687" y="0" type="qcurve" smooth="yes"/>
      <point x="392" y="0"/>
      <point x="267" y="83" type="qcurve" smooth="yes"/>
      <point x="147" y="163"/>
      <point x="147" y="320" type="qcurve" smooth="yes"/>
      <point x="147" y="494"/>
      <point x="310" y="560" type="qcurve"/>
      <point x="147" y="633"/>
      <point x="147" y="750" type="qcurve" smooth="yes"/>
      <point x="147" y="855" type="line" smooth="yes"/>
      <point x="147" y="1027"/>
      <point x="252" y="1098" type="qcurve" smooth="yes"/>
      <point x="327" y="1150"/>
      <point x="467" y="1150" type="qcurve" smooth="yes"/>
      <point x="602" y="1150"/>
      <point x="649" y="1103" type="qcurve" smooth="yes"/>
      <point x="697" y="1055"/>
      <point x="697" y="960" type="qcurve" smooth="yes"/>
      <point x="697" y="864"/>
      <point x="650" y="816" type="qcurve" smooth="yes"/>
      <point x="602" y="768"/>
      <point x="542" y="768" type="qcurve" smooth="yes"/>
      <point x="481" y="768"/>
      <point x="435" y="798" type="qcurve"/>
      <point x="435" y="750" type="line" smooth="yes"/>
      <point x="435" y="624"/>
      <point x="597" y="624" type="qcurve" smooth="yes"/>
      <point x="629" y="624" type="line"/>
      <point x="631" y="663"/>
      <point x="651" y="699" type="qcurve" smooth="yes"/>
      <point x="672" y="737"/>
      <point x="748" y="778"/>
      <point x="839" y="778" type="qcurve" smooth="yes"/>
      <point x="875" y="778"/>
      <point x="909" y="762" type="qcurve"/>
      <point x="909" y="1150" type="line"/>
      <point x="1197" y="1150" type="line"/>
      <point x="1197" y="530" type="line"/>
      <point x="1203" y="536"/>
      <point x="1209" y="544" type="qcurve" smooth="yes"/>
      <point x="1263" y="609"/>
      <point x="1279" y="758" type="qcurve"/>
      <point x="1567" y="758" type="line"/>
      <point x="1540" y="537"/>
      <point x="1387" y="441" type="qcurve" smooth="yes"/>
      <point x="1300" y="386"/>
    </contour>
    <contour>
      <point x="657" y="499" type="qcurve"/>
      <point x="646" y="490"/>
      <point x="627" y="490" type="qcurve" smooth="yes"/>
      <point x="597" y="490" type="line" smooth="yes"/>
      <point x="435" y="490"/>
      <point x="435" y="320" type="qcurve" smooth="yes"/>
      <point x="435" y="229"/>
      <point x="538" y="144"/>
      <point x="687" y="144" type="qcurve" smooth="yes"/>
      <point x="798" y="144"/>
      <point x="854" y="199" type="qcurve" smooth="yes"/>
      <point x="903" y="247"/>
      <point x="908" y="354" type="qcurve"/>
      <point x="816" y="370"/>
      <point x="744" y="413" type="qcurve" smooth="yes"/>
      <point x="686" y="447"/>
    </contour>
  </outline>
</glyph>
<glyph name="glyph140" format="1">
  <advance width="0"/>
  <outline>
    <contour>
      <point x="-79" y="-176" type="qcurve" smooth="yes"/>
      <point x="-79" y="-211"/>
      <point x="-50" y="-211" type="qcurve" smooth="yes"/>
      <point x="-22" y="-211"/>
      <point x="-22" y="-176" type="qcurve" smooth="yes"/>
      <point x="-22" y="-141"/>
      <point x="-50" y="-141" type="qcurve" smooth="yes"/>
      <point x="-79" y="-141"/>
    </contour>
    <contour>
      <point x="-67" y="-289" type="qcurve"/>
      <point x="-81" y="-286"/>
      <point x="-124" y="-260"/>
      <point x="-157" y="-206"/>
      <point x="-157" y="-176" type="qcurve" smooth="yes"/>
      <point x="-157" y="-145"/>
      <point x="-122" y="-90"/>
      <point x="-62" y="-61"/>
      <point x="0" y="-61" type="qcurve" smooth="yes"/>
      <point x="52" y="-61"/>
      <point x="112" y="-90"/>
      <point x="146" y="-145"/>
      <point x="146" y="-176" type="qcurve" smooth="yes"/>
      <point x="146" y="-370"/>
      <point x="-39" y="-450" type="qcurve"/>
      <point x="-144" y="-340" type="line"/>
      <point x="-87" y="-330"/>
    </contour>
  </outline>
</glyph>
<glyph name="glyph141" format="1">
  <advance width="0"/>
  <outline>
    <contour>
      <point x="-224" y="-159"/>
      <point x="-224" y="-169" type="qcurve" smooth="yes"/>
      <point x="-224" y="-179"/>
      <point x="-215" y="-195"/>
      <point x="-201" y="-205"/>
      <point x="-175" y="-207" type="qcurve"/>
      <point x="-162" y="-186"/>
      <point x="-162" y="-169" type="qcurve" smooth="yes"/>
      <point x="-162" y="-159"/>
      <point x="-171" y="-142"/>
      <point x="-185" y="-132"/>
      <point x="-193" y="-132" type="qcurve" smooth="yes"/>
      <point x="-200" y="-132"/>
      <point x="-215" y="-142"/>
    </contour>
    <contour>
      <point x="-40" y="-234" type="qcurve" smooth="yes"/>
      <point x="-51" y="-264"/>
      <point x="-51" y="-292" type="qcurve" smooth="yes"/>
      <point x="-51" y="-304"/>
      <point x="-49" y="-316" type="qcurve" smooth="yes"/>
      <point x="-42" y="-336"/>
      <point x="-5" y="-336" type="qcurve" smooth="yes"/>
      <point x="42" y="-336"/>
      <point x="42" y="-221" type="qcurve" smooth="yes"/>
      <point x="42" y="-61" type="line"/>
      <point x="204" y="-61" type="line"/>
      <point x="204" y="-226" type="line" smooth="yes"/>
      <point x="204" y="-420"/>
      <point x="-5" y="-420" type="qcurve" smooth="yes"/>
      <point x="-161" y="-420"/>
      <point x="-187" y="-368" type="qcurve" smooth="yes"/>
      <point x="-203" y="-338"/>
      <point x="-203" y="-311" type="qcurve" smooth="yes"/>
      <point x="-203" y="-290"/>
      <point x="-194" y="-271" type="qcurve"/>
      <point x="-222" y="-271"/>
      <point x="-248" y="-257" type="qcurve" smooth="yes"/>
      <point x="-276" y="-243"/>
      <point x="-303" y="-193"/>
      <point x="-303" y="-166" type="qcurve" smooth="yes"/>
      <point x="-303" y="-138"/>
      <point x="-276" y="-87"/>
      <point x="-220" y="-61"/>
      <point x="-151" y="-61" type="qcurve" smooth="yes"/>
      <point x="-111" y="-61"/>
      <point x="-56" y="-87"/>
      <point x="-25" y="-138"/>
      <point x="-25" y="-166" type="qcurve" smooth="yes"/>
      <point x="-25" y="-191"/>
    </contour>
  </outline>
</glyph>
<glyph name="glyph142" format="1">
  <advance width="0"/>
  <outline>
    <contour>
      <point x="-22" y="1457" type="line" smooth="yes"/>
      <point x="-152" y="1457"/>
      <point x="-228" y="1425"/>
      <point x="-244" y="1396" type="qcurve" smooth="yes"/>
      <point x="-251" y="1385"/>
      <point x="-251" y="1376" type="qcurve" smooth="yes"/>
      <point x="-251" y="1360"/>
      <point x="-234" y="1346" type="qcurve" smooth="yes"/>
      <point x="-207" y="1326"/>
      <point x="-145" y="1282" type="qcurve"/>
      <point x="-205" y="1202" type="line"/>
      <point x="-211" y="1203"/>
      <point x="-219" y="1203" type="qcurve" smooth="yes"/>
      <point x="-273" y="1224"/>
      <point x="-347" y="1259"/>
      <point x="-420" y="1310"/>
      <point x="-444" y="1346"/>
      <point x="-450" y="1380" type="qcurve"/>
      <point x="-450" y="1419"/>
      <point x="-343" y="1512"/>
      <point x="-159" y="1549"/>
      <point x="0" y="1549" type="qcurve" smooth="yes"/>
      <point x="160" y="1549"/>
      <point x="344" y="1512"/>
      <point x="450" y="1419"/>
      <point x="450" y="1380" type="qcurve"/>
      <point x="445" y="1346"/>
      <point x="421" y="1310"/>
      <point x="348" y="1251"/>
      <point x="274" y="1217"/>
      <point x="220" y="1203" type="qcurve" smooth="yes"/>
      <point x="213" y="1202"/>
      <point x="207" y="1202" type="qcurve"/>
      <point x="148" y="1282" type="line"/>
      <point x="208" y="1326"/>
      <point x="235" y="1346" type="qcurve" smooth="yes"/>
      <point x="252" y="1360"/>
      <point x="252" y="1376" type="qcurve" smooth="yes"/>
      <point x="252" y="1385"/>
      <point x="246" y="1396" type="qcurve" smooth="yes"/>
      <point x="229" y="1425"/>
      <point x="153" y="1457"/>
      <point x="22" y="1457" type="qcurve" smooth="yes"/>
    </contour>
  </outline>
</glyph>
<glyph name="glyph143" format="1">
  <advance width="0"/>
  <outline>
    <contour>
      <point x="88" y="1284" type="line"/>
      <point x="137" y="1328"/>
      <point x="161" y="1350" type="qcurve" smooth="yes"/>
      <point x="176" y="1362"/>
      <point x="176" y="1379" type="qcurve" smooth="yes"/>
      <point x="176" y="1389"/>
      <point x="170" y="1400" type="qcurve" smooth="yes"/>
      <point x="155" y="1429"/>
      <point x="90" y="1464"/>
      <point x="-35" y="1464" type="qcurve" smooth="yes"/>
      <point x="-55" y="1464" type="line" smooth="yes"/>
      <point x="-179" y="1464"/>
      <point x="-244" y="1429"/>
      <point x="-259" y="1400" type="qcurve" smooth="yes"/>
      <point x="-265" y="1389"/>
      <point x="-265" y="1379" type="qcurve" smooth="yes"/>
      <point x="-265" y="1362"/>
      <point x="-250" y="1350" type="qcurve" smooth="yes"/>
      <point x="-226" y="1328"/>
      <point x="-176" y="1284" type="qcurve"/>
      <point x="-228" y="1202" type="line"/>
      <point x="-235" y="1203"/>
      <point x="-242" y="1203" type="qcurve" smooth="yes"/>
      <point x="-290" y="1217"/>
      <point x="-357" y="1252"/>
      <point x="-422" y="1304"/>
      <point x="-444" y="1342"/>
      <point x="-450" y="1384" type="qcurve"/>
      <point x="-450" y="1424"/>
      <point x="-353" y="1511"/>
      <point x="-188" y="1557"/>
      <point x="-45" y="1557" type="qcurve" smooth="yes"/>
      <point x="98" y="1557"/>
      <point x="264" y="1511"/>
      <point x="359" y="1424"/>
      <point x="359" y="1384" type="qcurve"/>
      <point x="354" y="1350"/>
      <point x="343" y="1331" type="qcurve" smooth="yes"/>
      <point x="338" y="1319"/>
      <point x="324" y="1299" type="qcurve"/>
      <point x="450" y="1299" type="line"/>
      <point x="450" y="1202" type="line"/>
      <point x="88" y="1202" type="line"/>
    </contour>
  </outline>
</glyph>
<glyph name="glyph144" format="1">
  <advance width="0"/>
  <outline>
    <contour>
      <point x="0" y="1400" type="qcurve" smooth="yes"/>
      <point x="25" y="1400"/>
      <point x="69" y="1386"/>
      <point x="94" y="1359"/>
      <point x="94" y="1345" type="qcurve" smooth="yes"/>
      <point x="94" y="1331"/>
      <point x="70" y="1304"/>
      <point x="26" y="1290"/>
      <point x="0" y="1290" type="qcurve" smooth="yes"/>
      <point x="-24" y="1290"/>
      <point x="-68" y="1304"/>
      <point x="-93" y="1331"/>
      <point x="-93" y="1345" type="qcurve" smooth="yes"/>
      <point x="-93" y="1359"/>
      <point x="-68" y="1386"/>
      <point x="-23" y="1400"/>
    </contour>
    <contour>
      <point x="-22" y="1457" type="line" smooth="yes"/>
      <point x="-152" y="1457"/>
      <point x="-228" y="1425"/>
      <point x="-244" y="1396" type="qcurve" smooth="yes"/>
      <point x="-251" y="1385"/>
      <point x="-251" y="1376" type="qcurve" smooth="yes"/>
      <point x="-251" y="1360"/>
      <point x="-234" y="1346" type="qcurve" smooth="yes"/>
      <point x="-207" y="1326"/>
      <point x="-145" y="1282" type="qcurve"/>
      <point x="-205" y="1202" type="line"/>
      <point x="-211" y="1203"/>
      <point x="-219" y="1203" type="qcurve" smooth="yes"/>
      <point x="-273" y="1224"/>
      <point x="-347" y="1259"/>
      <point x="-420" y="1310"/>
      <point x="-444" y="1346"/>
      <point x="-450" y="1380" type="qcurve"/>
      <point x="-450" y="1419"/>
      <point x="-343" y="1512"/>
      <point x="-159" y="1549"/>
      <point x="0" y="1549" type="qcurve" smooth="yes"/>
      <point x="160" y="1549"/>
      <point x="344" y="1512"/>
      <point x="450" y="1419"/>
      <point x="450" y="1380" type="qcurve"/>
      <point x="445" y="1346"/>
      <point x="421" y="1310"/>
      <point x="348" y="1251"/>
      <point x="274" y="1217"/>
      <point x="220" y="1203" type="qcurve" smooth="yes"/>
      <point x="213" y="1202"/>
      <point x="207" y="1202" type="qcurve"/>
      <point x="148" y="1282" type="line"/>
      <point x="208" y="1326"/>
      <point x="235" y="1346" type="qcurve" smooth="yes"/>
      <point x="252" y="1360"/>
      <point x="252" y="1376" type="qcurve" smooth="yes"/>
      <point x="252" y="1385"/>
      <point x="246" y="1396" type="qcurve" smooth="yes"/>
      <point x="229" y="1425"/>
      <point x="153" y="1457"/>
      <point x="22" y="1457" type="qcurve" smooth="yes"/>
    </contour>
  </outline>
</glyph>
<glyph name="glyph145" format="1">
  <advance width="0"/>
  <outline>
    <contour>
      <point x="-40" y="1410" type="qcurve" smooth="yes"/>
      <point x="-19" y="1410"/>
      <point x="20" y="1396"/>
      <point x="43" y="1370"/>
      <point x="43" y="1357" type="qcurve" smooth="yes"/>
      <point x="43" y="1344"/>
      <point x="21" y="1317"/>
      <point x="-18" y="1303"/>
      <point x="-40" y="1303" type="qcurve" smooth="yes"/>
      <point x="-62" y="1303"/>
      <point x="-101" y="1317"/>
      <point x="-123" y="1344"/>
      <point x="-123" y="1357" type="qcurve" smooth="yes"/>
      <point x="-123" y="1370"/>
      <point x="-101" y="1396"/>
      <point x="-61" y="1410"/>
    </contour>
    <contour>
      <point x="88" y="1284" type="line"/>
      <point x="137" y="1328"/>
      <point x="161" y="1350" type="qcurve" smooth="yes"/>
      <point x="176" y="1362"/>
      <point x="176" y="1379" type="qcurve" smooth="yes"/>
      <point x="176" y="1389"/>
      <point x="170" y="1400" type="qcurve" smooth="yes"/>
      <point x="155" y="1429"/>
      <point x="90" y="1464"/>
      <point x="-35" y="1464" type="qcurve" smooth="yes"/>
      <point x="-55" y="1464" type="line" smooth="yes"/>
      <point x="-179" y="1464"/>
      <point x="-244" y="1429"/>
      <point x="-259" y="1400" type="qcurve" smooth="yes"/>
      <point x="-265" y="1389"/>
      <point x="-265" y="1379" type="qcurve" smooth="yes"/>
      <point x="-265" y="1362"/>
      <point x="-250" y="1350" type="qcurve" smooth="yes"/>
      <point x="-226" y="1328"/>
      <point x="-176" y="1284" type="qcurve"/>
      <point x="-228" y="1202" type="line"/>
      <point x="-235" y="1203"/>
      <point x="-242" y="1203" type="qcurve" smooth="yes"/>
      <point x="-290" y="1217"/>
      <point x="-357" y="1252"/>
      <point x="-422" y="1304"/>
      <point x="-444" y="1342"/>
      <point x="-450" y="1384" type="qcurve"/>
      <point x="-450" y="1424"/>
      <point x="-353" y="1511"/>
      <point x="-188" y="1557"/>
      <point x="-45" y="1557" type="qcurve" smooth="yes"/>
      <point x="98" y="1557"/>
      <point x="264" y="1511"/>
      <point x="359" y="1424"/>
      <point x="359" y="1384" type="qcurve"/>
      <point x="354" y="1350"/>
      <point x="343" y="1331" type="qcurve" smooth="yes"/>
      <point x="338" y="1319"/>
      <point x="324" y="1299" type="qcurve"/>
      <point x="450" y="1299" type="line"/>
      <point x="450" y="1202" type="line"/>
      <point x="88" y="1202" type="line"/>
    </contour>
  </outline>
</glyph>
<glyph name="glyph146" format="1">
  <advance width="0"/>
  <outline>
    <contour>
      <point x="-306" y="1562"/>
      <point x="-323" y="1531"/>
      <point x="-323" y="1514" type="qcurve" smooth="yes"/>
      <point x="-323" y="1497"/>
      <point x="-307" y="1466"/>
      <point x="-276" y="1450"/>
      <point x="-259" y="1450" type="qcurve" smooth="yes"/>
      <point x="-242" y="1450"/>
      <point x="-211" y="1466"/>
      <point x="-193" y="1497"/>
      <point x="-193" y="1514" type="qcurve" smooth="yes"/>
      <point x="-193" y="1531"/>
      <point x="-212" y="1562"/>
      <point x="-243" y="1580"/>
      <point x="-259" y="1580" type="qcurve" smooth="yes"/>
      <point x="-275" y="1580"/>
    </contour>
    <contour>
      <point x="-19" y="1374" type="qcurve" smooth="yes"/>
      <point x="57" y="1374"/>
      <point x="165" y="1505"/>
      <point x="181" y="1654" type="qcurve"/>
      <point x="469" y="1654" type="line"/>
      <point x="442" y="1433"/>
      <point x="136" y="1240"/>
      <point x="-69" y="1240" type="qcurve" smooth="yes"/>
      <point x="-239" y="1240"/>
      <point x="-469" y="1377"/>
      <point x="-469" y="1514" type="qcurve" smooth="yes"/>
      <point x="-469" y="1556"/>
      <point x="-426" y="1633"/>
      <point x="-350" y="1674"/>
      <point x="-259" y="1674" type="qcurve" smooth="yes"/>
      <point x="-219" y="1674"/>
      <point x="-142" y="1633"/>
      <point x="-99" y="1556"/>
      <point x="-99" y="1514" type="qcurve" smooth="yes"/>
      <point x="-99" y="1472"/>
      <point x="-120" y="1434" type="qcurve"/>
      <point x="-103" y="1374"/>
    </contour>
  </outline>
</glyph>
<glyph name="glyph147" format="1">
  <advance width="0"/>
  <outline>
    <contour>
      <point x="-259" y="1334" type="qcurve" smooth="yes"/>
      <point x="-243" y="1334"/>
      <point x="-212" y="1352"/>
      <point x="-193" y="1383"/>
      <point x="-193" y="1400" type="qcurve" smooth="yes"/>
      <point x="-193" y="1417"/>
      <point x="-211" y="1448"/>
      <point x="-242" y="1464"/>
      <point x="-259" y="1464" type="qcurve" smooth="yes"/>
      <point x="-276" y="1464"/>
      <point x="-307" y="1448"/>
      <point x="-323" y="1417"/>
      <point x="-323" y="1400" type="qcurve" smooth="yes"/>
      <point x="-323" y="1383"/>
      <point x="-306" y="1352"/>
      <point x="-275" y="1334"/>
    </contour>
    <contour>
      <point x="-120" y="1480" type="qcurve"/>
      <point x="-99" y="1442"/>
      <point x="-99" y="1400" type="qcurve" smooth="yes"/>
      <point x="-99" y="1358"/>
      <point x="-142" y="1281"/>
      <point x="-219" y="1240"/>
      <point x="-259" y="1240" type="qcurve" smooth="yes"/>
      <point x="-350" y="1240"/>
      <point x="-426" y="1281"/>
      <point x="-469" y="1358"/>
      <point x="-469" y="1400" type="qcurve" smooth="yes"/>
      <point x="-469" y="1537"/>
      <point x="-239" y="1674"/>
      <point x="-69" y="1674" type="qcurve" smooth="yes"/>
      <point x="136" y="1674"/>
      <point x="442" y="1481"/>
      <point x="469" y="1260" type="qcurve"/>
      <point x="181" y="1260" type="line"/>
      <point x="165" y="1409"/>
      <point x="57" y="1540"/>
      <point x="-19" y="1540" type="qcurve" smooth="yes"/>
      <point x="-103" y="1540"/>
    </contour>
  </outline>
</glyph>
<glyph name="glyph152" format="1">
  <advance width="0"/>
  <outline>
    <contour>
      <point x="-97" y="1905" type="line"/>
      <point x="97" y="1905" type="line"/>
      <point x="97" y="1600" type="line"/>
      <point x="-97" y="1600" type="line"/>
    </contour>
  </outline>
</glyph>
<glyph name="glyph153" format="1">
  <advance width="0"/>
  <outline>
    <contour>
      <point x="-141" y="1790" type="qcurve"/>
      <point x="-134" y="1803"/>
      <point x="-134" y="1812" type="qcurve" smooth="yes"/>
      <point x="-134" y="1818"/>
      <point x="-137" y="1823" type="qcurve" smooth="yes"/>
      <point x="-149" y="1841"/>
      <point x="-171" y="1841" type="qcurve" smooth="yes"/>
      <point x="-175" y="1841"/>
      <point x="-180" y="1841" type="qcurve" smooth="yes"/>
      <point x="-199" y="1836"/>
      <point x="-200" y="1815" type="qcurve" smooth="yes"/>
      <point x="-201" y="1814"/>
      <point x="-201" y="1813" type="qcurve" smooth="yes"/>
      <point x="-201" y="1794"/>
      <point x="-185" y="1791" type="qcurve" smooth="yes"/>
      <point x="-171" y="1789"/>
      <point x="-156" y="1789" type="qcurve" smooth="yes"/>
      <point x="-149" y="1789"/>
    </contour>
    <contour>
      <point x="-276" y="1762" type="qcurve" smooth="yes"/>
      <point x="-308" y="1782"/>
      <point x="-308" y="1815" type="qcurve" smooth="yes"/>
      <point x="-308" y="1822" type="line"/>
      <point x="-304" y="1860"/>
      <point x="-260" y="1883" type="qcurve" smooth="yes"/>
      <point x="-224" y="1900"/>
      <point x="-177" y="1900" type="qcurve" smooth="yes"/>
      <point x="-167" y="1900"/>
      <point x="-156" y="1899" type="qcurve" smooth="yes"/>
      <point x="-35" y="1894"/>
      <point x="-13" y="1865" type="qcurve" smooth="yes"/>
      <point x="7" y="1838"/>
      <point x="7" y="1799" type="qcurve" smooth="yes"/>
      <point x="7" y="1792" type="line" smooth="yes"/>
      <point x="5" y="1748"/>
      <point x="-72" y="1687" type="qcurve"/>
      <point x="6" y="1695"/>
      <point x="134" y="1793"/>
      <point x="175" y="1875" type="qcurve"/>
      <point x="385" y="1832" type="line"/>
      <point x="324" y="1744"/>
      <point x="202" y="1663"/>
      <point x="20" y="1610"/>
      <point x="-170" y="1610" type="qcurve" smooth="yes"/>
      <point x="-384" y="1610" type="line"/>
      <point x="-384" y="1675" type="line"/>
      <point x="-248" y="1695"/>
      <point x="-194" y="1739" type="qcurve"/>
      <point x="-246" y="1744"/>
    </contour>
  </outline>
</glyph>
<glyph name="glyph154" format="1">
  <advance width="0"/>
  <outline>
    <contour>
      <point x="-296" y="1600" type="qcurve"/>
      <point x="-392" y="1628"/>
      <point x="-476" y="1703"/>
      <point x="-476" y="1750" type="qcurve" smooth="yes"/>
      <point x="-476" y="1785"/>
      <point x="-427" y="1839"/>
      <point x="-374" y="1878"/>
      <point x="-302" y="1900"/>
      <point x="-250" y="1900" type="qcurve" smooth="yes"/>
      <point x="-223" y="1900"/>
      <point x="-165" y="1884"/>
      <point x="-91" y="1836"/>
      <point x="-76" y="1825" type="qcurve"/>
      <point x="-38" y="1846"/>
      <point x="40" y="1893"/>
      <point x="99" y="1900" type="qcurve"/>
      <point x="146" y="1900"/>
      <point x="229" y="1874"/>
      <point x="276" y="1836"/>
      <point x="289" y="1817" type="qcurve" smooth="yes"/>
      <point x="300" y="1800"/>
      <point x="300" y="1776" type="qcurve" smooth="yes"/>
      <point x="300" y="1770" type="line"/>
      <point x="335" y="1804"/>
      <point x="355" y="1847"/>
      <point x="372" y="1890" type="qcurve"/>
      <point x="413" y="1889"/>
      <point x="459" y="1869"/>
      <point x="476" y="1849" type="qcurve" smooth="yes"/>
      <point x="477" y="1845"/>
      <point x="477" y="1841" type="qcurve" smooth="yes"/>
      <point x="477" y="1798"/>
      <point x="449" y="1763" type="qcurve" smooth="yes"/>
      <point x="418" y="1723"/>
      <point x="329" y="1669"/>
      <point x="214" y="1616"/>
      <point x="149" y="1606" type="qcurve" smooth="yes"/>
      <point x="143" y="1607"/>
      <point x="138" y="1608" type="qcurve" smooth="yes"/>
      <point x="80" y="1663" type="line"/>
      <point x="115" y="1678"/>
      <point x="150" y="1725"/>
      <point x="151" y="1747" type="qcurve" smooth="yes"/>
      <point x="151" y="1771"/>
      <point x="116" y="1814"/>
      <point x="88" y="1814" type="qcurve" smooth="yes"/>
      <point x="60" y="1814"/>
      <point x="-53" y="1709"/>
      <point x="-79" y="1709" type="qcurve" smooth="yes"/>
      <point x="-103" y="1709"/>
      <point x="-216" y="1812"/>
      <point x="-240" y="1812" type="qcurve" smooth="yes"/>
      <point x="-265" y="1812"/>
      <point x="-302" y="1764"/>
      <point x="-302" y="1737" type="qcurve" smooth="yes"/>
      <point x="-302" y="1716"/>
      <point x="-262" y="1675"/>
      <point x="-234" y="1664" type="qcurve"/>
      <point x="-280" y="1604" type="line"/>
      <point x="-288" y="1602"/>
    </contour>
  </outline>
</glyph>
<glyph name="glyph155" format="1">
  <advance width="0"/>
  <outline>
    <contour>
      <point x="-91" y="1600" type="line"/>
      <point x="-91" y="1704" type="line"/>
      <point x="-225" y="1704" type="line"/>
      <point x="-225" y="1801" type="line"/>
      <point x="-91" y="1801" type="line"/>
      <point x="-91" y="1905" type="line"/>
      <point x="92" y="1905" type="line"/>
      <point x="92" y="1801" type="line"/>
      <point x="225" y="1801" type="line"/>
      <point x="225" y="1704" type="line"/>
      <point x="92" y="1704" type="line"/>
      <point x="92" y="1600" type="line"/>
    </contour>
  </outline>
</glyph>
<glyph name="glyph156" format="1">
  <advance width="0"/>
  <outline>
    <contour>
      <point x="-639" y="1555" type="line"/>
      <point x="-445" y="1555" type="line"/>
      <point x="-445" y="1250" type="line"/>
      <point x="-639" y="1250" type="line"/>
    </contour>
  </outline>
</glyph>
<glyph name="glyph157" format="1">
  <advance width="0"/>
  <outline>
    <contour>
      <point x="-667" y="1430" type="qcurve"/>
      <point x="-660" y="1443"/>
      <point x="-660" y="1452" type="qcurve" smooth="yes"/>
      <point x="-660" y="1458"/>
      <point x="-663" y="1463" type="qcurve" smooth="yes"/>
      <point x="-675" y="1481"/>
      <point x="-697" y="1481" type="qcurve" smooth="yes"/>
      <point x="-701" y="1481"/>
      <point x="-706" y="1481" type="qcurve" smooth="yes"/>
      <point x="-725" y="1476"/>
      <point x="-726" y="1455" type="qcurve" smooth="yes"/>
      <point x="-727" y="1454"/>
      <point x="-727" y="1453" type="qcurve" smooth="yes"/>
      <point x="-727" y="1434"/>
      <point x="-711" y="1431" type="qcurve" smooth="yes"/>
      <point x="-697" y="1429"/>
      <point x="-682" y="1429" type="qcurve" smooth="yes"/>
      <point x="-675" y="1429"/>
    </contour>
    <contour>
      <point x="-802" y="1402" type="qcurve" smooth="yes"/>
      <point x="-834" y="1422"/>
      <point x="-834" y="1455" type="qcurve" smooth="yes"/>
      <point x="-834" y="1462" type="line"/>
      <point x="-830" y="1500"/>
      <point x="-786" y="1523" type="qcurve" smooth="yes"/>
      <point x="-750" y="1540"/>
      <point x="-703" y="1540" type="qcurve" smooth="yes"/>
      <point x="-693" y="1540"/>
      <point x="-682" y="1539" type="qcurve" smooth="yes"/>
      <point x="-561" y="1534"/>
      <point x="-539" y="1505" type="qcurve" smooth="yes"/>
      <point x="-519" y="1478"/>
      <point x="-519" y="1439" type="qcurve" smooth="yes"/>
      <point x="-519" y="1432" type="line" smooth="yes"/>
      <point x="-521" y="1388"/>
      <point x="-598" y="1327" type="qcurve"/>
      <point x="-520" y="1335"/>
      <point x="-392" y="1433"/>
      <point x="-351" y="1515" type="qcurve"/>
      <point x="-141" y="1472" type="line"/>
      <point x="-202" y="1384"/>
      <point x="-324" y="1303"/>
      <point x="-506" y="1250"/>
      <point x="-696" y="1250" type="qcurve" smooth="yes"/>
      <point x="-910" y="1250" type="line"/>
      <point x="-910" y="1315" type="line"/>
      <point x="-774" y="1335"/>
      <point x="-720" y="1379" type="qcurve"/>
      <point x="-772" y="1384"/>
    </contour>
  </outline>
</glyph>
